<svg width="150" height="258" viewBox="0 0 150 258" fill="none" xmlns="http://www.w3.org/2000/svg">
<path d="M135.524 190.002L73.2104 153.515L9.52621 190.283L72.7224 226.769L135.524 190.002Z" stroke="white" stroke-width="11"/>
<path d="M144.999 145.5V190H134.702V194.414L144.999 200.387L70 156.887V102L144.999 145.5ZM79.5156 151.405L135.483 183.867V150.98L79.5156 118.519V151.405Z" fill="white"/>
<path d="M79.7061 107.674V152.352H69.4512V156.784L79.7061 162.779V162.78L5 119.106V64L79.7061 107.674ZM14.4961 113.658L70.209 146.229V113.122L14.4961 80.5518V113.658Z" fill="white"/>
<path d="M149.918 75.332L77.541 117.29L5 74.915V64H4.99707L69.0039 27.4775L149.918 75.332ZM14.5977 69.4893L77.5225 106.246L130.999 75.2461L68.8887 38.5117L14.5977 69.4893Z" fill="white"/>
</svg>
