<svg width="792" height="258" viewBox="0 0 792 258" fill="none" xmlns="http://www.w3.org/2000/svg">
<path d="M135.524 190.002L73.2104 153.515L9.52621 190.283L72.7224 226.769L135.524 190.002Z" stroke="white" stroke-width="11"/>
<path d="M232.599 200V58.1H267.429V118.73C274.309 116.437 280.329 113.212 285.489 109.055C290.792 104.755 295.307 99.8817 299.034 94.435C302.761 88.9883 305.842 83.1833 308.279 77.02C310.716 70.7133 312.579 64.4067 313.869 58.1H352.999C351.279 66.27 348.771 74.01 345.474 81.32C342.321 88.4867 338.307 95.08 333.434 101.1C328.561 107.12 322.899 112.495 316.449 117.225C309.999 121.812 302.689 125.61 294.519 128.62V130.34C303.262 129.623 310.501 130.197 316.234 132.06C321.967 133.78 326.626 136.36 330.209 139.8C333.792 143.24 336.587 147.182 338.594 151.625C340.744 155.925 342.536 160.297 343.969 164.74L355.364 200H316.664L308.494 168.395C307.204 163.235 305.341 159.078 302.904 155.925C300.611 152.628 297.601 150.263 293.874 148.83C290.147 147.397 285.417 146.68 279.684 146.68H267.429V200H232.599ZM393.06 203.01C387.326 203.01 381.88 202.007 376.72 200C371.56 197.993 367.331 194.768 364.035 190.325C360.738 185.738 359.09 179.647 359.09 172.05C359.09 165.027 360.451 159.365 363.175 155.065C365.898 150.622 369.553 147.11 374.14 144.53C378.726 141.807 383.743 139.8 389.19 138.51C394.636 137.077 400.011 135.858 405.315 134.855C412.768 133.422 418.358 132.275 422.085 131.415C425.811 130.555 428.32 129.552 429.61 128.405C431.043 127.258 431.76 125.682 431.76 123.675C431.76 119.518 430.183 116.365 427.03 114.215C424.02 112.065 420.006 110.99 414.99 110.99C411.836 110.99 408.683 111.563 405.53 112.71C402.376 113.857 399.796 115.935 397.79 118.945C395.783 121.812 394.851 125.968 394.995 131.415L364.035 129.265C363.748 120.235 365.11 112.782 368.12 106.905C371.13 100.885 375.215 96.2267 380.375 92.93C385.678 89.49 391.411 87.0533 397.575 85.62C403.881 84.1867 410.116 83.47 416.28 83.47C427.603 83.47 436.92 85.62 444.23 89.92C451.54 94.0767 456.915 100.168 460.355 108.195C463.938 116.078 465.73 125.682 465.73 137.005V157.215C465.73 161.945 465.73 166.747 465.73 171.62C465.73 176.35 465.73 181.08 465.73 185.81C465.73 190.54 465.73 195.27 465.73 200H435.63C435.63 194.84 435.63 189.608 435.63 184.305C435.63 179.002 435.63 173.412 435.63 167.535H434.34C433.766 173.985 431.616 179.933 427.89 185.38C424.306 190.683 419.505 194.983 413.485 198.28C407.608 201.433 400.8 203.01 393.06 203.01ZM407.465 177.64C409.901 177.64 412.481 177.21 415.205 176.35C418.071 175.347 420.723 173.77 423.16 171.62C425.74 169.47 427.818 166.532 429.395 162.805C430.971 158.935 431.76 154.205 431.76 148.615V143.455L437.565 142.81C436.418 144.673 434.483 146.178 431.76 147.325C429.18 148.472 426.241 149.403 422.945 150.12C419.648 150.693 416.28 151.338 412.84 152.055C409.543 152.628 406.461 153.488 403.595 154.635C400.728 155.638 398.363 157.072 396.5 158.935C394.78 160.655 393.92 163.092 393.92 166.245C393.92 169.972 395.21 172.838 397.79 174.845C400.513 176.708 403.738 177.64 407.465 177.64ZM479.913 200V138.295V86.48H510.013V131.63H511.733C512.593 119.59 514.241 110.13 516.678 103.25C519.258 96.2267 522.411 91.2817 526.138 88.415C530.008 85.405 534.308 83.9 539.038 83.9C541.618 83.9 544.27 84.2583 546.993 84.975C549.86 85.6917 552.655 86.8383 555.378 88.415L553.658 127.115C550.505 125.252 547.423 123.89 544.413 123.03C541.403 122.027 538.536 121.525 535.813 121.525C531.226 121.525 527.356 122.815 524.203 125.395C521.05 127.975 518.613 131.773 516.893 136.79C515.316 141.807 514.528 147.898 514.528 155.065V200H479.913ZM604.312 203.01C596.142 203.01 588.761 200.788 582.167 196.345C575.717 191.902 570.557 185.165 566.687 176.135C562.961 167.105 561.097 155.71 561.097 141.95C561.097 128.907 562.817 118.085 566.257 109.485C569.697 100.742 574.571 94.22 580.877 89.92C587.184 85.62 594.566 83.47 603.022 83.47C609.616 83.47 615.421 84.8317 620.437 87.555C625.597 90.2783 629.826 94.5783 633.122 100.455C636.419 106.332 638.712 114 640.002 123.46H641.937C641.221 118.587 640.504 113.785 639.787 109.055C639.071 104.325 638.497 99.7383 638.067 95.295C637.781 90.8517 637.637 86.695 637.637 82.825V49.5H672.467V160.01V200H642.152V164.955H640.647C639.071 173.268 636.634 180.292 633.337 186.025C630.184 191.615 626.171 195.843 621.297 198.71C616.567 201.577 610.906 203.01 604.312 203.01ZM616.567 175.275C619.291 175.275 621.942 174.702 624.522 173.555C627.102 172.265 629.396 170.33 631.402 167.75C633.409 165.17 634.986 161.945 636.132 158.075C637.422 154.205 638.067 149.618 638.067 144.315V142.81C638.067 138.51 637.637 134.712 636.777 131.415C635.917 127.975 634.771 125.108 633.337 122.815C631.904 120.378 630.256 118.443 628.392 117.01C626.529 115.433 624.522 114.287 622.372 113.57C620.366 112.853 618.359 112.495 616.352 112.495C611.909 112.495 608.182 114 605.172 117.01C602.162 120.02 599.941 123.962 598.507 128.835C597.074 133.565 596.357 138.725 596.357 144.315C596.357 149.905 597.146 155.065 598.722 159.795C600.299 164.525 602.592 168.323 605.602 171.19C608.612 173.913 612.267 175.275 616.567 175.275ZM737.649 203.01C730.052 203.01 722.957 202.222 716.364 200.645C709.914 199.212 704.252 196.847 699.379 193.55C694.649 190.253 690.994 185.882 688.414 180.435C685.977 174.845 684.974 168.108 685.404 160.225L715.719 157.645C716.006 162.375 717.081 166.317 718.944 169.47C720.807 172.48 723.387 174.702 726.684 176.135C729.981 177.568 733.994 178.285 738.724 178.285C743.167 178.285 746.966 177.568 750.119 176.135C753.416 174.558 755.064 171.978 755.064 168.395C755.064 166.532 754.491 165.027 753.344 163.88C752.197 162.59 750.047 161.443 746.894 160.44C743.884 159.293 739.441 158.003 733.564 156.57C726.254 154.707 719.661 152.843 713.784 150.98C707.907 149.117 702.891 146.895 698.734 144.315C694.577 141.735 691.424 138.582 689.274 134.855C687.124 130.985 686.049 126.255 686.049 120.665C686.049 112.782 688.127 106.117 692.284 100.67C696.584 95.08 702.461 90.8517 709.914 87.985C717.367 84.975 725.967 83.47 735.714 83.47C744.457 83.47 752.627 84.8317 760.224 87.555C767.821 90.2783 773.769 94.7217 778.069 100.885C782.512 107.048 784.161 115.218 783.014 125.395L753.344 128.19C753.774 124.033 753.201 120.522 751.624 117.655C750.047 114.645 747.754 112.423 744.744 110.99C741.734 109.413 738.079 108.625 733.779 108.625C728.906 108.625 725.107 109.557 722.384 111.42C719.804 113.14 718.514 115.362 718.514 118.085C718.514 120.235 719.302 122.098 720.879 123.675C722.599 125.108 725.179 126.398 728.619 127.545C732.202 128.548 736.789 129.695 742.379 130.985C747.252 131.988 752.341 133.278 757.644 134.855C762.947 136.432 767.892 138.582 772.479 141.305C777.066 143.885 780.792 147.325 783.659 151.625C786.526 155.925 787.959 161.372 787.959 167.965C787.959 174.988 786.024 181.152 782.154 186.455C778.284 191.758 772.622 195.843 765.169 198.71C757.716 201.577 748.542 203.01 737.649 203.01Z" fill="white"/>
<path d="M144.999 145.5V190H134.702V194.414L144.999 200.387L70 156.887V102L144.999 145.5ZM79.5156 151.405L135.483 183.867V150.98L79.5156 118.519V151.405Z" fill="white"/>
<path d="M79.7061 107.674V152.352H69.4512V156.784L79.7061 162.779V162.78L5 119.106V64L79.7061 107.674ZM14.4961 113.658L70.209 146.229V113.122L14.4961 80.5518V113.658Z" fill="white"/>
<path d="M149.918 75.332L77.541 117.29L5 74.915V64H4.99707L69.0039 27.4775L149.918 75.332ZM14.5977 69.4893L77.5225 106.246L130.999 75.2461L68.8887 38.5117L14.5977 69.4893Z" fill="white"/>
</svg>
