<svg xmlns="http://www.w3.org/2000/svg" fill="none" viewBox="0 0 48 48" id="Earth--Streamline-Ionic-Filled" height="48" width="48">
  <desc>
    Earth Streamline Icon: https://streamlinehq.com
  </desc>
  <path fill="#000000" d="M40.5732 7.4267c-2.1725 -2.194 -4.7571 -3.9372 -7.6054 -5.1293 -2.8484 -1.1921 -5.904 -1.8097 -8.9916 -1.8173 -3.0878 -0.0076 -6.1465 0.5949 -9.0006 1.773 -2.8541 1.1781 -5.4473 2.9085 -7.6307 5.0919 -2.1833 2.1833 -3.9137 4.7765 -5.0918 7.6306C1.075 17.8297 0.4725 20.8884 0.4801 23.9762c0.0076 3.0876 0.6252 6.1432 1.8173 8.9916 1.1921 2.8483 2.9353 5.4329 5.1293 7.6054 2.1726 2.1941 4.7572 3.9373 7.6056 5.1294 2.8481 1.1921 5.904 1.8097 8.9916 1.8173 3.0877 0.0076 6.1465 -0.595 9.0005 -1.7731 2.8542 -1.178 5.4473 -2.9084 7.6307 -5.0918 2.1833 -2.1832 3.9137 -4.7764 5.0918 -7.6306 1.178 -2.8541 1.7806 -5.9128 1.773 -9.0005 -0.0075 -3.0876 -0.6252 -6.1435 -1.8174 -8.9918 -1.192 -2.8481 -2.9352 -5.4328 -5.1292 -7.6054ZM3.9099 23.9999c-0.0007 -1.778 0.235 -3.5483 0.7011 -5.2642 0.768 1.6533 1.8834 3.0816 2.642 4.7777 0.9804 2.1806 3.6131 1.5759 4.7755 3.4865 1.0318 1.6961 -0.07 3.8411 0.7022 5.6158 0.5609 1.2881 1.8835 1.5696 2.7959 2.5113 0.9323 0.95 0.9123 2.2518 1.0546 3.4906 0.1607 1.4556 0.4212 2.8985 0.7797 4.3184 0 0.0104 0 0.0219 0.0083 0.0323C9.5394 40.2185 3.9099 32.7549 3.9099 23.9999Zm20.09 20.0902c-1.1218 -0.0004 -2.2418 -0.0942 -3.3482 -0.2804 0.0115 -0.2836 0.0167 -0.5484 0.0449 -0.7325 0.2543 -1.6637 1.0872 -3.2908 2.211 -4.536 1.1102 -1.2284 2.6316 -2.0592 3.5691 -3.453 0.9187 -1.3602 1.1939 -3.1913 0.8152 -4.7808 -0.5578 -2.348 -3.7481 -3.1317 -5.4683 -4.4051 -0.9889 -0.7324 -1.8689 -1.8646 -3.1674 -1.9567 -0.5985 -0.0419 -1.0997 0.0868 -1.693 -0.066 -0.5441 -0.1412 -0.9711 -0.4341 -1.5507 -0.3578 -1.0829 0.1423 -1.7662 1.2996 -2.9298 1.1427 -1.1039 -0.1476 -2.2413 -1.4398 -2.4924 -2.4914 -0.3223 -1.3519 0.7471 -1.7903 1.8928 -1.9107 0.4783 -0.0503 1.015 -0.1046 1.4743 0.0712 0.6048 0.2239 0.8905 0.8161 1.4336 1.1154 1.0181 0.5588 1.2243 -0.3338 1.0683 -1.2379 -0.2333 -1.354 -0.5053 -1.9054 0.7021 -2.8377 0.8371 -0.6425 1.5529 -1.107 1.4189 -2.2612 -0.0796 -0.6781 -0.451 -0.9845 -0.1047 -1.6595 0.2627 -0.5137 0.9837 -0.9772 1.4535 -1.2838 1.2126 -0.7912 5.1951 -0.7326 3.568 -2.9466 -0.4781 -0.6498 -1.3602 -1.8112 -2.1973 -1.9703 -1.0464 -0.1977 -1.5109 0.97 -2.2403 1.4848 -0.7534 0.5326 -2.2203 1.1374 -2.9747 0.3139 -1.015 -1.1081 0.6728 -1.4712 1.0462 -2.2455 0.1727 -0.361 0 -0.8622 -0.2908 -1.3341 0.3775 -0.159 0.7611 -0.3066 1.151 -0.4426 0.2445 0.1805 0.5342 0.2892 0.837 0.3139 0.7001 0.0461 1.3604 -0.3327 1.9715 0.1444 0.678 0.5232 1.1666 1.1845 2.0665 1.3477 0.8706 0.158 1.7924 -0.3495 2.0079 -1.2409 0.1308 -0.5421 0 -1.1144 -0.1256 -1.6742 3.9135 0.0225 7.734 1.1945 10.9869 3.3703 -0.2093 -0.0795 -0.4594 -0.0701 -0.7681 0.0732 -0.6351 0.2951 -1.5349 1.0464 -1.6093 1.7914 -0.0847 0.8455 1.1625 0.9647 1.7548 0.9647 0.8893 0 1.7903 -0.3976 1.5035 -1.4251 -0.1244 -0.4458 -0.2939 -0.9093 -0.5671 -1.1897 0.6565 0.4556 1.2855 0.9495 1.8835 1.4796 -0.0094 0.0093 -0.0189 0.0177 -0.0282 0.0282 -0.6027 0.6278 -1.3028 1.1248 -1.7151 1.8886 -0.2908 0.5379 -0.6183 0.7932 -1.2074 0.9323 -0.3244 0.0764 -0.6948 0.1047 -0.9669 0.3223 -0.7575 0.5965 -0.3265 2.0299 0.3914 2.46 0.9072 0.5431 2.2528 0.2877 2.9371 -0.4875 0.5346 -0.607 0.8496 -1.6606 1.8113 -1.6596 0.4233 -0.0008 0.83 0.1648 1.1321 0.4614 0.3976 0.4123 0.3192 0.7974 0.4039 1.3121 0.1497 0.9146 0.9564 0.4186 1.4472 -0.0428 0.3577 0.6366 0.6805 1.2922 0.9668 1.964 -0.54 0.7774 -0.969 1.625 -2.2675 0.7188 -0.7775 -0.543 -1.2556 -1.331 -2.2319 -1.5758 -0.8528 -0.2092 -1.7265 0.0084 -2.5688 0.1538 -0.9574 0.1663 -2.0927 0.2397 -2.8189 0.9647 -0.7021 0.699 -1.0736 1.6345 -1.8207 2.3365 -1.4449 1.3604 -2.055 2.8452 -1.1196 4.7684 0.8999 1.8488 2.7823 2.8523 4.8133 2.7204 1.9954 -0.1328 4.0682 -1.2901 4.0107 1.6094 -0.021 1.0265 0.1936 1.7369 0.5085 2.6902 0.2919 0.8789 0.272 1.7306 0.339 2.6378 0.0637 1.0624 0.2298 2.1161 0.496 3.1464 -1.8755 2.4148 -4.278 4.369 -7.0243 5.7134C30.0746 43.391 27.0576 44.09 24 44.0901Z" stroke-width="1"></path>
</svg>