<svg width="213" height="11" viewBox="0 0 213 11" fill="none" xmlns="http://www.w3.org/2000/svg">
<path d="M32.9057 6.71771L33.8493 7.33882C33.543 7.7842 32.8105 8.54836 31.5441 8.54836C29.9714 8.54836 28.8003 7.34702 28.8003 5.81875C28.8003 4.19249 29.9839 3.0892 31.4117 3.0892C32.8477 3.0892 33.5513 4.21695 33.779 4.82579L33.9031 5.13638L30.2032 6.64825C30.4846 7.19582 30.9234 7.47368 31.5441 7.47368C32.1649 7.47368 32.5953 7.17129 32.9057 6.71771ZM30.0046 5.73302L32.4753 4.7196C32.3387 4.38048 31.9332 4.13942 31.4489 4.13942C30.8323 4.13942 29.9756 4.6788 30.0046 5.73302Z" fill="#FF302F"/>
<path d="M27.0165 0.306549H28.2083V8.29913H27.0165V0.306549Z" fill="#20B15A"/>
<path d="M25.1376 3.30167H26.2881V8.15606C26.2881 10.1705 25.0838 11 23.6601 11C22.3192 11 21.5122 10.1092 21.2101 9.386L22.2654 8.95282C22.4557 9.3982 22.9151 9.92538 23.6601 9.92538C24.5747 9.92538 25.1376 9.36554 25.1376 8.31952V7.92727H25.0962C24.823 8.25412 24.3016 8.54831 23.6394 8.54831C22.2571 8.54831 20.9907 7.35923 20.9907 5.82696C20.9907 4.28643 22.2571 3.08514 23.6394 3.08514C24.2975 3.08514 24.823 3.37526 25.0962 3.69398H25.1376V3.30167ZM25.2203 5.82696C25.2203 4.8626 24.5706 4.15976 23.7429 4.15976C22.9068 4.15976 22.2033 4.8626 22.2033 5.82696C22.2033 6.77898 22.9068 7.46955 23.7429 7.46955C24.5706 7.47369 25.2204 6.77898 25.2204 5.82696" fill="#3686F7"/>
<path d="M14.4477 5.80649C14.4477 7.37969 13.2062 8.53604 11.6832 8.53604C10.1602 8.53604 8.91861 7.37562 8.91861 5.80649C8.91861 4.22516 10.1602 3.07288 11.6832 3.07288C13.2062 3.07288 14.4477 4.22516 14.4477 5.80649ZM13.2393 5.80649C13.2393 4.82587 12.5191 4.15156 11.6832 4.15156C10.8472 4.15156 10.1271 4.82587 10.1271 5.80649C10.1271 6.77898 10.8472 7.46142 11.6832 7.46142C12.5192 7.46142 13.2393 6.77898 13.2393 5.80649Z" fill="#FF302F"/>
<path d="M20.4859 5.81875C20.4859 7.39195 19.2443 8.5483 17.7213 8.5483C16.1983 8.5483 14.9568 7.39188 14.9568 5.81875C14.9568 4.23742 16.1983 3.0892 17.7213 3.0892C19.2443 3.0892 20.4859 4.23335 20.4859 5.81875ZM19.2733 5.81875C19.2733 4.83813 18.5532 4.16382 17.7172 4.16382C16.8811 4.16382 16.1611 4.83813 16.1611 5.81875C16.1611 6.79124 16.8812 7.47368 17.7172 7.47368C18.5573 7.47368 19.2733 6.78718 19.2733 5.81875Z" fill="#FFBA40"/>
<path d="M4.37446 7.35108C2.64038 7.35108 1.28299 5.96994 1.28299 4.25781C1.28299 2.54575 2.64038 1.16462 4.37446 1.16462C5.3098 1.16462 5.99262 1.52827 6.49752 1.99411L7.32942 1.17281C6.62587 0.506777 5.68642 0 4.37446 0C1.99896 6.55936e-05 0 1.91245 0 4.25781C0 6.60318 1.99896 8.51563 4.37446 8.51563C5.65745 8.51563 6.62587 8.09885 7.38323 7.32248C8.16125 6.55425 8.40128 5.47549 8.40128 4.60107C8.40128 4.32728 8.36819 4.04536 8.33092 3.83697H4.37446V4.97292H7.19283C7.11005 5.68395 6.88244 6.1702 6.54721 6.50112C6.14163 6.9057 5.5002 7.35108 4.37446 7.35108Z" fill="#3686F7"/>
</svg>
