<svg width="740" height="258" viewBox="0 0 740 258" fill="none" xmlns="http://www.w3.org/2000/svg">
<path d="M135.524 190.002L73.2104 153.514L9.52621 190.282L72.7224 226.769L135.524 190.002Z" stroke="#B6EF0F" stroke-width="11"/>
<path d="M180.599 200V58.1H215.429V118.73C222.309 116.437 228.329 113.212 233.489 109.055C238.792 104.755 243.307 99.8817 247.034 94.435C250.761 88.9883 253.842 83.1833 256.279 77.02C258.716 70.7133 260.579 64.4067 261.869 58.1H300.999C299.279 66.27 296.771 74.01 293.474 81.32C290.321 88.4867 286.307 95.08 281.434 101.1C276.561 107.12 270.899 112.495 264.449 117.225C257.999 121.812 250.689 125.61 242.519 128.62V130.34C251.262 129.623 258.501 130.197 264.234 132.06C269.967 133.78 274.626 136.36 278.209 139.8C281.792 143.24 284.587 147.182 286.594 151.625C288.744 155.925 290.536 160.297 291.969 164.74L303.364 200H264.664L256.494 168.395C255.204 163.235 253.341 159.078 250.904 155.925C248.611 152.628 245.601 150.263 241.874 148.83C238.147 147.397 233.417 146.68 227.684 146.68H215.429V200H180.599ZM341.06 203.01C335.326 203.01 329.88 202.007 324.72 200C319.56 197.993 315.331 194.768 312.035 190.325C308.738 185.738 307.09 179.647 307.09 172.05C307.09 165.027 308.451 159.365 311.175 155.065C313.898 150.622 317.553 147.11 322.14 144.53C326.726 141.807 331.743 139.8 337.19 138.51C342.636 137.077 348.011 135.858 353.315 134.855C360.768 133.422 366.358 132.275 370.085 131.415C373.811 130.555 376.32 129.552 377.61 128.405C379.043 127.258 379.76 125.682 379.76 123.675C379.76 119.518 378.183 116.365 375.03 114.215C372.02 112.065 368.006 110.99 362.99 110.99C359.836 110.99 356.683 111.563 353.53 112.71C350.376 113.857 347.796 115.935 345.79 118.945C343.783 121.812 342.851 125.968 342.995 131.415L312.035 129.265C311.748 120.235 313.11 112.782 316.12 106.905C319.13 100.885 323.215 96.2267 328.375 92.93C333.678 89.49 339.411 87.0533 345.575 85.62C351.881 84.1867 358.116 83.47 364.28 83.47C375.603 83.47 384.92 85.62 392.23 89.92C399.54 94.0767 404.915 100.168 408.355 108.195C411.938 116.078 413.73 125.682 413.73 137.005V157.215C413.73 161.945 413.73 166.747 413.73 171.62C413.73 176.35 413.73 181.08 413.73 185.81C413.73 190.54 413.73 195.27 413.73 200H383.63C383.63 194.84 383.63 189.608 383.63 184.305C383.63 179.002 383.63 173.412 383.63 167.535H382.34C381.766 173.985 379.616 179.933 375.89 185.38C372.306 190.683 367.505 194.983 361.485 198.28C355.608 201.433 348.8 203.01 341.06 203.01ZM355.465 177.64C357.901 177.64 360.481 177.21 363.205 176.35C366.071 175.347 368.723 173.77 371.16 171.62C373.74 169.47 375.818 166.532 377.395 162.805C378.971 158.935 379.76 154.205 379.76 148.615V143.455L385.565 142.81C384.418 144.673 382.483 146.178 379.76 147.325C377.18 148.472 374.241 149.403 370.945 150.12C367.648 150.693 364.28 151.338 360.84 152.055C357.543 152.628 354.461 153.488 351.595 154.635C348.728 155.638 346.363 157.072 344.5 158.935C342.78 160.655 341.92 163.092 341.92 166.245C341.92 169.972 343.21 172.838 345.79 174.845C348.513 176.708 351.738 177.64 355.465 177.64ZM427.913 200V138.295V86.48H458.013V131.63H459.733C460.593 119.59 462.241 110.13 464.678 103.25C467.258 96.2267 470.411 91.2817 474.138 88.415C478.008 85.405 482.308 83.9 487.038 83.9C489.618 83.9 492.27 84.2583 494.993 84.975C497.86 85.6917 500.655 86.8383 503.378 88.415L501.658 127.115C498.505 125.252 495.423 123.89 492.413 123.03C489.403 122.027 486.536 121.525 483.813 121.525C479.226 121.525 475.356 122.815 472.203 125.395C469.05 127.975 466.613 131.773 464.893 136.79C463.316 141.807 462.528 147.898 462.528 155.065V200H427.913ZM552.312 203.01C544.142 203.01 536.761 200.788 530.167 196.345C523.717 191.902 518.557 185.165 514.687 176.135C510.961 167.105 509.097 155.71 509.097 141.95C509.097 128.907 510.817 118.085 514.257 109.485C517.697 100.742 522.571 94.22 528.877 89.92C535.184 85.62 542.566 83.47 551.022 83.47C557.616 83.47 563.421 84.8317 568.437 87.555C573.597 90.2783 577.826 94.5783 581.122 100.455C584.419 106.332 586.712 114 588.002 123.46H589.937C589.221 118.587 588.504 113.785 587.787 109.055C587.071 104.325 586.497 99.7383 586.067 95.295C585.781 90.8517 585.637 86.695 585.637 82.825V49.5H620.467V160.01V200H590.152V164.955H588.647C587.071 173.268 584.634 180.292 581.337 186.025C578.184 191.615 574.171 195.843 569.297 198.71C564.567 201.577 558.906 203.01 552.312 203.01ZM564.567 175.275C567.291 175.275 569.942 174.702 572.522 173.555C575.102 172.265 577.396 170.33 579.402 167.75C581.409 165.17 582.986 161.945 584.132 158.075C585.422 154.205 586.067 149.618 586.067 144.315V142.81C586.067 138.51 585.637 134.712 584.777 131.415C583.917 127.975 582.771 125.108 581.337 122.815C579.904 120.378 578.256 118.443 576.392 117.01C574.529 115.433 572.522 114.287 570.372 113.57C568.366 112.853 566.359 112.495 564.352 112.495C559.909 112.495 556.182 114 553.172 117.01C550.162 120.02 547.941 123.962 546.507 128.835C545.074 133.565 544.357 138.725 544.357 144.315C544.357 149.905 545.146 155.065 546.722 159.795C548.299 164.525 550.592 168.323 553.602 171.19C556.612 173.913 560.267 175.275 564.567 175.275ZM685.649 203.01C678.052 203.01 670.957 202.222 664.364 200.645C657.914 199.212 652.252 196.847 647.379 193.55C642.649 190.253 638.994 185.882 636.414 180.435C633.977 174.845 632.974 168.108 633.404 160.225L663.719 157.645C664.006 162.375 665.081 166.317 666.944 169.47C668.807 172.48 671.387 174.702 674.684 176.135C677.981 177.568 681.994 178.285 686.724 178.285C691.167 178.285 694.966 177.568 698.119 176.135C701.416 174.558 703.064 171.978 703.064 168.395C703.064 166.532 702.491 165.027 701.344 163.88C700.197 162.59 698.047 161.443 694.894 160.44C691.884 159.293 687.441 158.003 681.564 156.57C674.254 154.707 667.661 152.843 661.784 150.98C655.907 149.117 650.891 146.895 646.734 144.315C642.577 141.735 639.424 138.582 637.274 134.855C635.124 130.985 634.049 126.255 634.049 120.665C634.049 112.782 636.127 106.117 640.284 100.67C644.584 95.08 650.461 90.8517 657.914 87.985C665.367 84.975 673.967 83.47 683.714 83.47C692.457 83.47 700.627 84.8317 708.224 87.555C715.821 90.2783 721.769 94.7217 726.069 100.885C730.512 107.048 732.161 115.218 731.014 125.395L701.344 128.19C701.774 124.033 701.201 120.522 699.624 117.655C698.047 114.645 695.754 112.423 692.744 110.99C689.734 109.413 686.079 108.625 681.779 108.625C676.906 108.625 673.107 109.557 670.384 111.42C667.804 113.14 666.514 115.362 666.514 118.085C666.514 120.235 667.302 122.098 668.879 123.675C670.599 125.108 673.179 126.398 676.619 127.545C680.202 128.548 684.789 129.695 690.379 130.985C695.252 131.988 700.341 133.278 705.644 134.855C710.947 136.432 715.892 138.582 720.479 141.305C725.066 143.885 728.792 147.325 731.659 151.625C734.526 155.925 735.959 161.372 735.959 167.965C735.959 174.988 734.024 181.152 730.154 186.455C726.284 191.758 720.622 195.843 713.169 198.71C705.716 201.577 696.542 203.01 685.649 203.01Z" fill="black"/>
<path d="M144.999 145.5V190H134.702V194.414L144.999 200.387L70 156.887V102L144.999 145.5ZM79.5156 151.405L135.483 183.867V150.98L79.5156 118.519V151.405Z" fill="#B6EF0F"/>
<path d="M79.7061 107.674V152.352H69.4512V156.784L79.7061 162.779V162.78L5 119.106V64L79.7061 107.674ZM14.4961 113.658L70.209 146.229V113.122L14.4961 80.5518V113.658Z" fill="#B6EF0F"/>
<path d="M149.918 75.332L77.541 117.29L5 74.915V64H4.99707L69.0039 27.4775L149.918 75.332ZM14.5977 69.4893L77.5225 106.246L130.999 75.2461L68.8887 38.5117L14.5977 69.4893Z" fill="#B6EF0F"/>
</svg>
