<svg width="368" height="379" viewBox="0 0 368 379" fill="none" xmlns="http://www.w3.org/2000/svg">
<path fill-rule="evenodd" clip-rule="evenodd" d="M92.6124 2.18211C87.7454 4.59111 82.9345 11.1341 81.8745 16.7861C80.5015 24.1041 85.4744 33.4331 92.7174 37.1281C95.9634 38.7841 98.1494 39.1401 103.121 38.8241C110.661 38.3441 115.673 34.9761 119.241 27.9931C127.761 11.3161 109.641 -6.24689 92.6124 2.18211ZM108.259 2.56111C120.253 7.57211 123.599 21.3611 115.272 31.4621C109.863 38.0241 101.909 39.7481 93.8755 36.1001C82.7865 31.0641 79.9834 16.0271 88.5074 7.30811C94.4704 1.20911 101.17 -0.401893 108.259 2.56111ZM92.5975 11.5131C92.7625 12.6131 92.5615 14.7941 92.1515 16.3591C91.6885 18.1231 91.8484 19.7381 92.5704 20.6091C93.9894 22.3181 92.3724 22.4941 90.6914 20.8131C89.7584 19.8801 89.4914 20.0851 89.4914 21.7361C89.4914 24.8911 94.1294 29.8191 98.1404 30.9271C104.796 32.7641 108.63 29.5911 110.724 20.5131L112.108 14.5131L109.391 12.2631C106.034 9.48211 103.353 9.40311 100.991 12.0131C98.6784 14.5681 97.6725 14.5281 94.7085 11.7631C92.4085 9.61711 92.3105 9.60511 92.5975 11.5131ZM178.491 12.5031C171.868 14.6671 164.659 20.6781 161.09 27.0131C158.227 32.0951 157.991 33.2361 157.996 42.0131C158 50.3801 158.32 52.1201 160.682 56.6031C167.464 69.4801 182.611 75.7371 196.926 71.5751C210.63 67.5911 217.967 58.4951 219.161 44.0131C220.154 31.9721 213.247 19.9791 202.031 14.2671C195.79 11.0891 185.239 10.2981 178.491 12.5031ZM107.491 14.0131C107.491 14.5631 107.041 15.0131 106.491 15.0131C105.941 15.0131 105.491 14.5631 105.491 14.0131C105.491 13.4631 105.941 13.0131 106.491 13.0131C107.041 13.0131 107.491 13.4631 107.491 14.0131ZM125.491 20.0131C126.316 20.5461 129.016 20.9581 131.491 20.9271C134.916 20.8861 135.513 20.6671 133.991 20.0131C131.08 18.7621 123.555 18.7621 125.491 20.0131ZM145.991 22.0131C146.331 22.5631 149.17 22.9681 152.3 22.9131C156.658 22.8371 157.405 22.6261 155.491 22.0131C151.79 20.8281 145.258 20.8281 145.991 22.0131ZM195.962 23.3681C199 25.5901 197.236 28.2431 193.223 27.4901C188.906 26.6811 186.435 29.3271 185.739 35.5061L185.223 40.0791L189.232 39.4381C191.586 39.0621 193.499 39.2171 193.869 39.8151C195.135 41.8641 193.27 43.7931 189.429 44.4071L185.491 45.0371V53.0251C185.491 60.2851 185.313 61.0131 183.536 61.0131C180.852 61.0131 180.241 57.0241 180.654 42.2131C180.944 31.8521 181.287 29.7541 183.087 27.3321C186.777 22.3701 192.28 20.6761 195.962 23.3681ZM292.189 36.1091C277.708 39.5161 260.56 53.7891 254.383 67.5761C244.773 89.0271 249.33 112.92 266.241 129.738C278.509 141.938 294.041 147.927 310.289 146.72C336.493 144.774 358.957 124.082 362.652 98.4861C366.444 72.2241 347.628 44.5651 320.559 36.6091C314.617 34.8631 298.678 34.5811 292.189 36.1091ZM323.991 39.8391C332.207 42.8281 342.743 50.2301 348.045 56.7381C363.053 75.1621 364.919 101.213 352.551 119.663C350.394 122.88 346.864 127.227 344.707 129.323L340.784 133.132L340.235 122.365C339.858 114.977 340.13 109.466 341.101 104.805C342.717 97.0591 341.901 93.7961 337.062 88.6451C334.711 86.1421 333.876 85.8561 330.503 86.3951C325.802 87.1471 325.021 85.3611 327.727 80.0521C330.858 73.9081 329.555 68.2441 324.266 65.0141C322.459 63.9101 319.422 63.0661 317.491 63.1311C315.566 63.1961 311.741 62.9291 308.991 62.5391C304.685 61.9291 303.679 62.1261 301.741 63.9611C300.503 65.1321 299.491 67.1381 299.491 68.4171C299.491 69.6961 300.503 72.0291 301.741 73.6001C303.303 75.5841 304.144 78.3021 304.491 82.4851C304.809 86.3201 305.439 88.5131 306.222 88.5131C306.899 88.5131 308.126 89.4741 308.948 90.6491C309.771 91.8231 311.58 93.0691 312.968 93.4181C316.081 94.1991 316.107 95.6721 313.073 99.3811L310.727 102.249L308.562 99.8811C303.563 94.4141 302.002 93.0521 299.563 92.0271C298.148 91.4331 295.525 88.7111 293.733 85.9801C290.747 81.4261 290.15 81.0131 286.565 81.0131C279.78 81.0131 279.045 81.7401 281.962 85.5641C283.353 87.3881 284.491 89.7141 284.491 90.7351C284.491 91.7551 285.427 94.3731 286.572 96.5521C287.729 98.7551 288.779 102.897 288.939 105.885C289.155 109.923 290.38 113.536 293.87 120.428L298.514 129.599L296.839 136.556C295.918 140.382 295.087 143.627 294.992 143.766C294.582 144.364 282.788 139.791 278.969 137.553C260.487 126.722 250.442 108.567 251.835 88.5131C253.489 64.7061 269.213 44.8321 291.491 38.3901C298.558 36.3471 316.602 37.1511 323.991 39.8391ZM43.1254 43.5991C30.9944 46.5361 17.0554 56.2191 9.91145 66.6731C-9.21255 94.6601 0.223448 131.539 30.5944 147.498C49.7844 157.582 71.7964 156.303 89.1805 144.096C115.235 125.797 121.122 94.0651 103.381 67.5401C90.0404 47.5941 66.0324 38.0551 43.1254 43.5991ZM67.6924 45.1041C77.1494 47.0511 87.2964 52.7701 94.9914 60.4901C116.879 82.4501 116.754 116.505 94.7114 137.126C88.7014 142.748 74.4674 151.013 70.7944 151.013C69.8794 151.013 69.4914 149.35 69.4914 145.424V139.835L72.5685 142.424C76.8825 146.054 79.9934 145.751 84.4554 141.263C88.8144 136.879 92.0105 129.006 93.5975 118.74C94.6735 111.783 97.3594 104.831 99.4774 103.522C100.728 102.749 100.828 95.3391 99.5975 94.5791C99.1055 94.2751 99.5074 91.4381 100.491 88.2701C102.269 82.5411 102.268 82.5091 100.173 81.7171C99.0154 81.2791 96.0874 81.0541 93.6684 81.2171L89.2684 81.5131L85.8745 91.0131C84.0085 96.2381 82.2284 101.3 81.9184 102.263C81.4664 103.672 81.9554 104.013 84.4244 104.013C88.5374 104.013 88.4974 106.681 84.2894 113.175L81.0874 118.117L79.4704 112.315C76.4954 101.637 72.6084 96.1111 64.4914 91.0221L60.9914 88.8281L63.9914 89.4681C65.6414 89.8201 67.7885 90.3451 68.7625 90.6351C71.6715 91.4991 75.8624 81.1591 75.9344 72.9441C76.1094 52.8131 55.2434 40.0721 44.4884 53.7431C39.1594 60.5171 37.9794 70.0851 41.5134 77.8721C44.0304 83.4201 43.9974 84.0131 41.1694 84.0131C39.8924 84.0131 36.6304 84.7561 33.9194 85.6651C26.9264 88.0091 15.4064 99.8721 9.82445 110.477L5.65745 118.393L3.90145 112.453C0.461448 100.817 2.06745 85.6831 7.97645 74.0561C15.0794 60.0781 29.6384 48.8001 45.4034 45.0641C50.6244 43.8271 61.5844 43.8471 67.6924 45.1041ZM221.491 53.9401C221.491 54.3771 224.006 55.6981 227.08 56.8741C233.472 59.3201 233.491 59.3241 233.491 58.1051C233.491 57.6051 230.791 56.2851 227.491 55.1701C224.191 54.0561 221.491 53.5021 221.491 53.9401ZM147.741 56.9861C145.403 58.0471 143.491 59.3871 143.491 59.9641C143.491 61.3941 143.466 61.4021 149.581 58.0311C155.611 54.7081 154.345 53.9891 147.741 56.9861ZM239.991 61.7941C241.597 63.5221 251.36 67.0351 251.941 66.0941C252.232 65.6231 250.313 64.5311 247.676 63.6681C245.039 62.8061 242.006 61.7891 240.936 61.4091C239.573 60.9251 239.29 61.0411 239.991 61.7941ZM130.241 65.6711C128.179 66.5271 126.491 67.6351 126.491 68.1331C126.491 69.1101 133.372 66.5261 134.941 64.9611C136.311 63.5941 134.641 63.8461 130.241 65.6711ZM73.2625 66.8261C73.4975 67.5301 73.0554 67.7831 72.1784 67.4461C71.0324 67.0071 70.5364 68.0801 69.9824 72.1961C68.8124 80.8881 65.2605 85.0131 58.9445 85.0131C54.8205 85.0131 55.9614 88.6621 60.7414 90.7621C64.1564 92.2621 64.1955 93.3141 60.9295 95.8831C56.7745 99.1521 52.1704 100.273 47.7714 99.0881C43.9444 98.0581 38.7614 93.5211 36.6024 89.3121C35.5654 87.2901 35.7784 87.0271 39.2324 86.0681C41.3004 85.4941 43.7344 85.0221 44.6414 85.0191C47.1324 85.0101 49.1934 75.6941 47.4324 72.4031C46.3894 70.4541 46.3804 69.7291 47.3864 68.7431C48.3834 67.7661 49.0954 68.0781 50.8534 70.2631C53.8874 74.0331 56.8974 73.7701 64.5604 69.0631C71.0744 65.0621 72.5485 64.6831 73.2625 66.8261ZM115.241 73.0811C113.179 74.1701 111.491 75.5131 111.491 76.0671C111.491 76.6201 113.288 76.0471 115.483 74.7931C117.679 73.5391 119.479 72.1751 119.483 71.7631C119.493 70.8041 119.642 70.7571 115.241 73.0811ZM59.5704 74.5961C59.6184 75.7611 59.8554 75.9981 60.1744 75.2011C60.4634 74.4791 60.4274 73.6161 60.0954 73.2841C59.7634 72.9521 59.5274 73.5421 59.5704 74.5961ZM315.491 75.5131C315.491 76.4641 316.448 77.0131 318.108 77.0131C320.359 77.0131 320.658 77.3621 320.246 79.5131C319.957 81.0281 320.23 82.0131 320.939 82.0131C322.744 82.0131 325.223 84.2911 325.895 86.5671C326.373 88.1851 325.559 89.2851 322.063 91.7491C318.295 94.4051 317.444 94.6621 316.435 93.4461C315.781 92.6581 314.501 92.0131 313.591 92.0131C310.529 92.0131 306.79 86.4801 306.283 81.1981L305.811 76.2881L309.401 75.2771C314.617 73.8081 315.491 73.8421 315.491 75.5131ZM66.4914 76.5131C66.4914 77.3381 66.6684 78.0131 66.8844 78.0131C67.1004 78.0131 67.5364 77.3381 67.8534 76.5131C68.1694 75.6881 67.9924 75.0131 67.4604 75.0131C66.9274 75.0131 66.4914 75.6881 66.4914 76.5131ZM200.491 75.5421C200.491 76.1181 206.49 88.2531 207.11 88.9301C207.319 89.1591 207.768 89.0701 208.106 88.7311C208.444 88.3931 207.072 85.1681 205.057 81.5651C201.757 75.6641 200.491 73.9941 200.491 75.5421ZM63.2014 78.0131C62.9144 79.1131 63.0864 80.0131 63.5854 80.0131C64.0834 80.0131 64.4914 79.1131 64.4914 78.0131C64.4914 76.9131 64.3184 76.0131 64.1084 76.0131C63.8974 76.0131 63.4894 76.9131 63.2014 78.0131ZM307.491 77.4061C307.491 77.6221 308.166 78.0581 308.991 78.3751C309.816 78.6911 310.491 78.5141 310.491 77.9821C310.491 77.4491 309.816 77.0131 308.991 77.0131C308.166 77.0131 307.491 77.1901 307.491 77.4061ZM55.4914 80.0361C55.4914 80.6081 56.1854 81.3421 57.0344 81.6681C59.3804 82.5681 59.6554 81.5961 57.4464 80.2171C56.2084 79.4441 55.4914 79.3781 55.4914 80.0361ZM308.055 80.3061C308.431 81.2921 308.99 81.8471 309.298 81.5391C309.606 81.2321 309.299 80.4251 308.615 79.7461C307.627 78.7661 307.513 78.8811 308.055 80.3061ZM100.31 83.5491C100.486 83.6971 100.091 85.6171 99.4324 87.8161C98.4814 90.9881 97.6524 91.9311 95.4174 92.3781C93.8674 92.6881 92.0724 93.9281 91.4274 95.1331C90.4234 97.0091 90.5804 97.5721 92.5164 99.0321C93.7724 99.9791 94.4664 101.244 94.0764 101.876C93.3394 103.068 83.4914 103.504 83.4914 102.344C83.4914 101.975 85.0945 97.3091 87.0545 91.9741L90.6184 82.2731L95.3045 82.7761C97.8825 83.0531 100.135 83.4001 100.31 83.5491ZM293.911 88.7631C297.633 94.4871 298.048 95.6071 296.645 96.1301C295.722 96.4751 294.638 96.1441 294.191 95.3801C293.751 94.6281 292.851 94.0151 292.191 94.0171C291.531 94.0191 288.87 91.6561 286.278 88.7671C282.295 84.3261 281.831 83.4081 283.278 82.8331C287.861 81.0151 289.45 81.9011 293.911 88.7631ZM313.483 87.0271C312.655 88.5751 312.705 88.9801 313.698 88.7771C315.951 88.3171 317.556 85.0131 315.526 85.0131C314.996 85.0131 314.076 85.9191 313.483 87.0271ZM334.467 88.0001C339.243 90.5561 342.329 101.622 339.491 106.013C338.629 107.346 338.521 107.346 338.519 106.013C338.514 103.571 333.084 92.0691 331.923 92.0401C329.799 91.9861 320.52 95.1011 320.725 95.7981C320.841 96.1911 319.745 98.5381 318.29 101.013C316.835 103.488 314.966 108.144 314.137 111.36C313.308 114.576 312.41 117.428 312.14 117.697C311.871 117.966 310.879 117.008 309.935 115.567C308.28 113.043 308.316 112.72 310.91 106.614C313.859 99.6781 316.026 97.2781 324.907 91.1171C331.329 86.6621 331.725 86.5331 334.467 88.0001ZM32.9624 90.9211C33.9934 94.1691 42.0814 100.825 46.4154 101.993C51.9494 103.483 56.6734 102.428 62.7314 98.3511L67.7915 94.9461L70.2384 97.2301C73.3334 100.117 76.7754 106.744 75.9084 108.147C74.3514 110.667 62.9094 117 57.8814 118.125C47.4494 120.46 33.8024 116.07 24.3284 107.333C19.8944 103.243 19.4494 103.011 21.3914 105.8C29.0734 116.832 50.4164 123.073 63.4804 118.109L68.4914 116.205V121.986V127.767L63.2414 130.049C56.0674 133.169 42.5064 133.202 34.4914 130.119C25.6294 126.711 25.7044 126.813 28.2534 121.565C30.6914 116.548 30.4674 115.225 27.9914 120.013C27.1384 121.663 25.8654 123.013 25.1624 123.013C22.8294 123.013 15.8864 117.162 13.9474 113.562C12.0614 110.059 12.0624 109.966 14.0144 106.336C15.1014 104.314 17.7914 100.673 19.9914 98.2461L23.9914 93.8341L28.0954 97.7451C35.0124 104.336 40.5484 106.449 50.9914 106.483C58.7674 106.509 60.7934 106.137 65.8934 103.749C69.1404 102.228 71.5984 100.787 71.3574 100.546C71.1164 100.305 68.4615 101.324 65.4575 102.81C60.8965 105.067 58.6764 105.513 51.9934 105.512C42.5074 105.511 35.1744 102.629 29.0334 96.4891L25.2494 92.7041L27.6204 90.8811C30.6744 88.5331 32.2074 88.5441 32.9624 90.9211ZM292.411 95.5631C293.299 95.0131 293.545 95.7021 293.312 98.0831C292.839 102.906 291.332 102.619 288.241 97.1151C284.69 90.7921 284.757 88.5621 288.367 92.9161C290.128 95.0391 291.648 96.0341 292.411 95.5631ZM98.2924 97.7151C98.5294 100.899 97.9294 102.746 95.4734 106.385C92.7914 110.358 92.0804 110.863 90.4224 109.976C88.2624 108.82 88.2534 108.797 89.0984 106.595C89.4324 105.725 90.7104 105.013 91.9374 105.013C93.3284 105.013 94.5854 104.101 95.2714 102.596C96.2084 100.54 96.0454 99.9351 94.1824 98.5521C92.0084 96.9371 92.0144 96.9291 94.9914 97.4291C96.6414 97.7071 97.3784 97.6721 96.6284 97.3521C95.4774 96.8611 95.4774 96.6241 96.6284 95.8261C97.5634 95.1781 97.2394 95.0951 95.5954 95.5611C93.4744 96.1621 93.3604 96.0601 94.5954 94.6671C96.7364 92.2551 97.9614 93.2651 98.2924 97.7151ZM303.107 95.6691C306.651 98.3731 307.417 101.886 304.659 102.795C303.75 103.095 303.433 102.489 303.659 100.884C303.855 99.4981 303.478 98.5301 302.741 98.5241C302.054 98.5181 301.604 98.2231 301.741 97.8681C301.878 97.5131 301.134 96.2761 300.086 95.1181C297.457 92.2131 298.928 92.4821 303.107 95.6691ZM334.984 100.505C337.806 106.157 337.997 107.302 338.342 120.65L338.708 134.802L334.182 137.454C325.213 142.71 318.827 144.384 307.491 144.451L296.991 144.513L297.309 141.513C297.483 139.863 298.067 136.809 298.607 134.726L299.588 130.94L303.702 134.462C315.042 144.168 329.32 137.043 334.463 119.111C335.002 117.231 334.986 116.013 334.421 116.013C333.91 116.013 333.491 116.825 333.491 117.817C333.491 121.229 328.308 130.014 324.24 133.496C318.756 138.19 314.809 138.829 308.919 135.978C301.515 132.394 292.527 119.217 290.726 109.304C289.831 104.38 289.891 104.151 292.394 103.001C294.88 101.858 295.36 102.195 303.639 110.91C308.396 115.917 312.51 120.013 312.781 120.013C313.053 120.013 314.043 116.882 314.98 113.056C317.091 104.445 322.059 95.8551 325.491 94.8841C330.505 93.4651 331.872 94.2751 334.984 100.505ZM299.098 98.4441C298.621 100.342 299.091 101.305 301.239 102.838C302.753 103.918 304.535 106.253 305.199 108.026C306.367 111.145 306.217 111.075 300.562 105.881C297.347 102.929 294.666 100.019 294.604 99.4161C294.542 98.8121 295.503 97.8301 296.741 97.2331C299.831 95.7431 299.782 95.7181 299.098 98.4441ZM301.991 101.013C302.331 101.563 302.159 102.013 301.609 102.013C301.059 102.013 300.331 101.563 299.991 101.013C299.651 100.463 299.823 100.013 300.373 100.013C300.923 100.013 301.651 100.463 301.991 101.013ZM215.442 107.733C217.019 111.428 218.789 114.612 219.376 114.808C219.963 115.004 219.037 111.98 217.318 108.088C215.6 104.197 213.829 101.013 213.384 101.013C212.939 101.013 213.865 104.037 215.442 107.733ZM309.957 102.958C310.278 103.478 309.916 105.391 309.152 107.208L307.762 110.513L306.479 107.793C305.443 105.593 305.44 104.779 306.466 103.543C307.918 101.793 309.113 101.593 309.957 102.958ZM75.3335 122.752C72.9455 125.228 71.8964 126.791 73.0024 126.226C74.1084 125.661 75.8664 124.257 76.9074 123.106C79.2174 120.554 80.4534 120.439 80.6074 122.763C80.7174 124.43 80.7455 124.43 81.1805 122.763C81.7985 120.398 82.7154 120.558 85.4914 123.513C86.7834 124.888 88.2995 126.013 88.8615 126.013C89.4235 126.013 88.4454 124.529 86.6874 122.715C83.5434 119.472 82.6334 116.661 84.3784 115.583C84.8654 115.282 85.8414 115.73 86.5454 116.579C87.2504 117.428 88.7644 118.606 89.9094 119.197C91.4874 120.012 91.2834 119.518 89.0644 117.153C85.7184 113.588 86.0344 112.392 89.8624 114.136C92.8994 115.52 92.9824 116.307 90.9804 124.794C89.3234 131.824 86.5024 137.929 83.9204 140.072C82.3834 141.348 82.2604 141.288 82.7544 139.505C84.2424 134.129 84.5064 131.61 83.9144 128.453C83.2364 124.838 81.4914 123.693 81.4914 126.863C81.4914 130.836 72.5764 140.423 70.6554 138.515C70.2904 138.152 69.7664 132.828 69.4914 126.684L68.9914 115.513L72.9914 112.428L76.9914 109.342L78.3335 113.796L79.6744 118.25L75.3335 122.752ZM157.932 110.481C156.865 111.289 155.001 111.964 153.791 111.981C152.581 111.999 151.231 112.62 150.791 113.362C149.734 115.145 145.348 116.16 143.537 115.041C141.758 113.942 138.491 115.535 138.491 117.501C138.491 118.281 136.691 120.365 134.491 122.133C132.292 123.901 130.718 125.573 130.994 125.849C131.27 126.125 130.765 127.158 129.872 128.145C128.979 129.131 128.518 130.64 128.847 131.498C129.186 132.381 128.586 133.918 127.468 135.036C126.381 136.123 125.491 137.765 125.491 138.684C125.491 139.603 124.742 141.184 123.826 142.196C122.363 143.812 122.307 144.732 123.369 149.774C124.034 152.931 124.85 156.863 125.184 158.513C125.902 162.068 132.22 168.229 134.441 167.54C135.293 167.275 136.651 167.473 137.457 167.979C138.4 168.57 139.433 168.476 140.348 167.717C141.877 166.448 147.491 165.812 147.491 166.908C147.491 167.271 146.814 168.535 145.986 169.717C145.158 170.899 144.274 174.669 144.022 178.096C143.55 184.503 144.638 187.806 148.741 192.422C149.704 193.504 150.491 194.725 150.491 195.134C150.491 195.543 151.391 196.164 152.491 196.513C154.345 197.101 154.491 198.026 154.491 209.148V221.147L151.082 224.363C149.207 226.131 143.244 229.767 137.832 232.443C129.593 236.516 126.593 238.708 119.4 245.91C114.243 251.075 109.37 257.11 107.205 261.013C102.565 269.38 96.9654 286.24 95.3314 296.763C94.5354 301.889 93.5874 305.013 92.8294 305.013C91.0954 305.013 90.7784 305.811 89.9884 312.163C89.3674 317.157 89.5034 317.882 91.1584 318.407C92.5174 318.839 93.3424 320.635 94.1624 324.951C96.7024 338.315 104.756 349.28 114.383 352.477L119.247 354.093L118.772 364.803C118.494 371.064 118.726 376.551 119.33 378.013C120.121 379.924 120.379 377.428 120.428 367.427L120.491 354.341L124.507 354.183C130.28 353.957 134.746 351.79 140.466 346.44C150.836 336.739 163.295 317.42 171.459 298.378C174.76 290.679 175.099 290.27 179.197 289.06C181.555 288.364 184.579 288.069 185.918 288.405C189.013 289.182 193.491 287.516 193.491 285.587C193.491 284.776 194.278 283.665 195.241 283.118C196.718 282.279 196.796 281.805 195.741 280.082C194.002 277.241 194.118 277.013 197.3 277.013C201.126 277.013 204.004 274.791 203.129 272.512C202.502 270.877 201.436 270.783 190.815 271.418C184.42 271.8 177.794 272.717 176.09 273.456C174.385 274.195 163.176 283.006 151.181 293.037L129.37 311.275L112.683 308.394L95.9964 305.513L96.3384 301.513C97.0374 293.326 102.412 274.976 106.568 266.59C114.108 251.374 124.634 240.639 138.951 233.565C142.905 231.611 146.444 230.013 146.816 230.013C147.187 230.013 147.491 231.16 147.491 232.563C147.491 236.398 149.762 240.058 155.436 245.365C165.208 254.505 175.278 256.466 181.556 250.451C183.157 248.917 184.728 246.84 185.047 245.837C185.583 244.148 185.866 244.197 188.897 246.509C190.697 247.882 193.618 249.51 195.389 250.127C198.227 251.117 198.895 250.982 201.009 248.996C204.286 245.918 205.116 239.633 203.138 232.886C202.284 229.971 201.695 227.475 201.83 227.34C202.321 226.849 213.557 230.113 218.14 232.077C225.89 235.399 236.072 242.735 241.955 249.236C245 252.601 247.491 255.727 247.491 256.183C247.491 256.64 246.253 257.02 244.741 257.028C240.537 257.052 239.714 258.012 236.616 266.51C233.602 274.777 233.298 274.757 231.965 266.196C231.595 263.821 231.057 262.113 230.77 262.401C230.483 262.688 230.77 266.491 231.407 270.853C232.394 277.604 232.334 279.364 231.003 282.691C229.192 287.218 218.491 321.017 218.491 322.211C218.491 322.652 223.389 323.013 229.374 323.013C239.684 323.013 240.287 323.127 240.822 325.172C241.133 326.36 241.889 337.272 242.503 349.422C243.982 378.713 245.362 385.094 245.237 362.057L245.141 344.601L248.066 343.836C253.222 342.488 258.518 337.121 262.122 329.589C264.484 324.655 266.18 322.35 267.725 321.974C269.469 321.55 270.587 319.577 272.966 312.727C274.63 307.939 276.519 304.019 277.164 304.017C277.81 304.015 279.783 302.797 281.55 301.31C287.562 296.251 289.29 287.57 285.296 282.493L283.102 279.703L286.809 269.108C288.847 263.281 290.51 258.176 290.503 257.763C290.497 257.35 281.266 257.013 269.991 257.013C258.716 257.013 249.491 256.628 249.491 256.158C249.491 255.687 246.726 252.285 243.347 248.597C233.428 237.772 219.947 229.746 206.991 226.952C203.691 226.24 199.423 224.837 197.506 223.835C195.589 222.833 193.451 222.013 192.756 222.013C191.99 222.013 191.502 220.731 191.518 218.763C191.54 216.065 192.221 215.096 195.524 213.058C197.712 211.708 200.738 208.822 202.247 206.644C204.543 203.33 205.041 201.446 205.299 195.099C205.468 190.926 205.215 183.242 204.736 178.021C203.951 169.459 204.043 168.382 205.672 167.021C207.312 165.651 207.351 165.15 206.094 161.561C205.333 159.387 203.862 156.912 202.826 156.061C201.789 155.21 201.092 153.758 201.276 152.835C201.715 150.631 190.01 142.714 187.493 143.512C186.461 143.84 185.499 143.477 185.178 142.639C184.498 140.868 185.431 137.013 186.54 137.013C188.196 137.013 188.574 132.953 187.167 130.275C186.369 128.756 185.231 126.288 184.638 124.791C183.979 123.129 182.572 121.863 181.025 121.541C179.631 121.25 177.322 120.768 175.894 120.469C173.725 120.016 173.397 119.526 173.905 117.5C174.373 115.636 173.944 114.701 172.052 113.461C170.697 112.573 168.785 112.002 167.802 112.192C166.818 112.381 165.221 111.743 164.252 110.774C162.106 108.628 160.482 108.553 157.932 110.481ZM13.7914 115.89C15.2024 118.022 18.0744 120.8 20.1744 122.063C22.2734 123.327 24.1524 124.48 24.3484 124.627C24.5454 124.774 23.2554 127.43 21.4824 130.529L18.2584 136.164L15.6084 133.625C14.1504 132.229 11.4734 128.636 9.65845 125.641L6.35745 120.195L8.44545 116.104C9.59245 113.854 10.6884 112.013 10.8784 112.013C11.0694 112.013 12.3804 113.758 13.7914 115.89ZM27.9774 128.577C31.3954 131.161 42.4304 134.013 49.0074 134.013C52.4754 134.013 58.1464 133.131 61.6094 132.053C65.0724 130.976 67.9964 130.188 68.1074 130.303C68.2184 130.419 68.0635 135.296 67.7635 141.141L67.2164 151.77L62.1044 152.361C55.6474 153.108 45.2614 151.647 38.1734 148.995C32.6764 146.938 21.2964 140.124 20.0844 138.163C19.4734 137.175 24.4174 127.022 25.4914 127.059C25.7664 127.069 26.8854 127.752 27.9774 128.577ZM226.491 130.219C226.491 132.532 230.447 141.013 231.525 141.013C232.043 141.013 231.331 138.448 229.945 135.313C227.115 128.913 226.491 127.993 226.491 130.219ZM82.0545 136.44C81.6995 138.807 80.8134 141.558 80.0844 142.555C78.9114 144.159 78.4005 144.218 75.6255 143.069C71.7575 141.466 71.7354 140.948 75.4224 138.222C77.0344 137.03 79.1664 134.679 80.1604 132.997C82.3024 129.37 82.9405 130.53 82.0545 136.44ZM265.491 137.803C262.386 142.411 262.114 143.016 263.158 143.001C264.276 142.984 268.689 136.098 268.299 134.978C268.13 134.492 266.866 135.763 265.491 137.803ZM174.306 138.057C179.417 139.236 183.939 141.965 182.751 143.153C182.287 143.617 180.465 143.452 178.703 142.787C175.973 141.757 175.044 141.846 172.429 143.39C170.741 144.388 168.244 145.326 166.881 145.476C165.518 145.625 163.381 146.707 162.132 147.88C160.884 149.053 159.346 150.013 158.716 150.013C158.085 150.013 156.097 152.263 154.296 155.013C150.681 160.536 149.927 160.962 148.991 158.013C146.8 151.111 159.642 137.698 168.991 137.123C169.541 137.09 171.933 137.51 174.306 138.057ZM28.4914 140.039C29.3164 140.586 33.0764 141.987 36.8464 143.153C44.6674 145.57 52.2034 145.349 59.2824 142.493C64.8994 140.228 64.1954 139.696 58.0354 141.55C51.2834 143.582 41.1364 143.351 34.4914 141.013C28.4184 138.877 26.1954 138.516 28.4914 140.039ZM239.991 141.582C232.112 145.672 227.884 153.344 228.719 162.034C229.591 171.113 238.366 178.964 247.676 178.997C253.863 179.018 257.21 177.653 261.725 173.266C274.272 161.076 265.827 139.999 248.403 140.019C245.426 140.023 241.641 140.726 239.991 141.582ZM255.237 142.551C259.987 144.536 262.258 146.64 264.597 151.223C272.102 165.926 256.831 182.778 241.723 176.465C234.074 173.27 230.205 167.476 230.205 159.22C230.205 146.545 243.541 137.664 255.237 142.551ZM332.001 155.013C333.042 161.561 334.756 163.745 333.963 157.513C333.613 154.763 332.867 152.063 332.306 151.513C331.613 150.834 331.515 151.957 332.001 155.013ZM241.976 153.037C240.752 155.017 244.3 170.013 245.992 170.013C247.512 170.013 259.491 161.204 259.491 160.086C259.491 159.379 244.677 152.013 243.256 152.013C242.9 152.013 242.324 152.474 241.976 153.037ZM293.587 162.263C290.168 174.108 290.051 174.672 291.269 173.513C292.568 172.277 297.616 154.013 296.66 154.013C296.279 154.013 294.897 157.726 293.587 162.263ZM45.1774 159.763C43.4904 167.758 43.3784 169.013 44.3504 169.013C45.4974 169.013 46.9024 161.245 46.2734 158.38C45.9854 157.071 45.6574 157.484 45.1774 159.763ZM196.293 162.411C202.214 165.473 202.502 166.391 203.177 184.342L203.801 200.946L201.186 204.898C198.235 209.357 193.443 213.25 188.991 214.806C187.286 215.402 186.746 215.889 187.741 215.934C188.952 215.989 189.491 216.837 189.491 218.69C189.491 220.479 190.553 222.254 192.693 224.041C195.289 226.208 195.876 227.41 195.792 230.389C195.672 234.621 193.584 238.251 189.869 240.685C184.493 244.208 168.582 241.637 160.202 235.892C153.512 231.305 151.978 227.252 155.119 222.459C156.452 220.424 156.665 217.994 156.295 209.024L155.844 198.073L159.167 196.496C160.995 195.629 162.491 194.407 162.491 193.781C162.491 193.154 163.469 191.601 164.664 190.329C166.724 188.136 166.935 188.105 168.722 189.722C170.121 190.988 171.03 191.163 172.24 190.4C174.458 189 175.107 186.839 173.075 187.619C172.066 188.006 171.491 187.685 171.491 186.734C171.491 185.913 170.819 183.953 169.997 182.377C169.176 180.802 168.501 177.331 168.497 174.664C168.492 170.553 168.951 169.386 171.517 166.989C177.22 161.662 190.205 159.262 196.293 162.411ZM91.9914 168.675C84.8454 172.442 80.5525 179.182 80.5135 186.698C80.4855 192.008 81.9055 195.758 85.3055 199.355C94.3335 208.904 109.151 208.02 116.358 197.502C121.281 190.317 121.336 183.314 116.53 175.735C111.62 167.994 99.7574 164.581 91.9914 168.675ZM107.237 169.551C111.987 171.536 114.258 173.64 116.597 178.223C122.196 189.194 114.57 203.626 102.565 204.78C96.0054 205.41 91.3054 203.657 87.1115 199.014C78.5135 189.498 81.1524 175.855 92.6954 170.141C97.7814 167.623 102.194 167.444 107.237 169.551ZM196.63 172.927C197.929 173.98 199.168 174.665 199.384 174.451C200.115 173.725 197.255 171.013 195.758 171.013C194.744 171.013 195.022 171.623 196.63 172.927ZM179.741 172.675C179.054 172.953 178.491 173.887 178.491 174.751C178.491 176.162 178.67 176.167 180.241 174.798C181.204 173.96 182.666 173.026 183.491 172.722C184.538 172.338 184.387 172.171 182.991 172.171C181.891 172.171 180.429 172.398 179.741 172.675ZM99.5285 176.763C99.5485 178.275 100.146 182.518 100.858 186.191C102.317 193.727 101.633 196.013 97.9204 196.013C96.2234 196.013 95.0744 195.191 94.2544 193.391C93.1784 191.031 93.3304 190.553 95.7754 188.604C98.7264 186.25 99.3464 184.013 97.0474 184.013C94.1224 184.013 90.1584 188.557 90.1584 191.91C90.1584 198.5 98.5454 201.976 103.557 197.463C105.493 195.72 105.66 194.829 105.128 189.084C104.671 184.147 104.806 182.928 105.712 183.834C107.144 185.266 110.491 185.398 110.491 184.021C110.491 183.476 109.565 182.464 108.434 181.771C107.303 181.079 105.466 179.05 104.353 177.263C101.84 173.229 99.4775 172.985 99.5285 176.763ZM336.79 177.013C337.097 178.388 337.657 181.656 338.035 184.275C338.676 188.719 340.491 191.95 340.491 188.648C340.491 185.828 338.152 176.509 337.194 175.513C336.573 174.867 336.43 175.398 336.79 177.013ZM181.491 178.954C181.491 180.636 181.941 182.013 182.491 182.013C183.041 182.013 183.491 180.915 183.491 179.572C183.491 178.229 183.041 176.853 182.491 176.513C181.908 176.152 181.491 177.169 181.491 178.954ZM197.091 176.851C196.073 178.498 197.441 182.463 198.621 181.283C199.169 180.735 199.195 179.388 198.686 178.012C198.115 176.467 197.572 176.072 197.091 176.851ZM43.1954 179.342C41.9534 182.578 41.3034 190.013 42.2624 190.013C42.8114 190.013 43.5754 187.5 43.9584 184.429C44.6414 178.963 44.2764 176.526 43.1954 179.342ZM247.606 188.013C247.56 190.488 247.958 193.188 248.491 194.013C249.702 195.886 249.702 189.793 248.491 186.013C247.827 183.94 247.676 184.282 247.606 188.013ZM191.822 188.291C192.786 189.819 193.304 191.507 192.974 192.041C192.643 192.576 192.85 193.013 193.432 193.013C195.307 193.013 194.56 189.382 192.28 187.418L190.069 185.513L191.822 188.291ZM284.786 192.51C283.624 196.084 283.062 199.248 283.536 199.541C284.359 200.05 285.725 196.091 287.102 189.209C288.146 183.99 287.047 185.556 284.786 192.51ZM74.9914 199.217C72.7914 200.381 71.4964 201.504 72.1144 201.714C73.1594 202.069 80.4914 198.305 80.4914 197.414C80.4914 196.623 78.9274 197.135 74.9914 199.217ZM33.6594 200.103C23.0874 205.472 20.0304 220.862 27.7824 229.691C37.5934 240.866 54.5094 238.712 60.6014 225.513C64.3764 217.333 61.7834 207.646 54.2044 201.616C49.0274 197.498 40.0864 196.839 33.6594 200.103ZM178.491 198.884C178.491 201.729 186.551 204.343 188.016 201.973C188.426 201.309 187.799 201.149 186.282 201.529C184.683 201.931 183.018 201.429 181.198 199.997C179.709 198.826 178.491 198.325 178.491 198.884ZM121.491 199.917C121.491 200.879 129.693 207.013 130.98 207.013C132.309 207.013 130.21 204.916 125.94 201.978C123.493 200.294 121.491 199.367 121.491 199.917ZM63.9914 205.013C60.0724 207.608 62.4614 207.611 66.7174 205.017C68.5184 203.919 69.3164 203.022 68.4914 203.023C67.6664 203.025 65.6414 203.92 63.9914 205.013ZM55.4914 206.733C56.2354 207.398 55.9654 223.085 55.1544 226.263L54.4534 229.013H43.0974H31.7414L31.1164 225.888C30.7724 224.169 30.4914 219.019 30.4914 214.443V206.123L35.2414 205.796C40.7124 205.421 54.7494 206.07 55.4914 206.733ZM343.114 212.513C343.447 215.813 344.17 218.963 344.722 219.513C345.392 220.181 345.493 218.894 345.027 215.631C343.928 207.946 342.404 205.46 343.114 212.513ZM46.6714 210.263C46.8814 211.74 47.6784 212.513 48.9914 212.513C50.3044 212.513 51.1014 211.74 51.3114 210.263C51.5734 208.417 51.1564 208.013 48.9914 208.013C46.8264 208.013 46.4094 208.417 46.6714 210.263ZM139.491 212.77C139.491 213.738 148.579 219.259 149.181 218.657C149.632 218.205 141.133 212.013 140.061 212.013C139.747 212.013 139.491 212.354 139.491 212.77ZM250.535 215.013C250.512 218.462 251.551 222.013 252.583 222.013C253.535 222.013 252.688 216.364 251.384 214.013C250.762 212.891 250.548 213.143 250.535 215.013ZM276.521 215.433C275.319 218.596 273.963 226.741 274.76 226.013C275.573 225.27 278.48 213.668 277.978 213.167C277.741 212.93 277.085 213.949 276.521 215.433ZM35.6434 215.724C32.3854 216.143 32.3124 216.253 32.9464 219.834C34.2754 227.341 33.8134 227.013 43.0834 227.013C51.3464 227.013 51.5644 226.951 52.5654 224.319C53.1284 222.838 53.4545 220.25 53.2905 218.569L52.9914 215.513L45.9914 215.404C42.1414 215.343 37.4844 215.488 35.6434 215.724ZM46.8534 219.513C47.7854 221.943 46.4504 224.013 43.9514 224.013C41.5744 224.013 39.7734 220.983 40.9854 219.022C41.9454 217.47 46.2054 217.827 46.8534 219.513ZM346.81 235.858C347.429 238.953 347.369 239.013 343.662 239.013C338.611 239.013 330.055 243.407 326.802 247.672C318.657 258.351 321.682 273.926 333.219 280.708C342.275 286.031 355.199 283.903 361.857 275.99C365.334 271.857 367.803 263.227 366.911 258.317C365.382 249.895 361.12 244.506 353.229 241.015C349.481 239.357 348.491 238.419 348.491 236.525C348.491 235.208 347.971 233.81 347.335 233.417C346.508 232.906 346.359 233.602 346.81 235.858ZM253.521 243.138C253.475 247.134 254.633 252.013 255.628 252.013C256.627 252.013 255.673 244.32 254.388 242.013C253.769 240.902 253.544 241.194 253.521 243.138ZM266.605 245.763C264.761 250.253 263.581 255.013 264.311 255.013C264.686 255.013 265.938 252.313 267.094 249.013C269.174 243.074 268.781 240.461 266.605 245.763ZM343.991 252.013C343.991 255.124 344.324 255.569 346.991 256.013C349.158 256.374 349.991 257.069 349.991 258.513C349.991 260.038 349.22 260.587 346.741 260.826C343.709 261.119 343.491 261.39 343.491 264.885C343.491 266.945 344.166 269.504 344.992 270.572C346.465 272.478 346.528 272.471 348.465 270.185C350.499 267.785 353.509 267.563 354.24 269.758C354.468 270.443 353.256 272.401 351.548 274.11C349.046 276.612 347.91 277.092 345.716 276.572C341.375 275.545 339.491 272.5 339.491 266.509C339.491 262.736 339.062 261.062 337.991 260.651C337.166 260.335 336.491 259.373 336.491 258.513C336.491 257.653 337.166 256.691 337.991 256.375C338.975 255.997 339.491 254.436 339.491 251.836C339.491 248.299 339.732 247.908 341.741 248.193C343.585 248.455 343.991 249.145 343.991 252.013ZM187.849 251.013C188.135 252.388 188.679 256.326 189.059 259.763C189.439 263.201 190.172 266.013 190.688 266.013C191.204 266.013 191.407 265.225 191.14 264.263C190.873 263.301 190.374 260.034 190.031 257.004C189.688 253.975 188.94 250.825 188.368 250.004C187.564 248.849 187.446 249.077 187.849 251.013ZM279.991 261.934C281.157 262.389 274.69 263.016 264.491 263.437C252.166 263.945 246.589 264.549 245.632 265.48C244.885 266.207 240.063 278.212 234.917 292.158C229.772 306.103 225.546 316.775 225.526 315.874C225.474 313.448 240.308 271.161 242.827 266.556C244.111 264.208 246.008 262.317 247.491 261.906C250.937 260.95 277.528 260.973 279.991 261.934ZM312.23 267.972C308.035 268.786 306.118 270.019 309.074 270.002C312.93 269.98 318.491 268.728 318.491 267.882C318.491 266.91 317.647 266.922 312.23 267.972ZM266.991 271.499C266.991 273.705 263.882 274.804 262.252 273.174C260.571 271.493 262.229 268.837 264.737 269.193C266.212 269.402 266.991 270.2 266.991 271.499ZM295.143 271.13C292.477 271.54 290.002 272.192 289.643 272.58C288.956 273.322 299.641 272.197 300.39 271.448C301.328 270.509 299.787 270.415 295.143 271.13ZM200.941 273.94C200.419 274.449 196.616 275.521 192.491 276.321C188.121 277.168 186.267 277.824 188.05 277.894C191.422 278.025 195.419 280.418 194.239 281.599C193.826 282.011 191.802 281.855 189.74 281.252C186.814 280.396 186.394 280.415 187.828 281.334C192.119 284.088 192.76 284.769 192.085 285.861C191.693 286.495 189.487 286.968 187.182 286.913C183.603 286.828 183.356 286.697 185.491 286.013L187.991 285.212L185.432 285.113C184.025 285.058 182 285.674 180.932 286.481C178.532 288.296 175.318 288.42 173.579 286.763C172.508 285.743 172.392 285.928 172.947 287.765C173.701 290.263 162.924 313.709 156.043 324.54C150.485 333.288 141.707 343.756 136.769 347.527C121.145 359.456 101.427 348.986 96.0424 325.9L94.6074 319.749L100.799 320.422C104.205 320.792 109.88 321.453 113.411 321.89L119.832 322.686L127.911 315.218C137.058 306.764 169.897 279.104 173.906 276.477C175.355 275.527 177.992 274.405 179.766 273.984C184.509 272.857 202.089 272.82 200.941 273.94ZM283.675 282.68C285.943 284.732 286.116 291.903 283.997 296.002C282.599 298.706 278.935 302.013 277.338 302.013C276.329 302.013 278.246 295.783 279.492 295.013C280.08 294.649 279.462 293.8 278.063 293.052C275.662 291.766 273.972 289.199 274.91 288.261C275.166 288.005 276.639 288.67 278.183 289.74C283.311 293.293 284.04 293.257 279.991 289.65C277.791 287.691 275.654 286.071 275.241 286.051C274.379 286.007 274.199 283.013 275.058 283.013C275.369 283.013 277.099 284.138 278.902 285.513C284.067 289.452 284.453 288.425 279.491 283.944L274.991 279.881L278.425 280.459C280.314 280.777 282.677 281.776 283.675 282.68ZM195.491 300.346C195.491 302.227 196.453 302.965 198.089 302.337C200.216 301.521 199.765 299.013 197.491 299.013C196.391 299.013 195.491 299.613 195.491 300.346ZM190.25 332.263C189.963 345.6 190.111 357.188 190.579 358.013C191.065 358.868 191.443 348.448 191.461 333.763C191.477 319.6 191.329 308.013 191.131 308.013C190.933 308.013 190.537 318.926 190.25 332.263ZM196.991 317.013C196.068 318.507 197.352 320.013 199.55 320.013C200.824 320.013 201.491 319.326 201.491 318.013C201.491 315.892 198.144 315.148 196.991 317.013ZM263.491 322.542C263.491 324.078 257.342 334.901 255.097 337.314C252.992 339.578 246.997 343.013 245.152 343.013C244.931 343.013 244.442 340.201 244.067 336.763C243.692 333.326 243.129 328.845 242.817 326.805L242.249 323.098L250.62 322.759C255.224 322.573 260.003 322.328 261.241 322.217C262.479 322.105 263.491 322.251 263.491 322.542ZM198.116 337.811C197.325 339.09 199.159 341.336 200.379 340.582C201.985 339.59 201.747 337.013 200.05 337.013C199.257 337.013 198.387 337.372 198.116 337.811Z" fill="black"/>
</svg>
