<svg width="413" height="138" viewBox="0 0 413 138" fill="none" xmlns="http://www.w3.org/2000/svg">
<path d="M53.5879 10.4966C47.67 4.69951 38.173 4.79746 32.3759 10.7154L12.7124 30.7888C6.91526 36.7067 7.01321 46.2037 12.9312 52.0008L55.1007 93.3094C61.0187 99.1065 70.5157 99.0085 76.3128 93.0906L95.9763 73.0172C101.773 67.0993 101.675 57.6023 95.7575 51.8052L53.5879 10.4966Z" fill="#FFA600"/>
<path opacity="0.7" d="M51.0388 44.3818C45.0594 38.6481 35.564 38.8473 29.8303 44.8267L10.3819 65.1085C4.64814 71.0879 4.8473 80.5833 10.8267 86.317L53.4342 127.174C59.4136 132.907 68.909 132.708 74.6427 126.729L94.0911 106.447C99.8248 100.468 99.6257 90.9723 93.6462 85.2386L51.0388 44.3818Z" fill="#001EFF"/>
<g opacity="0.75" style="mix-blend-mode:multiply">
<path d="M33.677 32.3858C25.7547 29.9636 17.3689 34.4223 14.9467 42.3445L6.73078 69.2162C4.30859 77.1385 8.76727 85.5243 16.6895 87.9465L73.141 105.206C81.0632 107.628 89.4491 103.17 91.8713 95.2475L100.087 68.3758C102.509 60.4536 98.0507 52.0677 90.1284 49.6455L33.677 32.3858Z" fill="#EC73ED"/>
</g>
<path d="M126.4 105V32.4H144.22V63.42C147.74 62.2467 150.82 60.5967 153.46 58.47C156.173 56.27 158.483 53.7767 160.39 50.99C162.297 48.2033 163.873 45.2333 165.12 42.08C166.367 38.8533 167.32 35.6267 167.98 32.4H188C187.12 36.58 185.837 40.54 184.15 44.28C182.537 47.9467 180.483 51.32 177.99 54.4C175.497 57.48 172.6 60.23 169.3 62.65C166 64.9967 162.26 66.94 158.08 68.48V69.36C162.553 68.9933 166.257 69.2867 169.19 70.24C172.123 71.12 174.507 72.44 176.34 74.2C178.173 75.96 179.603 77.9767 180.63 80.25C181.73 82.45 182.647 84.6867 183.38 86.96L189.21 105H169.41L165.23 88.83C164.57 86.19 163.617 84.0633 162.37 82.45C161.197 80.7633 159.657 79.5533 157.75 78.82C155.843 78.0867 153.423 77.72 150.49 77.72H144.22V105H126.4ZM208.496 106.54C205.563 106.54 202.776 106.027 200.136 105C197.496 103.973 195.333 102.323 193.646 100.05C191.959 97.7033 191.116 94.5867 191.116 90.7C191.116 87.1067 191.813 84.21 193.206 82.01C194.599 79.7367 196.469 77.94 198.816 76.62C201.163 75.2267 203.729 74.2 206.516 73.54C209.303 72.8067 212.053 72.1833 214.766 71.67C218.579 70.9367 221.439 70.35 223.346 69.91C225.253 69.47 226.536 68.9567 227.196 68.37C227.929 67.7833 228.296 66.9767 228.296 65.95C228.296 63.8233 227.489 62.21 225.876 61.11C224.336 60.01 222.283 59.46 219.716 59.46C218.103 59.46 216.489 59.7533 214.876 60.34C213.263 60.9267 211.943 61.99 210.916 63.53C209.889 64.9967 209.413 67.1233 209.486 69.91L193.646 68.81C193.499 64.19 194.196 60.3767 195.736 57.37C197.276 54.29 199.366 51.9067 202.006 50.22C204.719 48.46 207.653 47.2133 210.806 46.48C214.033 45.7467 217.223 45.38 220.376 45.38C226.169 45.38 230.936 46.48 234.676 48.68C238.416 50.8067 241.166 53.9233 242.926 58.03C244.759 62.0633 245.676 66.9767 245.676 72.77V83.11C245.676 85.53 245.676 87.9867 245.676 90.48C245.676 92.9 245.676 95.32 245.676 97.74C245.676 100.16 245.676 102.58 245.676 105H230.276C230.276 102.36 230.276 99.6833 230.276 96.97C230.276 94.2567 230.276 91.3967 230.276 88.39H229.616C229.323 91.69 228.223 94.7333 226.316 97.52C224.483 100.233 222.026 102.433 218.946 104.12C215.939 105.733 212.456 106.54 208.496 106.54ZM215.866 93.56C217.113 93.56 218.433 93.34 219.826 92.9C221.293 92.3867 222.649 91.58 223.896 90.48C225.216 89.38 226.279 87.8767 227.086 85.97C227.893 83.99 228.296 81.57 228.296 78.71V76.07L231.266 75.74C230.679 76.6933 229.689 77.4633 228.296 78.05C226.976 78.6367 225.473 79.1133 223.786 79.48C222.099 79.7733 220.376 80.1033 218.616 80.47C216.929 80.7633 215.353 81.2033 213.886 81.79C212.419 82.3033 211.209 83.0367 210.256 83.99C209.376 84.87 208.936 86.1167 208.936 87.73C208.936 89.6367 209.596 91.1033 210.916 92.13C212.309 93.0833 213.959 93.56 215.866 93.56ZM252.933 105V73.43V46.92H268.333V70.02H269.213C269.653 63.86 270.496 59.02 271.743 55.5C273.063 51.9067 274.676 49.3767 276.583 47.91C278.563 46.37 280.763 45.6 283.183 45.6C284.503 45.6 285.859 45.7833 287.253 46.15C288.719 46.5167 290.149 47.1033 291.543 47.91L290.663 67.71C289.049 66.7567 287.473 66.06 285.933 65.62C284.393 65.1067 282.926 64.85 281.533 64.85C279.186 64.85 277.206 65.51 275.593 66.83C273.979 68.15 272.733 70.0933 271.853 72.66C271.046 75.2267 270.643 78.3433 270.643 82.01V105H252.933ZM316.579 106.54C312.399 106.54 308.622 105.403 305.249 103.13C301.949 100.857 299.309 97.41 297.329 92.79C295.422 88.17 294.469 82.34 294.469 75.3C294.469 68.6267 295.349 63.09 297.109 58.69C298.869 54.2167 301.362 50.88 304.589 48.68C307.816 46.48 311.592 45.38 315.919 45.38C319.292 45.38 322.262 46.0767 324.829 47.47C327.469 48.8633 329.632 51.0633 331.319 54.07C333.006 57.0767 334.179 61 334.839 65.84H335.829C335.462 63.3467 335.096 60.89 334.729 58.47C334.362 56.05 334.069 53.7033 333.849 51.43C333.702 49.1567 333.629 47.03 333.629 45.05V28H351.449V84.54V105H335.939V87.07H335.169C334.362 91.3233 333.116 94.9167 331.429 97.85C329.816 100.71 327.762 102.873 325.269 104.34C322.849 105.807 319.952 106.54 316.579 106.54ZM322.849 92.35C324.242 92.35 325.599 92.0567 326.919 91.47C328.239 90.81 329.412 89.82 330.439 88.5C331.466 87.18 332.272 85.53 332.859 83.55C333.519 81.57 333.849 79.2233 333.849 76.51V75.74C333.849 73.54 333.629 71.5967 333.189 69.91C332.749 68.15 332.162 66.6833 331.429 65.51C330.696 64.2633 329.852 63.2733 328.899 62.54C327.946 61.7333 326.919 61.1467 325.819 60.78C324.792 60.4133 323.766 60.23 322.739 60.23C320.466 60.23 318.559 61 317.019 62.54C315.479 64.08 314.342 66.0967 313.609 68.59C312.876 71.01 312.509 73.65 312.509 76.51C312.509 79.37 312.912 82.01 313.719 84.43C314.526 86.85 315.699 88.7933 317.239 90.26C318.779 91.6533 320.649 92.35 322.849 92.35ZM384.798 106.54C380.911 106.54 377.281 106.137 373.908 105.33C370.608 104.597 367.711 103.387 365.218 101.7C362.798 100.013 360.928 97.7767 359.608 94.99C358.361 92.13 357.848 88.6833 358.068 84.65L373.578 83.33C373.724 85.75 374.274 87.7667 375.228 89.38C376.181 90.92 377.501 92.0567 379.188 92.79C380.874 93.5233 382.928 93.89 385.348 93.89C387.621 93.89 389.564 93.5233 391.178 92.79C392.864 91.9833 393.708 90.6633 393.708 88.83C393.708 87.8767 393.414 87.1067 392.828 86.52C392.241 85.86 391.141 85.2733 389.528 84.76C387.988 84.1733 385.714 83.5133 382.708 82.78C378.968 81.8267 375.594 80.8733 372.588 79.92C369.581 78.9667 367.014 77.83 364.888 76.51C362.761 75.19 361.148 73.5767 360.048 71.67C358.948 69.69 358.398 67.27 358.398 64.41C358.398 60.3767 359.461 56.9667 361.588 54.18C363.788 51.32 366.794 49.1567 370.608 47.69C374.421 46.15 378.821 45.38 383.808 45.38C388.281 45.38 392.461 46.0767 396.348 47.47C400.234 48.8633 403.278 51.1367 405.478 54.29C407.751 57.4433 408.594 61.6233 408.008 66.83L392.828 68.26C393.048 66.1333 392.754 64.3367 391.948 62.87C391.141 61.33 389.968 60.1933 388.428 59.46C386.888 58.6533 385.018 58.25 382.818 58.25C380.324 58.25 378.381 58.7267 376.988 59.68C375.668 60.56 375.008 61.6967 375.008 63.09C375.008 64.19 375.411 65.1433 376.218 65.95C377.098 66.6833 378.418 67.3433 380.178 67.93C382.011 68.4433 384.358 69.03 387.218 69.69C389.711 70.2033 392.314 70.8633 395.028 71.67C397.741 72.4767 400.271 73.5767 402.618 74.97C404.964 76.29 406.871 78.05 408.338 80.25C409.804 82.45 410.538 85.2367 410.538 88.61C410.538 92.2033 409.548 95.3567 407.568 98.07C405.588 100.783 402.691 102.873 398.878 104.34C395.064 105.807 390.371 106.54 384.798 106.54Z" fill="black"/>
</svg>
