<svg width="240" height="153" viewBox="0 0 240 153" fill="none" xmlns="http://www.w3.org/2000/svg">
<path d="M85.5868 30.5912C112.409 29.7619 141.628 36.843 159.676 44.9381C177.698 53.0212 191.856 63.0184 200.54 74.2982C209.239 85.5975 212.449 98.1984 208.508 111.386C204.545 124.651 193.735 130.387 184.043 132.806C179.193 134.017 174.594 134.406 171.211 134.494C169.518 134.538 168.126 134.507 167.156 134.464C166.671 134.443 166.291 134.418 166.031 134.4C165.901 134.39 165.8 134.382 165.732 134.376C165.698 134.373 165.672 134.371 165.654 134.369C165.645 134.368 165.639 134.368 165.634 134.367C165.631 134.367 165.629 134.367 165.628 134.367L165.626 134.367L165.689 133.72L165.625 134.367L165.611 134.366L165.597 134.364L57.9814 118.946L57.8393 118.926L57.7198 118.847C40.4021 107.569 30.7354 98.4473 26.2265 89.829C21.6855 81.149 22.4171 73.0667 25.6234 64.037C34.1094 40.1625 58.8001 31.4195 85.5868 30.5912Z" class="illu-accent" fill="#7793E9" stroke="black" stroke-width="1.3"/>
<path d="M98.0839 93.3884C98.0839 93.3884 82.2994 80.1355 92.2907 71.8716C92.2907 71.8716 91.8035 67.0626 99.0404 66.5781C106.277 66.0935 106.956 67.2281 109.805 64.4413C112.664 61.5951 98.0839 93.3884 98.0839 93.3884Z" fill="black"/>
<path d="M96.2324 83.942C95.8432 81.6972 94.69 80.4908 95.173 78.4996C95.6561 76.5086 95.8997 73.692 95.8997 73.692C95.8997 73.692 102.981 74.641 108.835 68.8478C126.552 68.9153 128.562 68.0657 128.142 69.6413C127.721 71.217 119.097 78.4733 119.739 79.8453C120.373 81.2767 124.663 95.4631 124.169 107.167C124.169 107.167 107.635 116.142 95.0787 106.836C95.0283 106.768 95.5943 105.032 95.6121 104.915C96.0415 103.278 96.361 101.566 96.6122 99.9043C97.2402 95.7498 97.3934 91.5234 96.8073 87.3677C96.9192 88.2345 95.1787 89.3065 94.5726 89.7012C93.1559 90.6397 91.4871 91.2374 89.7389 91.1555C87.6939 91.0287 85.9595 89.2492 86.1224 86.9661C86.2493 84.9219 87.6192 83.49 89.4337 82.732C89.7574 82.5985 90.0217 82.4561 90.3869 82.4505C92.2716 82.4326 96.7749 87.1804 96.2324 83.942Z" fill="white"/>
<path d="M104.473 111.353C101.149 110.851 97.7551 109.608 94.6411 107.316C94.2614 107.017 94.2973 106.779 94.8633 105.043C94.8813 104.924 94.9586 104.815 94.9676 104.755C95.3968 103.12 95.7073 101.467 95.9675 99.7461C96.5326 96.0076 96.7058 92.4518 96.3683 89.0619C95.9495 89.423 95.4801 89.7168 95.002 90.0689L94.8652 90.1698C93.2433 91.2609 91.3965 91.8316 89.6574 91.6891C88.4524 91.6285 87.3281 91.0342 86.5543 90.1282C85.7807 89.2221 85.3487 88.0638 85.4778 86.8078C85.6136 84.7042 86.9602 83.0256 89.1073 82.0747C89.4309 81.9424 89.8229 81.7585 90.3067 81.7708C91.2834 81.7361 92.4994 82.5266 93.656 83.3094C94.2641 83.7041 95.2102 84.2726 95.6168 84.3949C95.6258 84.3355 95.5933 84.1482 95.5609 83.9609C95.4402 83.1535 95.1737 82.5065 94.9666 81.868C94.5256 80.7693 94.144 79.6796 94.5374 78.2821C95.0114 76.3503 95.2462 73.5931 95.2462 73.5931L95.2854 72.9312L95.9384 73.0299C95.9977 73.0389 102.8 73.8243 108.363 68.3513L108.508 68.1912L108.755 68.1678C114.765 68.1656 119.027 68.0815 121.889 68.0283C126.941 67.942 127.977 67.9165 128.48 68.5997C128.783 69.0097 128.643 69.5349 128.616 69.713C128.381 70.4665 127.088 71.7889 124.853 74.1223C123.133 75.8657 120.265 78.7713 120.208 79.5518C121.015 81.4344 125.146 95.4753 124.662 107.119L124.667 107.484L124.343 107.617C124.257 107.787 114.622 112.887 104.473 111.353ZM95.6658 106.562C106.782 114.555 121.259 107.94 123.492 106.821C123.856 95.5842 119.766 81.6705 119.091 80.1115C118.591 79.0038 120.192 77.2425 123.993 73.3852C125.422 71.9621 127.357 70.0083 127.497 69.4831L127.506 69.4237C126.99 69.2243 124.918 69.2753 121.928 69.3699C119.127 69.432 114.924 69.5253 109.041 69.4859C104.001 74.3094 98.2696 74.4752 96.4028 74.3751C96.3186 75.3336 96.0999 77.1826 95.7569 78.6485C95.4766 79.6989 95.7755 80.5333 96.1661 81.5637C96.4325 82.2111 96.681 82.9775 96.8521 83.8533C96.9261 84.1673 97.0883 85.1025 96.4229 85.4882C95.6803 85.9827 94.5146 85.2606 93.0702 84.3735C92.124 83.8061 90.9671 83.0245 90.3558 83.0525C90.1094 83.0761 89.8541 83.1591 89.658 83.251C88.6187 83.7006 86.8781 84.7738 86.7243 86.9962C86.649 87.8956 86.9388 88.7893 87.5109 89.4229C88.0741 90.1147 88.9285 90.4871 89.7684 90.5532C91.2108 90.6497 92.8024 90.1619 94.2192 89.2222L94.4153 89.1303C96.1648 87.9989 96.2276 87.5829 96.2456 87.464L97.4271 87.279C97.9807 91.2474 97.9371 95.5523 97.205 99.9939C96.9448 101.715 96.5659 103.419 96.196 105.062C96.187 105.122 96.169 105.241 96.0827 105.41C95.928 105.63 95.7791 106.214 95.6658 106.562Z" fill="black"/>
<path d="M210.895 51.1277C210.895 51.1277 209.195 50.3244 208.629 53.2743C208.061 56.224 203.092 77.4498 203.092 77.4498L217.368 81.004C217.368 81.004 218.976 81.6112 219.577 79.638C220.188 77.6055 224.68 56.7326 224.68 56.7326C224.68 56.7326 225.718 54.2791 224.288 53.6987C222.985 53.0768 210.895 51.1277 210.895 51.1277Z" fill="white"/>
<path d="M217.635 81.6515C217.457 81.6246 217.338 81.6066 217.287 81.5383L202.427 77.8351L202.577 77.2506C202.612 77.0131 207.555 55.9655 208.113 53.0751C208.37 51.7783 208.86 50.9417 209.644 50.5746C210.301 50.2489 210.944 50.4069 211.173 50.5021C212.657 50.7264 223.313 52.5193 224.684 53.0909C225.141 53.2813 225.461 53.5726 225.635 54.0238C226.086 55.0633 225.564 56.5023 225.392 56.8403C225.117 58.2559 220.902 77.7135 220.299 79.6866C220.055 80.4996 219.601 81.0988 219.012 81.374C218.415 81.7088 217.932 81.6964 217.635 81.6515ZM217.636 80.4375C217.636 80.4375 218.043 80.5598 218.435 80.3761C218.699 80.2339 218.931 79.9049 219.063 79.4389C219.664 77.4657 224.119 56.8301 224.155 56.5927L224.173 56.474C224.372 55.9578 224.634 55.026 224.41 54.5063C224.368 54.3787 224.258 54.3013 224.148 54.224C223.175 53.8341 215.664 52.5166 210.807 51.7217L210.628 51.6947C210.569 51.6858 210.34 51.5904 210.077 51.7327C209.684 51.9163 209.407 52.5422 209.222 53.3641C208.708 55.9578 204.593 73.5484 203.835 76.955L217.636 80.4375Z" fill="black"/>
<path d="M55.3179 127.296C49.6212 109.557 42.5092 86.3229 39.8526 81.0043C37.1962 75.6858 34.5143 69.3305 33.4618 68.2607C32.4092 67.191 32.2844 64.8045 33.6633 63.313C33.6633 63.313 27.9805 59.5399 29.9627 54.8613L27.9943 52.6212C27.9943 52.6212 22.0259 54.7545 18.6109 50.8385C18.6109 50.8385 15.9083 52.2513 13.343 50.3457C10.7777 48.4403 11.699 44.7548 12.51 44.2096C12.51 44.2096 11.131 40.48 14.1718 39.2398C14.1718 39.2398 13.5693 33.9885 19.2148 33.9918C19.2148 33.9918 25.0285 26.857 32.1931 35.2858C32.1931 35.2858 35.6211 35.5004 36.9421 38.0071C38.2631 40.5138 39.2624 43.9431 39.2624 43.9431C39.2624 43.9431 40.7677 43.6242 41.8939 45.0087C43.0203 46.3931 46.4697 51.2856 46.4697 51.2856C46.4697 51.2856 48.8307 50.1247 50.5941 52.5162C52.3575 54.9076 53.4521 58.1085 55.114 58.3597C56.7759 58.6109 57.4239 60.348 58.8333 63.4751C60.2335 66.6615 61.8602 69.1536 64.3973 72.4512C66.9433 75.6894 70.0815 80.2311 73.9359 86.4602C77.85 92.6972 81.4595 97.7355 84.4029 101.156C87.3466 104.575 93.8092 111.622 96.0604 105.164C96.0604 105.164 107.77 113.247 124.408 103.984C124.408 103.984 124.812 103.317 125.725 104.913C126.628 106.567 126.21 108.932 132.976 106.737C139.744 104.542 144.137 103.992 149.59 100.446C155.095 96.9675 168.999 85.7127 175.528 85.4856C175.528 85.4856 179.747 77.2596 187.226 80.3936C187.226 80.3936 193.999 75.3465 195.44 74.6536C195.44 74.6536 197.256 67.4607 206.974 64.6193C212.109 63.5743 215.474 67.422 213.612 68.901C211.749 70.3801 205.131 68.7726 203.79 74.0338L203.279 77.4169L212.759 79.7607C212.759 79.7607 211.791 82.9531 204.65 85.2128C204.65 85.2128 205.081 86.3709 204.395 87.2992C203.709 88.2275 198.323 91.7238 197.938 93.0619C197.555 94.4003 191.162 103.754 188.267 108.052C185.371 112.349 175.555 123.068 172.732 127.681C169.911 132.293 162.288 140.551 161.729 141.438" fill="white"/>
<path d="M54.9048 127.827C53.8282 124.507 52.7694 121.069 51.6099 117.494C46.6767 101.935 41.5778 85.8649 39.4306 81.5948C38.4948 79.7535 37.5768 77.7934 36.7093 75.9017C35.1992 72.6377 33.772 69.6294 33.1405 68.9875C32.0376 67.8494 31.785 65.5042 32.903 63.7306C31.4944 62.607 27.9215 59.335 29.3805 55.3059L27.8745 53.6213C26.479 54.0174 21.699 55.1162 18.5506 51.8476C17.5885 52.1878 15.3172 52.7552 13.0811 51.0815C11.7732 50.0946 11.1397 48.6632 11.1624 46.906C11.1962 45.8791 11.4675 44.8881 11.9223 44.2891C11.4847 42.7658 11.4371 40.2696 13.6794 39.0908C13.6773 38.3012 13.8188 36.562 14.9837 35.2811C15.9348 34.2107 17.2889 33.6868 19.0549 33.6503C19.7058 32.9594 21.9046 30.8634 25.0034 30.8461C27.6183 30.8165 30.1368 32.2292 32.5676 35.025C33.4578 35.1595 36.2978 35.6495 37.5091 38.0789C38.5367 40.1162 39.3739 42.6104 39.6962 43.6912C40.3669 43.6712 41.4857 43.901 42.3513 45.0032C43.3264 46.1826 45.8276 49.7176 46.6751 50.9385C47.8151 50.6251 49.7 50.6066 51.0513 52.5106C51.6559 53.3306 52.1921 54.2008 52.669 55.0622C53.5401 56.5295 54.3607 57.9283 55.1916 58.0539C57.0909 58.341 57.8577 60.0961 59.1752 63.0272L59.4002 63.5469C60.7087 66.5373 62.2761 69.0205 64.8635 72.3864C67.5516 75.8889 70.7817 80.6264 74.4526 86.4631C78.2657 92.5644 81.8752 97.6027 84.8692 101.09C86.375 102.776 90.866 108.007 93.5526 107.503C94.3691 107.323 95.0199 106.632 95.4638 105.302L95.6991 104.549L96.3574 105.013C96.4672 105.09 107.933 112.773 123.974 103.845C124.12 103.684 124.385 103.542 124.622 103.578C125.343 103.626 125.838 104.37 126.173 104.966C126.315 105.231 126.448 105.554 126.531 105.809C127.004 107.096 127.446 108.195 132.671 106.555C134.39 106.026 135.981 105.538 137.437 105.151C141.751 103.921 145.12 102.913 149.148 100.364C150.42 99.5852 152.128 98.3259 154.1 96.9243C160.76 92.2243 169.752 85.752 174.977 85.3275C175.381 84.6603 176.345 83.106 178.012 81.7189C180.721 79.4571 183.773 78.947 186.93 80.1528C188.159 79.2459 193.079 75.6184 194.734 74.7151C195.186 73.3263 197.639 67.1406 206.6 64.4882C210.24 63.7028 213.334 65.324 214.261 67.2247C214.72 68.2047 214.517 69.1454 213.756 69.7589C212.996 70.3726 211.823 70.4987 210.454 70.7168C207.913 71.0612 205.006 71.4111 204.167 74.5625L203.745 77.352L213.336 79.7731L213.127 80.3487C213.109 80.4674 212.012 83.7014 205.169 86.006C205.266 86.567 205.208 87.3474 204.677 88.0563C204.367 88.4952 203.547 89.0998 202.171 90.1668C200.797 91.2338 198.464 93.0061 198.315 93.5907C198.044 94.5817 195.026 99.2854 188.557 108.749C187.234 110.675 184.558 113.913 181.747 117.253C178.257 121.46 174.623 125.829 173.091 128.328C171.087 131.546 166.742 136.597 164.152 139.666C163.124 140.845 162.242 141.866 162.078 142.145L161.082 141.508C161.245 141.23 161.914 140.42 163.234 138.92C165.813 135.91 170.09 130.91 172.026 127.742C173.626 125.191 177.27 120.765 180.818 116.565C183.631 113.227 186.305 109.988 187.56 108.114C193.652 99.1385 196.893 94.165 197.147 93.2927C197.409 92.361 198.998 91.0834 201.466 89.2102C202.423 88.5048 203.525 87.6394 203.689 87.3607C204.153 86.7023 203.853 85.8678 203.853 85.8678L203.638 85.2889L204.217 85.0728C209.06 83.5586 210.935 81.5958 211.63 80.6082L202.387 78.3003L202.988 74.3235C204.005 70.4098 207.6 69.9212 210.26 69.5947C211.432 69.4683 212.495 69.2648 212.974 68.9122C213.315 68.6601 213.368 68.304 213.144 67.7844C212.543 66.5401 210.161 65.0266 206.844 65.6787C197.628 68.4138 195.747 75.2326 195.738 75.2919L195.694 75.5886L195.43 75.7309C194.322 76.2313 189.198 80.0099 187.353 81.3702L187.079 81.5717L186.733 81.4586C183.881 80.2384 181.144 80.6745 178.718 82.6754C176.845 84.2136 175.819 86.1834 175.81 86.2427L175.637 86.5808L175.273 86.5864C170.449 86.7679 160.988 93.5335 154.669 97.9817C152.696 99.3833 150.929 100.634 149.65 101.472C145.485 104.121 141.996 105.112 137.613 106.391C136.15 106.839 134.567 107.267 132.848 107.797C126.984 109.642 125.967 108.335 125.168 106.393C125.085 106.138 125.002 105.882 124.851 105.677C124.609 105.276 124.457 105.072 124.348 104.994C109.764 113.11 98.693 108.037 96.0055 106.538C95.3838 107.84 94.5369 108.622 93.474 108.826C90.4725 109.405 86.6332 105.486 83.6303 102.057C80.5771 98.5591 76.9764 93.4626 73.113 87.2929C69.5014 81.4652 66.2714 76.7274 63.5743 73.2842C60.8772 69.8411 59.3187 67.2986 57.9598 64.2398L57.7348 63.7201C56.4677 60.8573 55.8666 59.613 54.6795 59.4335C53.3144 59.2272 52.402 57.6323 51.3384 55.8324C50.8526 55.0304 50.3757 54.1691 49.7711 53.3491C48.3604 51.4361 46.6053 52.2028 46.4094 52.2947L45.949 52.5286L45.6468 52.1186C45.5963 52.0503 42.1973 47.2261 41.1303 45.8507C40.2559 44.8079 39.1337 45.0025 39.0744 44.9935L38.5132 45.0908L38.3476 44.5801C38.3566 44.5208 37.3392 41.2101 36.0777 38.7124C34.9493 36.5385 31.8863 36.3183 31.827 36.3093L31.5896 36.2734L31.4385 36.0685C29.2272 33.4273 26.9372 32.1098 24.6279 32.125C21.5292 32.1423 19.3863 34.6716 19.3773 34.7311L19.2227 34.9505L18.917 34.965C17.3972 34.9782 16.2481 35.3508 15.4517 36.2017C14.2777 37.5421 14.4655 39.5132 14.4565 39.5725L14.5124 40.0059L14.1204 40.1895C11.6586 41.2137 12.7118 44.2869 12.8126 44.4236L12.9872 44.875L12.9603 45.0531C12.8236 45.1537 12.3923 45.9992 12.3999 47.1539C12.384 48.0621 12.6794 49.3209 13.8775 50.2305C16.1136 51.9042 18.4153 50.7343 18.543 50.693L18.944 50.45L19.2551 50.8006C22.3589 54.3659 27.9352 52.4162 27.9352 52.4162L28.3183 52.2919L30.8084 55.0968L30.6358 55.435C28.8533 59.5973 34.0287 63.1115 34.0881 63.1205L34.6961 63.5159L34.2502 64.0556C33.0942 65.2772 33.2136 67.2986 34.0556 68.1545C34.788 68.9329 35.9308 71.4127 37.817 75.4016C38.6845 77.2933 39.6114 79.194 40.4879 81.0263C42.6765 85.4242 47.7755 101.493 52.6999 117.111C53.8088 120.619 54.9179 124.125 55.9946 127.445L54.9048 127.827Z" fill="black"/>
<path d="M221.089 71.2454C221.089 71.2454 218.044 76.1277 219.569 76.4796C221.094 76.8316 222.5 76.3761 223.542 75.5017C224.585 74.6273 226.847 68.8982 221.089 71.2454Z" fill="white"/>
<path d="M219.835 77.127L219.48 77.0733C219.123 77.0194 218.863 76.7371 218.67 76.4045C218.138 75.1098 220.023 71.8736 220.591 70.9275L220.677 70.7584L220.873 70.6664C223.07 69.7844 224.521 69.8216 225.15 70.8881C226.08 72.3642 224.75 75.138 223.972 75.8702C222.834 76.9732 221.32 77.3514 219.835 77.127ZM219.778 75.9041C221.015 76.1518 222.274 75.8564 223.18 75.0828C223.677 74.6115 224.671 72.4547 224.135 71.5844C223.841 71.1151 222.855 71.2089 221.502 71.7329C220.442 73.5154 219.612 75.3934 219.778 75.9041Z" fill="black"/>
<path d="M220.683 67.9062C220.683 67.9062 218.298 72.0382 219.621 72.1167C220.944 72.1953 225.64 72.0552 226.143 68.7315C226.645 65.4077 220.683 67.9062 220.683 67.9062Z" fill="white"/>
<path d="M219.473 72.7016C219.176 72.6566 218.898 72.4931 218.764 72.1695C218.246 71.1805 219.445 68.8727 220.194 67.5288L220.28 67.3597L220.477 67.268C221.183 67.0105 224.675 65.5956 226.134 66.7875C226.514 67.0878 226.917 67.6344 226.746 68.762C226.217 72.2639 221.814 72.8733 219.601 72.6602C219.532 72.7105 219.532 72.7105 219.473 72.7016ZM221.096 68.3936C220.354 69.6779 219.784 71.0486 219.831 71.5415C220.68 71.5483 225.171 71.5594 225.61 68.6511C225.7 68.0575 225.48 67.9029 225.43 67.8346C224.721 67.3025 222.518 67.8193 221.096 68.3936Z" fill="black"/>
<path d="M225.674 65.8071C225.772 64.3649 224.158 63.3924 222.575 63.8209C220.993 64.2495 217.593 67.8639 220.177 68.4367C222.762 69.0095 225.451 69.2945 225.674 65.8071Z" fill="white"/>
<path d="M221.266 69.269C220.85 69.2062 220.435 69.1434 220.028 69.0212C218.791 68.7735 218.62 67.8977 218.614 67.5325C218.551 65.9446 220.963 63.638 222.36 63.242C223.372 62.9701 224.499 63.1404 225.309 63.8091C225.958 64.3323 226.275 65.048 226.209 65.8879C226.131 67.2117 225.681 68.1758 224.93 68.7301C223.964 69.4947 222.631 69.4753 221.266 69.269ZM223.649 64.3475C223.352 64.3025 222.987 64.3083 222.672 64.382C221.66 64.6539 219.794 66.5574 219.778 67.4657C219.769 67.525 219.802 67.712 220.267 67.8432C221.742 68.1267 223.336 68.4284 224.224 67.7735C224.702 67.4207 224.988 66.7354 225.013 65.7679C225.034 65.2247 224.774 64.9426 224.504 64.7196C224.293 64.5056 224.006 64.4014 223.649 64.3475Z" fill="black"/>
<path d="M224.863 57.1243C224.863 57.1243 230.141 59.5612 224.903 63.687L223.605 63.4302L224.863 57.1243Z" fill="white"/>
<path d="M225.051 64.3165L222.933 63.875L224.454 56.2128L225.131 56.5578C225.24 56.6351 227.566 57.7152 227.796 59.8141C227.945 61.233 227.119 62.6865 225.265 64.1061L225.051 64.3165ZM224.349 62.9356L224.765 62.9985C226.08 61.9223 226.726 60.8666 226.623 59.9403C226.511 59.0734 225.88 58.4316 225.331 58.0451L224.349 62.9356Z" fill="black"/>
<path d="M206.568 47.6201C206.391 47.5933 206.221 47.5071 206.061 47.3614L204.285 45.4537C203.915 45.0942 203.945 44.4917 204.296 44.1806C204.646 43.8692 205.258 43.8403 205.569 44.1908L207.345 46.0985C207.715 46.4579 207.685 47.0604 207.335 47.3718C207.121 47.5823 206.865 47.665 206.568 47.6201Z" fill="black"/>
<path d="M208.532 46.2781C208.235 46.2332 207.906 46.0012 207.832 45.6864L206.986 43.2517C206.811 42.8003 207.07 42.2931 207.521 42.1184C207.973 41.9439 208.48 42.2025 208.655 42.654L209.501 45.0889C209.675 45.5401 209.417 46.0475 208.965 46.222C208.837 46.2635 208.65 46.2959 208.532 46.2781Z" fill="black"/>
<path d="M203.445 57.833C203.385 57.824 203.266 57.8061 203.216 57.7378L200.214 56.3127C199.758 56.1223 199.601 55.5522 199.791 55.0953C199.982 54.6385 200.552 54.4818 201.008 54.6721L204.011 56.0974C204.467 56.2878 204.624 56.858 204.434 57.3148C204.193 57.7033 203.801 57.8869 203.445 57.833Z" fill="black"/>
<path d="M228.126 49.6041C227.947 49.5772 227.72 49.482 227.568 49.2771C227.257 48.9264 227.287 48.3239 227.638 48.0126L229.947 45.994C230.297 45.6826 230.9 45.7131 231.211 46.0636C231.522 46.4142 231.492 47.0168 231.141 47.328L228.832 49.3466C228.619 49.5573 228.363 49.6401 228.126 49.6041Z" fill="black"/>
<path d="M231.022 59.7556C230.606 59.6927 230.286 59.4015 230.29 58.977C230.243 58.4843 230.552 58.0453 231.053 57.9389L234.461 57.4828C234.955 57.4359 235.393 57.745 235.5 58.2469C235.547 58.7396 235.237 59.1786 234.736 59.2848L231.328 59.7411C231.2 59.7825 231.141 59.7735 231.022 59.7556Z" fill="black"/>
<path d="M232.89 63.8627L232.712 63.8358L230.35 62.9932C229.893 62.8026 229.6 62.3334 229.791 61.8766C229.922 61.4107 230.45 61.1262 230.908 61.3169L233.269 62.1594C233.725 62.3499 234.019 62.8193 233.829 63.2761C233.766 63.6916 233.305 63.9254 232.89 63.8627Z" fill="black"/>
<path d="M101.995 81.9594C101.698 81.9146 101.496 81.6413 101.482 81.3355C101.5 81.2167 101.586 79.0441 103.044 78.2325C103.973 77.7053 105.229 77.8344 106.751 78.6107C107.029 78.7743 107.154 79.1574 106.99 79.4361C106.827 79.715 106.444 79.8392 106.165 79.6756C105.379 79.2533 104.346 78.8543 103.621 79.2305C102.692 79.7578 102.637 81.3279 102.637 81.3279C102.651 81.6337 102.369 81.8945 102.004 81.9001C102.054 81.9684 102.054 81.9684 101.995 81.9594Z" fill="black"/>
<path d="M109.437 78.5308C109.377 78.5218 109.318 78.5129 109.267 78.4446C108.989 78.281 108.856 77.9573 109.028 77.6191C109.037 77.5598 110.054 75.6494 111.711 75.5356C112.696 75.4417 113.583 76.0007 114.448 77.1028C114.65 77.3762 114.596 77.7323 114.323 77.9339C114.05 78.1354 113.693 78.0816 113.492 77.8083C112.938 77.0566 112.389 76.6702 111.837 76.7081C111.038 76.7695 110.334 77.8165 110.102 78.1457C109.938 78.4245 109.674 78.5667 109.437 78.5308Z" fill="black"/>
<path d="M110.202 89.9383C108.184 89.6333 106.428 88.3964 106.318 88.319C106.039 88.1553 105.974 87.7819 106.197 87.5117C106.361 87.2336 106.794 87.1775 107.005 87.3906C107.064 87.3995 109.917 89.4102 112.215 88.6645C113.305 88.2833 114.051 87.3638 114.59 85.8063C114.694 85.5181 115.027 85.3252 115.315 85.4295C115.603 85.5338 115.795 85.8668 115.691 86.1538C115.098 88.068 114.061 89.307 112.588 89.8139C111.763 90.0527 110.973 90.055 110.202 89.9383Z" fill="black"/>
<path d="M90.3165 88.1472L90.1979 88.1292C89.9101 88.0249 89.7266 87.6325 89.8306 87.3454C90.2117 86.4315 91.3621 84.8448 93.4036 85.3966C93.6913 85.5009 93.8841 85.8328 93.8391 86.13C93.7944 86.426 93.4023 86.6099 93.1055 86.565C91.6487 86.1624 91.0087 87.5843 90.9819 87.7614C90.8777 88.0496 90.6134 88.192 90.3165 88.1472Z" fill="black"/>
<path d="M101.88 118.489C96.5972 117.69 93.9097 110.97 93.7764 110.647C93.6433 110.323 93.8159 109.984 94.1395 109.852C94.4632 109.719 94.8013 109.891 94.9347 110.214C94.985 110.283 97.5483 116.619 102.118 117.31L102.178 117.319C105.146 117.768 108.362 115.765 111.76 111.362L112.215 110.763L112.668 111.377C112.718 111.446 116.969 117.066 120.541 116.332C122.487 115.898 123.992 113.575 124.986 109.414C125.04 109.059 125.371 108.866 125.719 108.979C126.075 109.033 126.267 109.366 126.154 109.712C125.081 114.408 123.285 117.049 120.836 117.59C117.264 118.325 113.552 114.365 112.206 112.825C108.658 117.024 105.203 118.991 101.88 118.489Z" fill="black"/>
<path d="M112.246 115.045C112.335 115.044 112.424 115.065 112.502 115.102C112.605 115.151 112.701 115.237 112.739 115.362L112.743 115.371L112.742 115.372C112.742 115.374 112.745 115.381 112.751 115.401C112.757 115.421 112.765 115.449 112.775 115.483C112.795 115.552 112.821 115.647 112.847 115.763C112.9 115.995 112.954 116.313 112.965 116.678C112.987 117.407 112.84 118.335 112.161 119.141C111.794 119.606 111.224 120.691 110.876 121.871C110.697 122.5 110.625 123.046 110.644 123.483C110.664 123.921 110.776 124.23 110.947 124.409C111.121 124.578 111.416 124.63 111.791 124.587C112.16 124.545 112.57 124.415 112.93 124.274L112.931 124.274L113.405 124.09L113.609 124.011L113.609 124.229L113.609 124.684L113.608 124.684C113.613 125.134 113.503 125.617 113.364 126.082C113.286 126.37 113.209 126.658 113.18 126.902C113.166 127.024 113.165 127.128 113.178 127.21C113.191 127.291 113.216 127.339 113.244 127.368C113.286 127.403 113.362 127.436 113.501 127.45C113.573 127.458 113.655 127.461 113.75 127.459L114.072 127.441C114.615 127.392 115.069 127.488 115.444 127.742L115.598 127.861L115.601 127.863C116.202 128.392 116.34 129.324 116.3 130.302C116.259 131.291 116.033 132.385 115.845 133.291L115.844 133.297L115.699 133.261L115.843 133.297L115.764 133.619C115.772 133.669 115.769 133.72 115.75 133.769C115.727 133.832 115.682 133.88 115.632 133.914C115.534 133.978 115.404 133.993 115.281 133.974C115.015 133.934 114.826 133.712 114.861 133.475L114.864 133.461L114.865 133.461L114.951 133.112C115.101 132.35 115.31 131.356 115.374 130.457C115.406 130.008 115.4 129.591 115.336 129.244C115.271 128.895 115.15 128.636 114.967 128.478L114.963 128.473C114.826 128.345 114.612 128.277 114.251 128.302C113.51 128.364 112.957 128.264 112.607 127.948L112.606 127.948C112.322 127.687 112.24 127.341 112.249 126.981C112.257 126.625 112.353 126.232 112.444 125.853L112.446 125.845L112.55 125.469C112.561 125.424 112.571 125.378 112.581 125.333C111.585 125.602 110.762 125.492 110.237 124.973C109.863 124.608 109.707 124.079 109.684 123.501C109.66 122.922 109.769 122.273 109.945 121.642C110.296 120.381 110.925 119.148 111.363 118.609L111.366 118.605L111.46 118.489C111.909 117.899 112.009 117.211 111.989 116.645C111.979 116.344 111.935 116.081 111.894 115.892C111.873 115.797 111.852 115.721 111.838 115.667C111.83 115.64 111.824 115.62 111.82 115.603C111.818 115.595 111.816 115.587 111.814 115.581C111.813 115.577 111.812 115.573 111.811 115.567L111.809 115.553C111.754 115.322 111.906 115.096 112.156 115.053L112.246 115.045Z" fill="black" stroke="black" stroke-width="0.3"/>
<path d="M110.61 131.404C110.937 131.454 111.279 130.989 111.374 130.366C111.468 129.744 111.278 129.199 110.951 129.149C110.623 129.1 110.281 129.564 110.187 130.186C110.092 130.81 110.282 131.355 110.61 131.404Z" fill="black"/>
<path d="M25.2196 47.2844C24.9822 47.2485 24.7718 47.0346 24.6889 46.7791C24.6889 46.7791 24.4977 45.2326 25.0458 43.6155C23.537 44.3588 22.0049 44.8557 21.0084 44.2194C20.071 43.5921 19.9124 42.2324 20.541 40.0812L20.55 40.0219C22.0828 36.3075 27.778 34.3757 32.1557 34.7339C32.5117 34.7877 32.7133 35.061 32.7278 35.3667C32.674 35.7229 32.4007 35.9244 32.0949 35.9388C27.658 35.5718 22.9124 37.6471 21.7012 40.4387C21.2988 41.8956 21.3154 42.9909 21.7039 43.2318C22.4217 43.7046 24.4591 42.6769 26.3362 41.5036C26.8415 40.9729 27.4654 40.46 28.3087 40.1019C28.5731 39.9597 28.9202 40.0728 29.0624 40.3373C29.2045 40.6016 29.1507 40.9577 28.9457 41.1089C28.6635 41.3697 27.9802 41.8735 27.101 42.4691C25.6179 44.2484 25.8794 46.5341 25.9208 46.6618C25.9947 46.9765 25.7628 47.3057 25.3977 47.3113L25.2196 47.2844Z" fill="black"/>
<path d="M17.7815 49.4992C15.17 49.1045 12.3252 45.0319 11.9815 44.4942C11.78 44.221 11.8932 43.8738 12.1665 43.6723C12.4398 43.4708 12.7869 43.584 12.9884 43.8572C14.2804 45.7524 16.8802 48.6344 18.4448 48.3247C19.3206 48.1534 19.8148 46.8925 20.0356 45.8332C20.0895 45.477 20.4131 45.3438 20.7692 45.3976C21.1254 45.4515 21.3179 45.7842 21.2047 46.1313C20.7216 48.1224 19.8804 49.2701 18.6305 49.5062C18.3247 49.5207 18.0784 49.5441 17.7815 49.4992Z" fill="black"/>
<path d="M19.732 46.6369C17.2986 46.2691 14.2032 40.6409 13.5841 39.5153C13.4419 39.251 13.5641 38.8445 13.8284 38.7023C14.0927 38.5601 14.4992 38.6822 14.6414 38.9466C16.3979 42.1869 18.9169 45.6031 20.0302 45.4678C20.3358 45.4533 20.5947 44.946 20.7887 44.0648C20.8425 43.7087 21.1661 43.5754 21.5223 43.6293C21.8784 43.6831 22.0709 44.0157 21.9578 44.3629C21.6237 45.7695 21.0233 46.5286 20.1474 46.6997C20.0378 46.6225 19.9101 46.6638 19.732 46.6369Z" fill="black"/>
<path d="M20.8652 40.7378C19.7376 40.5673 18.9604 40.0856 18.4835 39.2243C17.2778 37.16 18.5697 33.8342 18.647 33.7244C18.7512 33.4367 19.1433 33.253 19.422 33.4166C19.7099 33.5208 19.8934 33.9128 19.7299 34.1917C19.4263 34.9957 18.7023 37.3754 19.4815 38.6466C19.8252 39.1843 20.3828 39.5114 21.2227 39.5777C21.5195 39.6225 21.7803 39.9048 21.7265 40.2609C21.6727 40.617 21.3994 40.8185 21.0433 40.7647L20.8652 40.7378Z" fill="black"/>
<path d="M23.7621 37.6544L23.6434 37.6364C22.949 37.4101 22.7151 36.9497 22.6412 36.6351C22.4287 35.6316 23.5667 34.5287 23.7807 34.3182C23.9946 34.1077 24.4191 34.1112 24.6207 34.3845C24.8312 34.5984 24.8277 35.0228 24.6137 35.2333C24.1265 35.6454 23.7904 36.2624 23.8228 36.4494C23.8228 36.4494 23.8732 36.5177 24.0512 36.5446C24.3391 36.6489 24.5316 36.9815 24.4185 37.3287C24.3321 37.4977 23.9995 37.6903 23.7621 37.6544Z" fill="black"/>
<path d="M18.5197 51.4318C18.2822 51.3959 18.1222 51.2503 18.0393 50.9949C17.9654 50.6802 18.138 50.3421 18.3933 50.2592C18.4616 50.2089 18.931 49.9155 18.7128 48.5469C18.6984 48.2413 18.9303 47.912 19.2361 47.8975C19.5417 47.883 19.871 48.1149 19.8854 48.4207C20.1705 50.9528 18.8848 51.4262 18.6977 51.4587L18.5197 51.4318Z" fill="black"/>
<path d="M27.9059 53.2153C27.7279 53.1884 27.5677 53.0427 27.4759 52.8467C27.3428 52.5231 27.4559 52.1759 27.7796 52.0427C30.7107 50.7251 30.8398 49.4698 30.8487 49.4105C30.8936 49.1137 31.1165 48.8438 31.4816 48.8383C31.7873 48.8238 32.0482 49.1061 32.0627 49.4118C32.0951 49.5989 31.995 51.4657 28.289 53.091C28.093 53.1829 28.0247 53.2332 27.9059 53.2153Z" fill="black"/>
<path d="M33.5718 63.9064C33.4532 63.8884 33.3938 63.8794 33.2841 63.8022C33.0142 63.5792 32.9494 63.2052 33.1723 62.9353C33.4041 62.6062 39.2663 54.7501 46.065 50.7388C46.3293 50.5966 46.7448 50.6594 46.887 50.9238C47.0291 51.1882 46.9663 51.6036 46.702 51.7458C40.1676 55.6148 34.2371 63.5213 34.2282 63.5806C34.0052 63.8504 33.7499 63.9333 33.5718 63.9064Z" fill="black"/>
<path d="M29.8749 55.4557L29.7561 55.4378C29.4684 55.3336 29.2757 55.0009 29.389 54.6537C29.4932 54.366 32.104 47.5362 38.793 43.4477C39.0663 43.2461 39.4728 43.3683 39.6149 43.6326C39.8164 43.9059 39.6943 44.3124 39.4299 44.4546C33.0826 48.2912 30.5491 55.0112 30.4807 55.0616C30.4359 55.3584 30.1716 55.5006 29.8749 55.4557Z" fill="black"/>
<path d="M71.6267 21.2846C71.928 21.224 72.0934 21.2759 72.1952 21.3399C72.3101 21.4122 72.4367 21.559 72.5466 21.8375C72.7744 22.4144 72.8371 23.313 72.7833 24.3355C72.7308 25.3349 72.5737 26.3651 72.4278 27.1518C72.3551 27.5434 72.2859 27.8713 72.235 28.1005C72.2095 28.2151 72.1885 28.3053 72.1741 28.3659C72.167 28.3957 72.1616 28.4185 72.158 28.4335C72.1561 28.4411 72.1543 28.4471 72.1534 28.4506L72.1528 28.4545L71.8767 29.5624L72.9692 29.2347L72.9702 29.2348C72.9709 29.2346 72.9727 29.234 72.9743 29.2335C72.9777 29.2325 72.983 29.2309 72.9898 29.2289C73.0039 29.2248 73.025 29.2188 73.0528 29.2108C73.109 29.1945 73.193 29.17 73.2995 29.1404C73.5127 29.0812 73.8188 28.9996 74.187 28.9081C74.9258 28.7245 75.9074 28.5053 76.8922 28.359C77.8896 28.211 78.8383 28.1457 79.5333 28.2407C79.8819 28.2884 80.1113 28.3701 80.2453 28.457C80.3512 28.5256 80.3843 28.5859 80.3964 28.6596C80.4241 28.9367 80.2432 29.3754 79.6723 29.9674C79.1297 30.5301 78.3628 31.0997 77.5563 31.6169C76.7556 32.1304 75.9435 32.575 75.329 32.8921C75.0224 33.0503 74.766 33.1762 74.5876 33.262C74.4988 33.3047 74.4292 33.3375 74.3823 33.3594C74.359 33.3703 74.3409 33.3786 74.3292 33.384L74.3132 33.3914L74.3121 33.3922L73.7924 33.6288L73.9608 34.1747L73.9606 34.1757C73.9608 34.1763 73.9617 34.1774 73.9621 34.1788C73.963 34.1819 73.964 34.187 73.9659 34.1932C73.9697 34.2057 73.9757 34.2246 73.9831 34.2492C73.998 34.2988 74.0201 34.3726 74.0479 34.4674C74.1037 34.6574 74.1828 34.9328 74.276 35.2712C74.4626 35.9489 74.7049 36.8778 74.927 37.8842C75.1495 38.8927 75.3492 39.9685 75.4552 40.9428C75.5602 41.9069 75.5631 42.705 75.4448 43.2336C75.3421 43.2045 75.1692 43.1352 74.9173 42.9791C74.2235 42.549 73.3087 41.724 72.3708 40.7729C71.4442 39.8333 70.5337 38.8104 69.8526 38.0199C69.5127 37.6253 69.2312 37.2892 69.0348 37.0528C68.9367 36.9346 68.8599 36.8411 68.8078 36.7775C68.7819 36.7458 68.7618 36.7216 68.7486 36.7054C68.7421 36.6973 68.7368 36.6913 68.7336 36.6873C68.7319 36.6853 68.7301 36.6836 68.7293 36.6827L68.7285 36.6816L68.2734 36.118L67.7623 36.6313L67.7621 36.6323L67.761 36.6331C67.7602 36.6339 67.759 36.635 67.7575 36.6365C67.754 36.6401 67.7483 36.6457 67.7412 36.6528C67.727 36.667 67.7061 36.6887 67.6783 36.7164C67.6224 36.772 67.5395 36.8535 67.4334 36.9579C67.2206 37.1673 66.9126 37.4677 66.5354 37.8286C65.7803 38.5508 64.7472 39.5151 63.6339 40.4863C62.5183 41.4595 61.3329 42.4305 60.27 43.1709C59.7383 43.5413 59.2477 43.8469 58.8203 44.0649C58.4665 44.2454 58.1865 44.3467 57.9809 44.3913C57.9994 44.2703 58.0392 44.1148 58.1038 43.924C58.3715 43.1344 58.9765 42.0109 59.6967 40.8285C60.4088 39.6595 61.2049 38.4782 61.8252 37.5867C62.1348 37.1418 62.4002 36.7708 62.5874 36.5108C62.681 36.3809 62.7552 36.2783 62.8058 36.209C62.8309 36.1747 62.8501 36.1484 62.8631 36.1308C62.8696 36.1219 62.8748 36.1147 62.878 36.1103C62.8795 36.1083 62.8809 36.107 62.8817 36.1059L62.8829 36.1041L63.5685 35.1757L62.4188 35.071L62.4159 35.0706C62.4136 35.0704 62.41 35.0704 62.4052 35.07C62.3948 35.069 62.3786 35.0669 62.3576 35.0647C62.3152 35.0604 62.2511 35.0536 62.17 35.0443C62.0078 35.0257 61.7746 34.9965 61.493 34.9558C60.9276 34.874 60.1745 34.7457 59.4159 34.5579C58.6503 34.3682 57.9126 34.1262 57.358 33.83C56.7909 33.527 56.5775 33.2538 56.5314 33.0651C56.5428 33.04 56.5775 32.9842 56.6767 32.8944C56.8687 32.7207 57.1966 32.5218 57.6636 32.3117C58.588 31.8959 59.882 31.5121 61.2237 31.1837C62.5572 30.8574 63.9055 30.5939 64.9227 30.4115C65.4306 30.3204 65.8548 30.2499 66.1514 30.2021C66.2994 30.1783 66.4155 30.1595 66.4945 30.1473C66.5339 30.1413 66.5642 30.1373 66.5843 30.1343C66.5942 30.1328 66.6016 30.1314 66.6066 30.1307C66.6091 30.1303 66.6115 30.1298 66.6127 30.1296L66.6137 30.1298L67.0308 30.0684L67.1445 29.6629L67.1456 29.6621C67.1458 29.6613 67.1458 29.6597 67.1462 29.6582C67.1472 29.6546 67.1485 29.6492 67.1506 29.6421C67.1548 29.6273 67.162 29.6045 67.1706 29.575C67.1879 29.5159 67.2133 29.4285 67.2471 29.3169C67.3152 29.0927 67.4157 28.7705 67.5445 28.3821C67.8025 27.6042 68.1722 26.5655 68.6209 25.5147C69.0718 24.4587 69.5919 23.415 70.1457 22.6143C70.4223 22.2145 70.6959 21.8935 70.9581 21.6635C71.2228 21.4314 71.4455 21.3196 71.6227 21.285L71.6267 21.2846Z" fill="#FFC931" stroke="black" stroke-width="1.3"/>
<path d="M99.0121 17.0855C99.0416 17.0892 99.1155 17.1072 99.2286 17.2605C99.3474 17.4217 99.4682 17.6807 99.5751 18.0457C99.7879 18.7724 99.9021 19.7557 99.9534 20.7764C100.004 21.7877 99.9918 22.796 99.9661 23.5547C99.9532 23.9329 99.9368 24.2476 99.924 24.4668C99.9176 24.5763 99.9123 24.6624 99.9084 24.7203C99.9064 24.7491 99.9045 24.7712 99.9034 24.7857C99.9029 24.793 99.9022 24.7988 99.9019 24.8022C99.9018 24.8039 99.9024 24.8055 99.9023 24.8063L99.8179 25.9007L100.819 25.4485L100.823 25.4471C100.826 25.4456 100.832 25.4428 100.839 25.4396C100.853 25.4333 100.875 25.4234 100.903 25.4109C100.961 25.3857 101.046 25.3488 101.155 25.3027C101.373 25.2103 101.688 25.0807 102.067 24.9349C102.827 24.6423 103.838 24.2872 104.862 24.027C105.9 23.763 106.887 23.6135 107.623 23.6879C107.987 23.7246 108.239 23.8118 108.4 23.9219C108.544 24.0196 108.643 24.152 108.688 24.3704C108.774 24.7887 108.568 25.291 107.892 25.8925C107.234 26.478 106.271 27.0239 105.24 27.4965C104.218 27.9651 103.17 28.3429 102.375 28.6042C101.979 28.7345 101.647 28.8358 101.415 28.9036C101.3 28.9374 101.209 28.9627 101.148 28.9797C101.117 28.9882 101.094 28.9948 101.079 28.9989C101.071 29.001 101.065 29.0022 101.061 29.0032C101.06 29.0036 101.059 29.0045 101.058 29.0047L101.057 29.0046L100.342 29.1947L100.623 29.8801L100.624 29.8803C100.624 29.8811 100.624 29.8827 100.625 29.8844C100.627 29.8881 100.629 29.8938 100.632 29.9013C100.639 29.9163 100.648 29.939 100.66 29.9687C100.684 30.0281 100.719 30.1164 100.764 30.2293C100.853 30.4553 100.98 30.7813 101.131 31.1786C101.432 31.9742 101.825 33.0542 102.193 34.1935C102.562 35.3359 102.901 36.5237 103.099 37.5393C103.198 38.0473 103.258 38.4977 103.273 38.8693C103.283 39.1276 103.268 39.3204 103.243 39.4575C103.152 39.41 103.026 39.3325 102.864 39.2095C102.273 38.7611 101.512 37.9606 100.738 37.0541C99.9737 36.158 99.2285 35.1957 98.6729 34.4555C98.3957 34.0862 98.1669 33.7732 98.0073 33.5529C97.9276 33.4429 97.8651 33.356 97.8228 33.2969C97.8017 33.2673 97.7855 33.2445 97.7748 33.2294C97.7694 33.2219 97.7651 33.2164 97.7625 33.2127C97.7612 33.211 97.7608 33.2093 97.7601 33.2084L97.7593 33.2073L97.3014 32.5583L96.7558 33.1356L96.7549 33.1355L96.7547 33.1364C96.754 33.1372 96.7527 33.1383 96.7512 33.1398C96.748 33.1432 96.7426 33.1485 96.7361 33.1553C96.7231 33.169 96.704 33.1899 96.6784 33.2167C96.627 33.2705 96.5502 33.3495 96.4525 33.4502C96.2571 33.6518 95.9756 33.9402 95.6311 34.2841C94.9413 34.9727 94.003 35.8826 93.0058 36.7742C92.0048 37.6693 90.961 38.5312 90.0569 39.1314C89.6038 39.4323 89.2065 39.653 88.882 39.7825C88.6344 39.8812 88.4813 39.9033 88.4002 39.9052C88.3961 39.8854 88.3901 39.8601 88.3862 39.828C88.3581 39.5966 88.3887 39.2217 88.4999 38.7035C88.7188 37.6832 89.1962 36.334 89.7505 34.9646C90.3014 33.6035 90.9154 32.2537 91.3926 31.2424C91.6309 30.7375 91.8347 30.3182 91.9786 30.0253C92.0505 29.8789 92.1075 29.7641 92.1464 29.6862C92.1657 29.6476 92.1803 29.6179 92.1903 29.5981C92.1953 29.5881 92.1992 29.58 92.2017 29.5751C92.2029 29.5727 92.2039 29.5708 92.2045 29.5696L92.2056 29.5688L92.5916 28.8054L91.7538 28.6373L91.749 28.6365C91.7459 28.6359 91.741 28.6347 91.7346 28.6334C91.7216 28.6307 91.702 28.627 91.6762 28.6216C91.624 28.6106 91.5463 28.594 91.4476 28.5722C91.2498 28.5287 90.9663 28.4639 90.6273 28.3801C89.9476 28.212 89.0509 27.9689 88.1703 27.666C87.2801 27.3598 86.4472 27.0061 85.8707 26.629C85.5815 26.4398 85.3939 26.2681 85.291 26.1256C85.2018 26.002 85.1997 25.9356 85.2043 25.9021C85.2146 25.8851 85.2584 25.8297 85.4059 25.7508C85.6207 25.636 85.9547 25.5298 86.4064 25.4438C87.3031 25.2731 88.498 25.2122 89.7194 25.2127C90.9329 25.2132 92.1397 25.2735 93.0452 25.3342C93.4972 25.3645 93.8728 25.3943 94.1349 25.4169C94.2658 25.4283 94.3684 25.4384 94.4378 25.445C94.4725 25.4482 94.4992 25.4502 94.5168 25.452C94.5254 25.4528 94.5319 25.4535 94.5362 25.4539L94.543 25.4549L95.1967 25.5211L95.2553 24.8653L95.2559 24.8615C95.2562 24.8579 95.2567 24.8524 95.2574 24.8449C95.2589 24.8298 95.2608 24.8063 95.2639 24.7758C95.2703 24.7146 95.2807 24.6239 95.2946 24.5078C95.3224 24.2751 95.3657 23.9411 95.4298 23.5416C95.5583 22.74 95.7668 21.6852 96.084 20.6508C96.4046 19.6055 96.8209 18.633 97.3429 17.9611C97.8562 17.3006 98.3973 17.0135 99.0121 17.0855Z" fill="#FFC931" stroke="black" stroke-width="1.3"/>
<path d="M126.607 17.0862C126.704 17.0653 126.75 17.0824 126.805 17.1259C126.887 17.1919 127.001 17.3389 127.115 17.6172C127.342 18.1729 127.476 19.0078 127.543 19.9288C127.608 20.8342 127.602 21.7622 127.581 22.4678C127.57 22.8192 127.555 23.113 127.543 23.3184C127.537 23.4211 127.531 23.5018 127.528 23.5561C127.526 23.5833 127.524 23.6041 127.523 23.6177C127.523 23.6243 127.522 23.6291 127.522 23.6323C127.522 23.6339 127.522 23.6355 127.521 23.6362L127.468 24.2939L128.127 24.3371L128.13 24.3376C128.134 24.3379 128.14 24.3387 128.147 24.3392C128.161 24.3401 128.182 24.3416 128.21 24.3437C128.266 24.3478 128.349 24.3542 128.455 24.3629C128.666 24.3803 128.968 24.4065 129.331 24.4441C130.059 24.5194 131.024 24.6375 131.982 24.8083C132.949 24.9806 133.872 25.2008 134.534 25.4696C134.869 25.6052 135.094 25.7364 135.223 25.8492C135.273 25.8937 135.296 25.925 135.307 25.942C135.3 25.97 135.275 26.0402 135.17 26.1523C135.036 26.2946 134.823 26.4557 134.528 26.6281C133.939 26.972 133.135 27.2951 132.299 27.5751C131.469 27.8529 130.638 28.0791 130.011 28.2358C129.699 28.3139 129.439 28.3744 129.258 28.4153C129.168 28.4357 129.097 28.4513 129.049 28.4616C129.025 28.4668 129.007 28.4707 128.995 28.4732C128.989 28.4745 128.984 28.4746 128.982 28.4752C128.98 28.4755 128.979 28.4766 128.978 28.4767L128.977 28.4765L128.385 28.5993L128.466 29.2002L128.466 29.2012C128.466 29.2021 128.467 29.2034 128.467 29.2053C128.468 29.2096 128.468 29.2167 128.469 29.2254C128.471 29.2428 128.475 29.2688 128.479 29.3029C128.488 29.3715 128.501 29.4728 128.517 29.602C128.548 29.8605 128.59 30.2315 128.636 30.6777C128.727 31.5717 128.83 32.764 128.877 33.9665C128.923 35.1767 128.911 36.3654 128.783 37.2649C128.718 37.7182 128.63 38.0569 128.528 38.2782C128.484 38.3735 128.446 38.4253 128.422 38.4539C128.389 38.4362 128.334 38.404 128.257 38.3361C128.06 38.1614 127.821 37.8606 127.552 37.4364C127.019 36.5956 126.456 35.4099 125.938 34.179C125.422 32.9549 124.962 31.7137 124.63 30.7764C124.464 30.3085 124.331 29.9174 124.239 29.6437C124.193 29.5072 124.158 29.3995 124.134 29.3266L124.1 29.2228C124.099 29.2205 124.098 29.2186 124.098 29.2175L124.098 29.2165L124.097 29.2164L123.801 28.2936L123.06 28.9183L123.059 28.9192C123.058 28.92 123.056 28.9217 123.054 28.9234C123.05 28.9269 123.043 28.9314 123.035 28.9383C123.018 28.9522 122.994 28.974 122.961 29.0012C122.896 29.0557 122.799 29.1357 122.676 29.2376C122.429 29.4413 122.073 29.7319 121.64 30.0785C120.773 30.7728 119.598 31.6895 118.366 32.5821C117.129 33.4776 115.85 34.3372 114.77 34.9255C114.229 35.2205 113.758 35.4351 113.382 35.5552C113.194 35.6151 113.046 35.6462 112.934 35.6564C112.923 35.6574 112.913 35.6561 112.903 35.6567C112.934 35.4549 113.042 35.1376 113.259 34.705C113.713 33.7984 114.509 32.6231 115.391 31.4381C116.267 30.2611 117.205 29.1033 117.926 28.2381C118.286 27.806 118.591 27.4477 118.806 27.1978C118.914 27.073 118.999 26.9751 119.056 26.9087C119.085 26.8757 119.107 26.8506 119.122 26.8337C119.129 26.8253 119.135 26.8187 119.139 26.8145C119.141 26.8124 119.143 26.8113 119.143 26.8103L119.144 26.8083L119.145 26.8085L119.696 26.1826L118.953 25.8008L118.952 25.8007L118.939 25.7936C118.928 25.7882 118.912 25.7795 118.891 25.7687C118.849 25.747 118.788 25.7147 118.71 25.6731C118.553 25.5898 118.329 25.4686 118.061 25.3193C117.523 25.0198 116.812 24.6084 116.112 24.1575C115.407 23.703 114.736 23.2236 114.266 22.789C114.029 22.5705 113.868 22.3855 113.776 22.2409C113.774 22.2377 113.772 22.2343 113.77 22.2312C113.978 22.162 114.302 22.1058 114.739 22.0704C115.611 21.9997 116.775 22.0244 117.96 22.0941C119.138 22.1634 120.31 22.2757 121.19 22.3701C121.63 22.4172 121.995 22.4599 122.251 22.4908C122.378 22.5063 122.479 22.518 122.546 22.5266C122.58 22.5309 122.606 22.535 122.623 22.5372C122.631 22.5383 122.638 22.5386 122.642 22.5392L122.649 22.5402L123.13 22.604L123.328 22.1598L123.328 22.1589L123.329 22.1571L123.352 22.1062C123.368 22.0696 123.393 22.0148 123.425 21.9454C123.49 21.8067 123.583 21.6069 123.7 21.3666C123.934 20.8849 124.26 20.2427 124.628 19.5949C124.999 18.9432 125.402 18.3049 125.788 17.8206C125.982 17.5783 126.16 17.3903 126.314 17.2611C126.477 17.1251 126.568 17.0936 126.59 17.0895L126.599 17.0879L126.607 17.0862Z" fill="#FFC931" stroke="black" stroke-width="1.3"/>
<path d="M153.784 27.0735C154.161 27.4753 154.359 28.1207 154.369 28.998C154.379 29.8935 154.193 30.9207 153.924 31.9145C153.657 32.9024 153.318 33.8266 153.045 34.5055C152.908 34.8437 152.789 35.1191 152.704 35.3093C152.662 35.4043 152.628 35.4781 152.605 35.5274C152.593 35.5519 152.585 35.5707 152.58 35.5828C152.577 35.5887 152.574 35.5928 152.573 35.5956C152.572 35.597 152.571 35.5988 152.571 35.5993L152.273 36.2218L152.912 36.4824L152.913 36.4826L152.991 36.5151C153.043 36.5368 153.12 36.5693 153.218 36.6107C153.415 36.6939 153.698 36.8137 154.035 36.9624C154.711 37.2601 155.607 37.6694 156.492 38.1169C157.383 38.5673 158.239 39.0449 158.849 39.4786C159.117 39.6692 159.313 39.8369 159.442 39.9732C159.323 40.0005 159.165 40.0253 158.963 40.0391C158.348 40.0807 157.518 40.0268 156.66 39.927C155.809 39.8281 154.963 39.6892 154.327 39.5743C154.01 39.5171 153.746 39.4658 153.563 39.4292C153.471 39.4109 153.398 39.3962 153.35 39.3862C153.326 39.3812 153.308 39.3766 153.295 39.374C153.289 39.3727 153.284 39.3724 153.281 39.3718C153.28 39.3715 153.279 39.3705 153.278 39.3704L153.277 39.3702L152.494 39.2034L152.492 40.0042L152.492 40.0061C152.492 40.007 152.492 40.0084 152.492 40.0101C152.492 40.0143 152.491 40.0212 152.491 40.0297C152.491 40.0469 152.492 40.0729 152.491 40.1068C152.491 40.1746 152.49 40.2749 152.488 40.4026C152.485 40.6578 152.477 41.0236 152.465 41.4638C152.44 42.3453 152.392 43.5215 152.299 44.7068C152.205 45.898 152.068 47.0742 151.871 47.9656C151.772 48.4147 151.665 48.7591 151.556 48.9886C151.536 49.0301 151.515 49.0622 151.499 49.0896C151.483 49.0774 151.465 49.0653 151.446 49.049C151.264 48.8913 151.034 48.622 150.768 48.2433C150.24 47.4927 149.653 46.4367 149.098 45.343C148.547 44.2549 148.039 43.1513 147.668 42.3189C147.483 41.9034 147.332 41.5561 147.228 41.3132C147.176 41.1918 147.136 41.0962 147.109 41.0315C147.095 40.9993 147.084 40.9751 147.078 40.9586C147.074 40.9503 147.071 40.9437 147.07 40.9396C147.069 40.9378 147.069 40.9364 147.068 40.9354L147.067 40.9343L147.068 40.9333L146.777 40.2337L146.129 40.6275L146.128 40.6284C146.127 40.6289 146.126 40.6295 146.124 40.6307C146.12 40.633 146.114 40.6371 146.106 40.6419C146.091 40.6513 146.067 40.6654 146.037 40.6837C145.975 40.7209 145.882 40.7758 145.764 40.845C145.528 40.9836 145.187 41.1807 144.773 41.4122C143.943 41.8757 142.82 42.4758 141.643 43.026C140.46 43.5789 139.248 44.0688 138.233 44.3268C137.724 44.456 137.294 44.5197 136.957 44.5152C136.611 44.5104 136.441 44.4357 136.368 44.3747C136.362 44.3699 136.358 44.3661 136.356 44.3642C136.355 44.3554 136.349 44.316 136.369 44.2318C136.417 44.0342 136.569 43.7364 136.863 43.3444C137.442 42.5737 138.404 41.6502 139.465 40.7441C140.516 39.8454 141.63 38.9924 142.482 38.3617C142.908 38.0469 143.268 37.7883 143.521 37.6091C143.647 37.5195 143.747 37.4498 143.815 37.4026C143.848 37.379 143.875 37.3611 143.892 37.3491L143.916 37.3311L143.917 37.3312L144.541 36.9021L144.022 36.3505L144.02 36.3483C144.019 36.3465 144.015 36.3438 144.012 36.3401C144.005 36.3325 143.994 36.3207 143.98 36.3057C143.952 36.2757 143.912 36.2309 143.859 36.1738C143.754 36.0593 143.603 35.894 143.422 35.692C143.06 35.2873 142.58 34.7382 142.105 34.1555C141.628 33.57 141.166 32.9644 140.834 32.4444C140.702 32.2385 140.598 32.0551 140.522 31.8995C140.623 31.9102 140.741 31.9259 140.877 31.9501C141.558 32.0717 142.483 32.3393 143.435 32.6529C144.38 32.9642 145.324 33.3118 146.034 33.582C146.388 33.7169 146.683 33.8323 146.889 33.9138C146.992 33.9545 147.073 33.9871 147.128 34.0091C147.155 34.0201 147.176 34.0287 147.19 34.0343C147.197 34.0371 147.202 34.0392 147.206 34.0406C147.207 34.0413 147.209 34.0419 147.209 34.0422L147.21 34.0423L147.707 34.2439L147.999 33.7952L148.001 33.7944C148.001 33.7935 148.002 33.7916 148.003 33.7898C148.006 33.7861 148.01 33.781 148.014 33.7738C148.024 33.7589 148.039 33.7364 148.058 33.7073C148.097 33.6485 148.154 33.5613 148.228 33.4515C148.376 33.2318 148.589 32.9191 148.849 32.5477C149.369 31.8035 150.076 30.8297 150.821 29.9007C151.573 28.964 152.34 28.1041 152.984 27.5669C153.312 27.2936 153.562 27.144 153.727 27.0877C153.751 27.0796 153.77 27.0768 153.784 27.0735Z" fill="#FFC931" stroke="black" stroke-width="1.3"/>
<path d="M180.799 37.4437C181.068 37.4144 181.353 37.4694 181.593 37.6584C181.817 37.8356 181.933 38.0766 181.995 38.2872C182.114 38.6917 182.095 39.2012 182.032 39.6991C181.901 40.7265 181.524 42.0814 181.096 43.3997C180.665 44.7285 180.168 46.0608 179.78 47.0586C179.624 47.4614 179.483 47.8099 179.373 48.0834C179.554 48.1457 179.766 48.2186 180.001 48.3038C180.769 48.5823 181.793 48.9784 182.804 49.4455C183.808 49.909 184.837 50.4586 185.592 51.0521C185.968 51.348 186.309 51.6802 186.54 52.0467C186.774 52.4191 186.92 52.8752 186.804 53.3677C186.688 53.8597 186.361 54.1952 185.975 54.4038C185.605 54.6033 185.162 54.7009 184.717 54.7451C183.825 54.8338 182.731 54.726 181.704 54.5593C180.667 54.3908 179.651 54.154 178.898 53.9603C178.733 53.9179 178.582 53.8746 178.444 53.8373C178.435 54.0259 178.427 54.2416 178.414 54.4787C178.365 55.3606 178.282 56.5452 178.146 57.7478C178.011 58.9446 177.821 60.1859 177.553 61.1693C177.419 61.6582 177.258 62.1146 177.058 62.4781C176.871 62.8161 176.576 63.2094 176.113 63.3437C175.527 63.5137 175.066 63.1451 174.809 62.8612C174.527 62.5492 174.272 62.1095 174.043 61.6313C173.579 60.6629 173.133 59.3505 172.748 58.0559C172.362 56.7537 172.028 55.4391 171.792 54.4525C171.711 54.1144 171.643 53.8138 171.586 53.5651C171.317 53.6786 170.983 53.8205 170.599 53.9779C169.568 54.4008 168.175 54.9526 166.739 55.4665C165.307 55.9787 163.812 56.4607 162.579 56.7361C161.966 56.8731 161.39 56.9655 160.908 56.9773C160.667 56.9832 160.428 56.9691 160.208 56.9208C159.992 56.8733 159.75 56.782 159.551 56.5983C159.088 56.1691 159.176 55.5955 159.335 55.2175C159.494 54.8395 159.792 54.4494 160.128 54.0801C160.814 53.328 161.836 52.4708 162.868 51.6765C163.907 50.8767 164.986 50.1186 165.803 49.5611C166.064 49.3831 166.299 49.2258 166.498 49.0933C166.464 49.0594 166.427 49.0255 166.39 48.9891C165.975 48.5765 165.427 48.0068 164.902 47.3874C164.382 46.7739 163.863 46.0842 163.525 45.4331C163.357 45.1079 163.218 44.7633 163.159 44.4226C163.099 44.081 163.112 43.6907 163.314 43.335L163.319 43.3259L163.326 43.317C163.587 42.8922 164.036 42.743 164.408 42.6974C164.789 42.6508 165.222 42.6926 165.655 42.7733C166.528 42.9359 167.573 43.2905 168.554 43.6767C169.543 44.0659 170.5 44.5002 171.208 44.8354C171.5 44.9739 171.751 45.0959 171.945 45.1917C172.145 44.9803 172.426 44.6845 172.766 44.3311C173.466 43.6018 174.418 42.6263 175.422 41.6441C176.423 40.6637 177.486 39.6675 178.404 38.9019C178.862 38.5198 179.297 38.1858 179.677 37.9377C180.026 37.7099 180.428 37.4862 180.797 37.4444L180.799 37.4437Z" fill="#FFC931" stroke="black" stroke-width="1.3"/>
<path d="M204.435 85.8483C204.256 85.8213 204.096 85.6756 203.995 85.539C201.866 81.1495 194.977 75.3123 194.867 75.235C194.598 75.0122 194.593 74.6471 194.816 74.3772C195.038 74.1073 195.403 74.1017 195.674 74.3247C195.943 74.5475 202.831 80.3848 205.103 85.0386C205.236 85.3624 205.123 85.7095 204.799 85.8426C204.68 85.8246 204.553 85.8662 204.435 85.8483Z" fill="black"/>
<path d="M197.925 92.7569C197.747 92.7299 197.586 92.5842 197.494 92.3883C193.942 84.5662 186.83 81.0021 186.772 80.9933C186.493 80.8297 186.36 80.5059 186.473 80.1588C186.637 79.88 186.961 79.7469 187.307 79.8599C187.586 80.0236 194.875 83.6144 198.611 91.8286C198.745 92.1522 198.631 92.4994 198.307 92.6325C198.17 92.7333 198.044 92.7749 197.925 92.7569Z" fill="black"/>
</svg>
