<svg width="788" height="258" viewBox="0 0 788 258" fill="none" xmlns="http://www.w3.org/2000/svg">
<path d="M135.524 190.002L73.2104 153.514L9.52621 190.282L72.7224 226.769L135.524 190.002Z" stroke="#B6EF0F" stroke-width="11"/>
<path d="M228.6 200V58.1H263.43V118.73C270.31 116.437 276.33 113.212 281.49 109.055C286.793 104.755 291.308 99.8817 295.035 94.435C298.762 88.9883 301.843 83.1833 304.28 77.02C306.717 70.7133 308.58 64.4067 309.87 58.1H349C347.28 66.27 344.772 74.01 341.475 81.32C338.322 88.4867 334.308 95.08 329.435 101.1C324.562 107.12 318.9 112.495 312.45 117.225C306 121.812 298.69 125.61 290.52 128.62V130.34C299.263 129.623 306.502 130.197 312.235 132.06C317.968 133.78 322.627 136.36 326.21 139.8C329.793 143.24 332.588 147.182 334.595 151.625C336.745 155.925 338.537 160.297 339.97 164.74L351.365 200H312.665L304.495 168.395C303.205 163.235 301.342 159.078 298.905 155.925C296.612 152.628 293.602 150.263 289.875 148.83C286.148 147.397 281.418 146.68 275.685 146.68H263.43V200H228.6ZM389.061 203.01C383.327 203.01 377.881 202.007 372.721 200C367.561 197.993 363.332 194.768 360.036 190.325C356.739 185.738 355.091 179.647 355.091 172.05C355.091 165.027 356.452 159.365 359.176 155.065C361.899 150.622 365.554 147.11 370.141 144.53C374.727 141.807 379.744 139.8 385.191 138.51C390.637 137.077 396.012 135.858 401.316 134.855C408.769 133.422 414.359 132.275 418.086 131.415C421.812 130.555 424.321 129.552 425.611 128.405C427.044 127.258 427.761 125.682 427.761 123.675C427.761 119.518 426.184 116.365 423.031 114.215C420.021 112.065 416.007 110.99 410.991 110.99C407.837 110.99 404.684 111.563 401.531 112.71C398.377 113.857 395.797 115.935 393.791 118.945C391.784 121.812 390.852 125.968 390.996 131.415L360.036 129.265C359.749 120.235 361.111 112.782 364.121 106.905C367.131 100.885 371.216 96.2267 376.376 92.93C381.679 89.49 387.412 87.0533 393.576 85.62C399.882 84.1867 406.117 83.47 412.281 83.47C423.604 83.47 432.921 85.62 440.231 89.92C447.541 94.0767 452.916 100.168 456.356 108.195C459.939 116.078 461.731 125.682 461.731 137.005V157.215C461.731 161.945 461.731 166.747 461.731 171.62C461.731 176.35 461.731 181.08 461.731 185.81C461.731 190.54 461.731 195.27 461.731 200H431.631C431.631 194.84 431.631 189.608 431.631 184.305C431.631 179.002 431.631 173.412 431.631 167.535H430.341C429.767 173.985 427.617 179.933 423.891 185.38C420.307 190.683 415.506 194.983 409.486 198.28C403.609 201.433 396.801 203.01 389.061 203.01ZM403.466 177.64C405.902 177.64 408.482 177.21 411.206 176.35C414.072 175.347 416.724 173.77 419.161 171.62C421.741 169.47 423.819 166.532 425.396 162.805C426.972 158.935 427.761 154.205 427.761 148.615V143.455L433.566 142.81C432.419 144.673 430.484 146.178 427.761 147.325C425.181 148.472 422.242 149.403 418.946 150.12C415.649 150.693 412.281 151.338 408.841 152.055C405.544 152.628 402.462 153.488 399.596 154.635C396.729 155.638 394.364 157.072 392.501 158.935C390.781 160.655 389.921 163.092 389.921 166.245C389.921 169.972 391.211 172.838 393.791 174.845C396.514 176.708 399.739 177.64 403.466 177.64ZM475.914 200V138.295V86.48H506.014V131.63H507.734C508.594 119.59 510.242 110.13 512.679 103.25C515.259 96.2267 518.412 91.2817 522.139 88.415C526.009 85.405 530.309 83.9 535.039 83.9C537.619 83.9 540.27 84.2583 542.994 84.975C545.861 85.6917 548.656 86.8383 551.379 88.415L549.659 127.115C546.505 125.252 543.424 123.89 540.414 123.03C537.404 122.027 534.537 121.525 531.814 121.525C527.227 121.525 523.357 122.815 520.204 125.395C517.05 127.975 514.614 131.773 512.894 136.79C511.317 141.807 510.529 147.898 510.529 155.065V200H475.914ZM600.313 203.01C592.143 203.01 584.761 200.788 578.168 196.345C571.718 191.902 566.558 185.165 562.688 176.135C558.961 167.105 557.098 155.71 557.098 141.95C557.098 128.907 558.818 118.085 562.258 109.485C565.698 100.742 570.571 94.22 576.878 89.92C583.185 85.62 590.566 83.47 599.023 83.47C605.616 83.47 611.421 84.8317 616.438 87.555C621.598 90.2783 625.827 94.5783 629.123 100.455C632.42 106.332 634.713 114 636.003 123.46H637.938C637.222 118.587 636.505 113.785 635.788 109.055C635.072 104.325 634.498 99.7383 634.068 95.295C633.782 90.8517 633.638 86.695 633.638 82.825V49.5H668.468V160.01V200H638.153V164.955H636.648C635.072 173.268 632.635 180.292 629.338 186.025C626.185 191.615 622.172 195.843 617.298 198.71C612.568 201.577 606.907 203.01 600.313 203.01ZM612.568 175.275C615.292 175.275 617.943 174.702 620.523 173.555C623.103 172.265 625.396 170.33 627.403 167.75C629.41 165.17 630.986 161.945 632.133 158.075C633.423 154.205 634.068 149.618 634.068 144.315V142.81C634.068 138.51 633.638 134.712 632.778 131.415C631.918 127.975 630.772 125.108 629.338 122.815C627.905 120.378 626.257 118.443 624.393 117.01C622.53 115.433 620.523 114.287 618.373 113.57C616.367 112.853 614.36 112.495 612.353 112.495C607.91 112.495 604.183 114 601.173 117.01C598.163 120.02 595.942 123.962 594.508 128.835C593.075 133.565 592.358 138.725 592.358 144.315C592.358 149.905 593.146 155.065 594.723 159.795C596.3 164.525 598.593 168.323 601.603 171.19C604.613 173.913 608.268 175.275 612.568 175.275ZM733.65 203.01C726.053 203.01 718.958 202.222 712.365 200.645C705.915 199.212 700.253 196.847 695.38 193.55C690.65 190.253 686.995 185.882 684.415 180.435C681.978 174.845 680.975 168.108 681.405 160.225L711.72 157.645C712.007 162.375 713.082 166.317 714.945 169.47C716.808 172.48 719.388 174.702 722.685 176.135C725.982 177.568 729.995 178.285 734.725 178.285C739.168 178.285 742.967 177.568 746.12 176.135C749.417 174.558 751.065 171.978 751.065 168.395C751.065 166.532 750.492 165.027 749.345 163.88C748.198 162.59 746.048 161.443 742.895 160.44C739.885 159.293 735.442 158.003 729.565 156.57C722.255 154.707 715.662 152.843 709.785 150.98C703.908 149.117 698.892 146.895 694.735 144.315C690.578 141.735 687.425 138.582 685.275 134.855C683.125 130.985 682.05 126.255 682.05 120.665C682.05 112.782 684.128 106.117 688.285 100.67C692.585 95.08 698.462 90.8517 705.915 87.985C713.368 84.975 721.968 83.47 731.715 83.47C740.458 83.47 748.628 84.8317 756.225 87.555C763.822 90.2783 769.77 94.7217 774.07 100.885C778.513 107.048 780.162 115.218 779.015 125.395L749.345 128.19C749.775 124.033 749.202 120.522 747.625 117.655C746.048 114.645 743.755 112.423 740.745 110.99C737.735 109.413 734.08 108.625 729.78 108.625C724.907 108.625 721.108 109.557 718.385 111.42C715.805 113.14 714.515 115.362 714.515 118.085C714.515 120.235 715.303 122.098 716.88 123.675C718.6 125.108 721.18 126.398 724.62 127.545C728.203 128.548 732.79 129.695 738.38 130.985C743.253 131.988 748.342 133.278 753.645 134.855C758.948 136.432 763.893 138.582 768.48 141.305C773.067 143.885 776.793 147.325 779.66 151.625C782.527 155.925 783.96 161.372 783.96 167.965C783.96 174.988 782.025 181.152 778.155 186.455C774.285 191.758 768.623 195.843 761.17 198.71C753.717 201.577 744.543 203.01 733.65 203.01Z" fill="white"/>
<path d="M144.999 145.5V190H134.702V194.414L144.999 200.387L70 156.887V102L144.999 145.5ZM79.5156 151.405L135.483 183.867V150.98L79.5156 118.519V151.405Z" fill="#B6EF0F"/>
<path d="M79.7061 107.674V152.352H69.4512V156.784L79.7061 162.779V162.78L5 119.106V64L79.7061 107.674ZM14.4961 113.658L70.209 146.229V113.122L14.4961 80.5518V113.658Z" fill="#B6EF0F"/>
<path d="M149.918 75.332L77.541 117.29L5 74.915V64H4.99707L69.0039 27.4775L149.918 75.332ZM14.5977 69.4893L77.5225 106.246L130.999 75.2461L68.8887 38.5117L14.5977 69.4893Z" fill="#B6EF0F"/>
</svg>
