<svg width="1853" height="600" viewBox="0 0 1853 600" fill="none" xmlns="http://www.w3.org/2000/svg">
<path opacity="0.8" d="M0 177.749L212.608 300.498L425.215 177.749L212.608 54.9999L0 177.749Z" fill="url(#paint0_linear_32_17)"/>
<path opacity="0.65" fill-rule="evenodd" clip-rule="evenodd" d="M210.75 177.911V177.832L238.276 193.724L210.75 177.911ZM424.334 301.144L424.523 301.254V423.625L318.161 362.217L424.334 301.144Z" fill="url(#paint1_linear_32_17)"/>
<rect opacity="0.65" width="245.498" height="122.749" transform="matrix(0.866025 0.5 0 -1 0 300.498)" fill="url(#paint2_linear_32_17)"/>
<rect opacity="0.75" width="245.476" height="244.721" transform="matrix(0.866025 0.5 0.866025 -0.5 0 423.247)" fill="url(#paint3_linear_32_17)"/>
<path fill-rule="evenodd" clip-rule="evenodd" d="M212.916 423.425L0 300.498L106.262 239.148L213.5 299.833L317.781 239.626L424.523 301.254L212.916 423.425Z" fill="url(#paint4_linear_32_17)"/>
<path d="M553 465V135H634V276C650 270.667 664 263.167 676 253.5C688.333 243.5 698.833 232.167 707.5 219.5C716.167 206.833 723.333 193.333 729 179C734.667 164.333 739 149.667 742 135H833C829 154 823.167 172 815.5 189C808.167 205.667 798.833 221 787.5 235C776.167 249 763 261.5 748 272.5C733 283.167 716 292 697 299V303C717.333 301.333 734.167 302.667 747.5 307C760.833 311 771.667 317 780 325C788.333 333 794.833 342.167 799.5 352.5C804.5 362.5 808.667 372.667 812 383L838.5 465H748.5L729.5 391.5C726.5 379.5 722.167 369.833 716.5 362.5C711.167 354.833 704.167 349.333 695.5 346C686.833 342.667 675.833 341 662.5 341H634V465H553ZM926.164 472C912.831 472 900.164 469.667 888.164 465C876.164 460.333 866.331 452.833 858.664 442.5C850.997 431.833 847.164 417.667 847.164 400C847.164 383.667 850.331 370.5 856.664 360.5C862.997 350.167 871.497 342 882.164 336C892.831 329.667 904.497 325 917.164 322C929.831 318.667 942.331 315.833 954.664 313.5C971.997 310.167 984.997 307.5 993.664 305.5C1002.33 303.5 1008.16 301.167 1011.16 298.5C1014.5 295.833 1016.16 292.167 1016.16 287.5C1016.16 277.833 1012.5 270.5 1005.16 265.5C998.164 260.5 988.831 258 977.164 258C969.831 258 962.497 259.333 955.164 262C947.831 264.667 941.831 269.5 937.164 276.5C932.497 283.167 930.331 292.833 930.664 305.5L858.664 300.5C857.997 279.5 861.164 262.167 868.164 248.5C875.164 234.5 884.664 223.667 896.664 216C908.997 208 922.331 202.333 936.664 199C951.331 195.667 965.831 194 980.164 194C1006.5 194 1028.16 199 1045.16 209C1062.16 218.667 1074.66 232.833 1082.66 251.5C1091 269.833 1095.16 292.167 1095.16 318.5V365.5C1095.16 376.5 1095.16 387.667 1095.16 399C1095.16 410 1095.16 421 1095.16 432C1095.16 443 1095.16 454 1095.16 465H1025.16C1025.16 453 1025.16 440.833 1025.16 428.5C1025.16 416.167 1025.16 403.167 1025.16 389.5H1022.16C1020.83 404.5 1015.83 418.333 1007.16 431C998.831 443.333 987.664 453.333 973.664 461C959.997 468.333 944.164 472 926.164 472ZM959.664 413C965.331 413 971.331 412 977.664 410C984.331 407.667 990.497 404 996.164 399C1002.16 394 1007 387.167 1010.66 378.5C1014.33 369.5 1016.16 358.5 1016.16 345.5V333.5L1029.66 332C1027 336.333 1022.5 339.833 1016.16 342.5C1010.16 345.167 1003.33 347.333 995.664 349C987.997 350.333 980.164 351.833 972.164 353.5C964.497 354.833 957.331 356.833 950.664 359.5C943.997 361.833 938.497 365.167 934.164 369.5C930.164 373.5 928.164 379.167 928.164 386.5C928.164 395.167 931.164 401.833 937.164 406.5C943.497 410.833 950.997 413 959.664 413ZM1128.15 465V321.5V201H1198.15V306H1202.15C1204.15 278 1207.98 256 1213.65 240C1219.65 223.667 1226.98 212.167 1235.65 205.5C1244.65 198.5 1254.65 195 1265.65 195C1271.65 195 1277.82 195.833 1284.15 197.5C1290.82 199.167 1297.32 201.833 1303.65 205.5L1299.65 295.5C1292.32 291.167 1285.15 288 1278.15 286C1271.15 283.667 1264.48 282.5 1258.15 282.5C1247.48 282.5 1238.48 285.5 1231.15 291.5C1223.82 297.5 1218.15 306.333 1214.15 318C1210.48 329.667 1208.65 343.833 1208.65 360.5V465H1128.15ZM1417.45 472C1398.45 472 1381.28 466.833 1365.95 456.5C1350.95 446.167 1338.95 430.5 1329.95 409.5C1321.28 388.5 1316.95 362 1316.95 330C1316.95 299.667 1320.95 274.5 1328.95 254.5C1336.95 234.167 1348.28 219 1362.95 209C1377.62 199 1394.78 194 1414.45 194C1429.78 194 1443.28 197.167 1454.95 203.5C1466.95 209.833 1476.78 219.833 1484.45 233.5C1492.12 247.167 1497.45 265 1500.45 287H1504.95C1503.28 275.667 1501.62 264.5 1499.95 253.5C1498.28 242.5 1496.95 231.833 1495.95 221.5C1495.28 211.167 1494.95 201.5 1494.95 192.5V115H1575.95V372V465H1505.45V383.5H1501.95C1498.28 402.833 1492.62 419.167 1484.95 432.5C1477.62 445.5 1468.28 455.333 1456.95 462C1445.95 468.667 1432.78 472 1417.45 472ZM1445.95 407.5C1452.28 407.5 1458.45 406.167 1464.45 403.5C1470.45 400.5 1475.78 396 1480.45 390C1485.12 384 1488.78 376.5 1491.45 367.5C1494.45 358.5 1495.95 347.833 1495.95 335.5V332C1495.95 322 1494.95 313.167 1492.95 305.5C1490.95 297.5 1488.28 290.833 1484.95 285.5C1481.62 279.833 1477.78 275.333 1473.45 272C1469.12 268.333 1464.45 265.667 1459.45 264C1454.78 262.333 1450.12 261.5 1445.45 261.5C1435.12 261.5 1426.45 265 1419.45 272C1412.45 279 1407.28 288.167 1403.95 299.5C1400.62 310.5 1398.95 322.5 1398.95 335.5C1398.95 348.5 1400.78 360.5 1404.45 371.5C1408.12 382.5 1413.45 391.333 1420.45 398C1427.45 404.333 1435.95 407.5 1445.95 407.5ZM1727.54 472C1709.87 472 1693.37 470.167 1678.04 466.5C1663.04 463.167 1649.87 457.667 1638.54 450C1627.54 442.333 1619.04 432.167 1613.04 419.5C1607.37 406.5 1605.04 390.833 1606.04 372.5L1676.54 366.5C1677.2 377.5 1679.7 386.667 1684.04 394C1688.37 401 1694.37 406.167 1702.04 409.5C1709.7 412.833 1719.04 414.5 1730.04 414.5C1740.37 414.5 1749.2 412.833 1756.54 409.5C1764.2 405.833 1768.04 399.833 1768.04 391.5C1768.04 387.167 1766.7 383.667 1764.04 381C1761.37 378 1756.37 375.333 1749.04 373C1742.04 370.333 1731.7 367.333 1718.04 364C1701.04 359.667 1685.7 355.333 1672.04 351C1658.37 346.667 1646.7 341.5 1637.04 335.5C1627.37 329.5 1620.04 322.167 1615.04 313.5C1610.04 304.5 1607.54 293.5 1607.54 280.5C1607.54 262.167 1612.37 246.667 1622.04 234C1632.04 221 1645.7 211.167 1663.04 204.5C1680.37 197.5 1700.37 194 1723.04 194C1743.37 194 1762.37 197.167 1780.04 203.5C1797.7 209.833 1811.54 220.167 1821.54 234.5C1831.87 248.833 1835.7 267.833 1833.04 291.5L1764.04 298C1765.04 288.333 1763.7 280.167 1760.04 273.5C1756.37 266.5 1751.04 261.333 1744.04 258C1737.04 254.333 1728.54 252.5 1718.54 252.5C1707.2 252.5 1698.37 254.667 1692.04 259C1686.04 263 1683.04 268.167 1683.04 274.5C1683.04 279.5 1684.87 283.833 1688.54 287.5C1692.54 290.833 1698.54 293.833 1706.54 296.5C1714.87 298.833 1725.54 301.5 1738.54 304.5C1749.87 306.833 1761.7 309.833 1774.04 313.5C1786.37 317.167 1797.87 322.167 1808.54 328.5C1819.2 334.5 1827.87 342.5 1834.54 352.5C1841.2 362.5 1844.54 375.167 1844.54 390.5C1844.54 406.833 1840.04 421.167 1831.04 433.5C1822.04 445.833 1808.87 455.333 1791.54 462C1774.2 468.667 1752.87 472 1727.54 472Z" fill="black"/>
<defs>
<linearGradient id="paint0_linear_32_17" x1="106.304" y1="239.124" x2="212.608" y2="54.9999" gradientUnits="userSpaceOnUse">
<stop offset="0.00960465" stop-color="#FF8A65"/>
<stop offset="1" stop-color="#F03B03"/>
</linearGradient>
<linearGradient id="paint1_linear_32_17" x1="317.637" y1="361.914" x2="370.625" y2="270.136" gradientUnits="userSpaceOnUse">
<stop stop-color="#F03B03"/>
<stop offset="1" stop-color="#FF8A65"/>
</linearGradient>
<linearGradient id="paint2_linear_32_17" x1="122.749" y1="0" x2="122.749" y2="122.749" gradientUnits="userSpaceOnUse">
<stop offset="0.00960465" stop-color="#FF8A65"/>
<stop offset="1" stop-color="#F03B03"/>
</linearGradient>
<linearGradient id="paint3_linear_32_17" x1="122.738" y1="0" x2="122.738" y2="244.721" gradientUnits="userSpaceOnUse">
<stop stop-color="#F03B03"/>
<stop offset="0.673095" stop-color="#FF8A65"/>
</linearGradient>
<linearGradient id="paint4_linear_32_17" x1="106.458" y1="361.962" x2="212.262" y2="178.704" gradientUnits="userSpaceOnUse">
<stop offset="0.00960465" stop-color="#FF8A65"/>
<stop offset="1" stop-color="#F03B03"/>
</linearGradient>
</defs>
</svg>
