<svg width="344" height="404" viewBox="0 0 344 404" fill="none" xmlns="http://www.w3.org/2000/svg">
<g filter="url(#filter0_d_1_3)">
<path d="M32.0231 76.0574C25.0831 153.644 21.6634 195.959 20 260.278C22.3868 285.263 26.9274 296.059 44.98 305.352C117.617 336.602 168.297 360.658 227.751 383.255C252.806 385.876 262.55 380.517 272.372 366.98C292.569 317.37 302.359 261.46 321.429 191.206C326.306 163.793 322.29 151.886 301.986 137.3C226.37 93.4209 116.078 32.5593 116.078 32.5593C116.078 32.5593 95.2429 19.0071 81.7658 20.0581C65.7967 22.8922 58.4324 27.3606 48.7767 37.0984C37.6008 48.6162 33.9613 57.1579 32.0231 76.0574Z" fill="#7793E9"/>
</g>
<defs>
<filter id="filter0_d_1_3" x="0" y="0" width="343.304" height="403.9" filterUnits="userSpaceOnUse" color-interpolation-filters="sRGB">
<feFlood flood-opacity="0" result="BackgroundImageFix"/>
<feColorMatrix in="SourceAlpha" type="matrix" values="0 0 0 0 0 0 0 0 0 0 0 0 0 0 0 0 0 0 127 0" result="hardAlpha"/>
<feOffset/>
<feGaussianBlur stdDeviation="10"/>
<feComposite in2="hardAlpha" operator="out"/>
<feColorMatrix type="matrix" values="0 0 0 0 0 0 0 0 0 0 0 0 0 0 0 0 0 0 0.1 0"/>
<feBlend mode="normal" in2="BackgroundImageFix" result="effect1_dropShadow_1_3"/>
<feBlend mode="normal" in="SourceGraphic" in2="effect1_dropShadow_1_3" result="shape"/>
</filter>
</defs>
</svg>
