<svg width="365" height="418" viewBox="0 0 365 418" fill="none" xmlns="http://www.w3.org/2000/svg">
<path fill-rule="evenodd" clip-rule="evenodd" d="M157.025 165.688C165.875 158.665 175.987 153.402 186.817 150.182C197.657 146.67 209.126 145.54 220.443 146.872C221.188 147.049 221.962 147.071 222.716 146.936C223.47 146.801 224.189 146.512 224.827 146.087C225.464 145.662 226.008 145.11 226.422 144.466C226.837 143.821 227.113 143.098 227.237 142.342C227.415 141.573 227.43 140.777 227.288 140.001C227.143 139.226 226.842 138.489 226.399 137.835C225.959 137.181 225.387 136.625 224.722 136.202C224.057 135.778 223.311 135.496 222.533 135.373C209.547 132.672 196.145 132.672 183.159 135.373C170.006 137.97 157.433 142.928 146.048 150.008C141.297 152.449 137.117 155.869 133.783 160.044C130.45 164.218 128.039 169.051 126.709 174.224C126.242 178.376 126.738 182.579 128.158 186.506C129.578 190.434 131.885 193.982 134.898 196.874C138.736 201.178 143.394 204.674 148.599 207.157C153.805 209.641 159.453 211.06 165.213 211.336C176.497 211.546 187.741 209.899 198.489 206.457C206.764 203.564 215.524 202.321 224.275 202.798C238.561 205.062 253.719 213.948 268.703 216.911C276.488 218.745 284.63 218.384 292.222 215.864C293.91 215.357 295.326 214.199 296.158 212.647C296.991 211.095 297.174 209.275 296.665 207.589C296.157 205.902 295 204.487 293.448 203.653C291.896 202.821 290.076 202.638 288.391 203.146C283.019 204.541 277.383 204.541 272.014 203.146C257.03 198.964 242.221 188.511 227.934 185.724C216.366 183.629 204.482 184.045 193.088 186.943C184.354 189.363 175.322 190.537 166.258 190.429C160.291 190.07 154.685 187.454 150.578 183.11C148.488 180.846 147.094 179.451 147.791 177.709C149.409 172.767 152.668 168.526 157.025 165.688Z" fill="#020202"/>
<path fill-rule="evenodd" clip-rule="evenodd" d="M360.344 142.167C341.703 134.327 325.5 124.745 307.206 115.859C295.148 109.721 282.551 104.706 269.574 100.876C247.733 94.8172 224.809 93.7454 202.497 97.7401C205.689 85.6844 207.905 73.3907 209.119 60.9787C210.153 50.1062 209.683 39.1429 207.723 28.3986C203.368 7.66589 192.217 0 182.461 0C175.955 0.610193 169.701 2.82321 164.258 6.44119C158.817 10.0592 154.355 14.9693 151.274 20.7328L138.905 42.5108C130.305 61.8365 122.915 81.6784 116.779 101.921H114.688C99.5743 111.889 86.4564 124.593 76.0101 139.38C70.5925 146.461 65.8668 154.045 61.8979 162.029C57.8442 170.159 54.6332 178.683 52.3156 187.466C50.5464 194.018 50.1437 200.863 51.1328 207.577C52.1219 214.291 54.4815 220.728 58.065 226.492C61.5328 231.102 66.6753 234.16 72.3808 235.008C78.0863 235.856 83.8962 234.425 88.5543 231.022C83.3833 252.378 80.4635 274.217 79.843 296.183C79.9933 298.886 80.4017 301.57 81.0627 304.196C81.6095 306.998 82.4266 309.74 83.5017 312.385C86.1145 318.528 89.3859 324.37 93.2583 329.807C95.5232 335.208 107.719 338.345 129.323 318.309C131.591 316.214 133.688 313.942 135.595 311.514C137.534 309.099 139.282 306.535 140.822 303.848C143.818 297.66 146.493 291.322 148.836 284.858C155.209 290.367 162.529 294.678 170.44 297.576C175.086 299.302 179.956 300.357 184.901 300.713C192.456 301.24 200.048 300.535 207.375 298.621C208.944 298.621 210.164 296.705 211.731 296.008C224.297 304.085 238.793 308.656 253.719 309.249C264.099 309.141 274.44 307.913 284.557 305.589C298.523 301.85 312.725 299.056 327.068 297.228C328.823 297.228 330.507 296.529 331.749 295.289C332.991 294.047 333.688 292.363 333.688 290.608C333.688 288.85 332.991 287.168 331.749 285.926C330.507 284.684 328.823 283.986 327.068 283.986C309.648 282.706 292.142 283.115 274.8 285.207L255.112 287.122H242.569C236.708 287.135 230.865 286.492 225.147 285.207C227.176 283.09 228.879 280.682 230.2 278.062C232.486 273.165 232.918 267.602 231.412 262.412C229.905 257.22 226.565 252.751 222.01 249.839H219.572C223.566 247.198 226.974 243.762 229.583 239.744C232.19 235.728 233.943 231.217 234.728 226.492C235.418 222.097 234.733 217.597 232.769 213.605C230.804 209.613 227.655 206.327 223.752 204.191C222.338 203.298 220.638 202.972 218.994 203.282C217.348 203.59 215.881 204.512 214.889 205.858C213.896 207.204 213.448 208.878 213.638 210.54C213.828 212.203 214.641 213.732 215.913 214.819C217.059 215.843 217.872 217.188 218.245 218.678C218.618 220.169 218.534 221.739 218.003 223.182C216.853 225.666 215.133 227.843 212.983 229.538C210.834 231.234 208.317 232.398 205.633 232.939C201.373 233.74 197 233.74 192.74 232.939L182.286 231.892C177.18 231.133 172.119 230.086 167.13 228.757V219.175C167.521 218.407 167.738 217.564 167.768 216.702C167.799 215.841 167.641 214.984 167.306 214.19C166.972 213.398 166.469 212.685 165.831 212.107C165.194 211.527 164.438 211.095 163.616 210.837C162.794 210.581 161.925 210.507 161.071 210.62C160.218 210.733 159.397 211.031 158.671 211.492C157.945 211.954 157.327 212.569 156.862 213.295C156.397 214.019 156.095 214.836 155.979 215.69C154.237 218.826 143.087 240.778 142.216 243.567C141.393 246.545 140.753 249.57 140.299 252.625C140.214 253.902 140.214 255.182 140.299 256.459C135.769 254.543 131.936 252.277 127.406 250.535C125.525 249.637 123.534 248.992 121.483 248.619C119.537 248.16 117.555 247.867 115.559 247.747C110.158 247.747 105.628 248.794 100.402 249.142H99.3563C108.764 212.381 118.347 174.05 129.323 136.418C137.046 107.679 146.887 79.5518 158.767 52.2674L168.524 32.2316C172.531 25.4369 176.711 20.0358 181.59 19.8616C186.468 19.6875 188.037 24.5657 190.127 32.7543C192.388 41.8646 193.327 51.2527 192.914 60.6302C192.32 75.4183 190.338 90.118 186.991 104.535C186.618 106.242 186.918 108.027 187.825 109.519C188.734 111.012 190.181 112.097 191.869 112.549C193.252 112.808 194.682 112.608 195.939 111.979C197.199 111.35 198.216 110.326 198.839 109.065C199.572 109.317 200.37 109.317 201.103 109.065C216.951 109.104 232.697 111.571 247.796 116.382C253.371 118.124 258.946 120.215 264.347 122.132C272.884 125.093 281.769 128.404 289.61 131.54C311.213 139.728 332.991 148.091 355.99 154.363C357.676 154.921 359.515 154.796 361.11 154.014C362.706 153.232 363.932 151.857 364.526 150.182C365.02 148.564 364.858 146.818 364.076 145.319C363.294 143.82 361.953 142.688 360.344 142.167ZM89.0769 209.07C86.962 211.63 84.2771 213.659 81.2368 214.993C79.2679 215.712 77.1079 215.712 75.1389 214.993C73.7452 214.993 73.7452 212.729 73.2225 211.16C71.3152 204.973 71.3152 198.357 73.2225 192.17C75.7814 183.215 79.0437 174.477 82.979 166.036C86.798 157.317 91.2225 148.875 96.2202 140.774C100.411 134.663 105.01 128.843 109.984 123.351C109.984 126.487 108.067 129.275 107.196 132.411C101.447 155.583 96.9171 179.277 92.9098 202.101C92.0388 204.54 90.8191 206.805 89.0769 209.07ZM182.461 254.369C191.51 256.978 201.114 256.978 210.164 254.369C209.73 255.572 209.664 256.877 209.974 258.118C210.284 259.359 210.956 260.48 211.905 261.337C213.11 262.779 213.771 264.597 213.771 266.477C213.771 268.356 213.11 270.174 211.905 271.616C210.602 273.342 208.953 274.776 207.062 275.826C205.172 276.876 203.084 277.519 200.929 277.714C195.669 278.877 190.281 279.346 184.901 279.107C179.066 279.382 173.218 278.973 167.479 277.888C162.01 276.709 156.733 274.774 151.799 272.139C154.063 267.957 156.327 263.951 158.244 259.77C159.573 256.957 160.681 254.043 161.554 251.058C161.986 249.569 162.334 248.055 162.6 246.528C168.874 249.947 175.544 252.58 182.461 254.369ZM96.9171 261.337C101.181 264.394 105.665 267.132 110.332 269.526C112.274 270.425 114.323 271.07 116.43 271.442C118.575 271.622 120.732 271.622 122.877 271.442C127.947 271.296 133.006 270.888 138.034 270.223V274.229C137.498 275.633 137.498 277.183 138.034 278.585C132.293 283.077 126.824 287.904 121.657 293.046C118.733 296.616 116 300.338 113.468 304.196C110.507 308.726 107.893 313.43 105.106 317.96C105.106 313.895 104.757 309.888 104.06 305.939C103.675 301.698 102.917 297.501 101.795 293.394C99.3587 286.459 96.0821 279.848 92.0388 273.706C92.0388 273.706 93.0842 272.487 93.2583 271.791C94.3037 267.957 95.349 263.951 96.2202 260.118C96.3944 261.337 96.5686 261.337 96.9171 261.337Z" fill="#020202"/>
<path fill-rule="evenodd" clip-rule="evenodd" d="M162.947 373.19C143.379 365.553 122.02 363.737 101.445 367.964L80.8863 373.19L58.7598 376.325C54.2048 376.505 49.6444 376.155 45.1703 375.28C40.9779 374.403 36.9308 372.936 33.1488 370.924C26.0055 367.267 21.1272 362.911 20.2561 357.51C19.9072 354.154 20.4672 350.766 21.8772 347.701C23.2871 344.636 25.4953 342.006 28.2705 340.088C34.8983 334.383 42.5985 330.058 50.9197 327.369C59.6501 324.619 68.7737 323.325 77.9246 323.535C79.2996 323.297 80.5463 322.581 81.4448 321.513C82.3433 320.446 82.8361 319.096 82.8361 317.699C82.8361 316.304 82.3433 314.953 81.4448 313.885C80.5463 312.817 79.2996 312.101 77.9246 311.863C67.6193 310.75 57.2012 311.339 47.0868 313.604C36.437 315.928 26.3639 320.373 17.4685 326.672C11.8687 330.084 7.29406 334.943 4.22751 340.74C1.16095 346.536 -0.283759 353.051 0.0461125 359.6C0.990096 366.163 3.53397 372.393 7.45342 377.74C11.3727 383.087 16.5474 387.388 22.5211 390.264C27.9283 393.446 33.8102 395.74 39.9435 397.058C46.1243 398.373 52.4466 398.899 58.7598 398.627C63.3755 398.5 67.9758 398.034 72.5235 397.232C76.8792 397.232 81.2348 395.491 85.5903 394.446L106.497 387.651C122.405 382.855 139.373 382.855 155.28 387.651C158.068 388.871 160.681 390.09 161.378 392.704C162.074 395.317 161.378 401.066 156.325 407.338C155.799 408.036 155.416 408.83 155.196 409.677C154.977 410.523 154.926 411.404 155.048 412.27C155.17 413.136 155.461 413.968 155.904 414.72C156.348 415.475 156.935 416.133 157.633 416.659C158.33 417.185 159.126 417.57 159.97 417.788C160.817 418.007 161.698 418.057 162.564 417.936C164.312 417.692 165.89 416.762 166.953 415.353C170.38 411.925 172.965 407.75 174.508 403.156C176.049 398.561 176.504 393.671 175.839 388.871C174.931 385.488 173.311 382.341 171.087 379.636C168.865 376.931 166.089 374.734 162.947 373.19Z" fill="#FF5621"/>
</svg>
