<svg width="30" height="22" viewBox="0 0 30 22" fill="none" xmlns="http://www.w3.org/2000/svg">
<path d="M30 17.0738C30 17.8948 29.8155 18.6226 29.4464 19.257C29.1142 19.8541 28.6713 20.3579 28.1176 20.7684C27.564 21.179 26.955 21.4962 26.2907 21.7201C25.6632 21.9067 25.0727 22 24.519 22C23.6701 22 22.8028 21.8134 21.917 21.4402C21.068 21.0297 20.293 20.4512 19.5917 19.7048C18.8904 18.9584 18.3183 18.0628 17.8754 17.0178C17.4325 15.9729 17.2111 14.8159 17.2111 13.5471C17.2111 11.3452 17.6171 9.46056 18.4291 7.89313C19.278 6.3257 20.2745 5.01951 21.4187 3.97456C22.5998 2.89228 23.7993 2.05259 25.0173 1.45547C26.2722 0.821035 27.3057 0.373198 28.1176 0.111959V1.90331C27.3795 2.35115 26.5859 2.8363 25.737 3.35878C24.925 3.88126 24.1684 4.49703 23.4671 5.20611C22.8028 5.91518 22.2491 6.71756 21.8062 7.61323C21.3633 8.50891 21.1419 9.51654 21.1419 10.6361C21.1419 11.1959 21.1972 11.6438 21.308 11.9796C21.4187 12.3155 21.5479 12.5768 21.6955 12.7634C21.88 12.95 22.0461 13.0806 22.1938 13.1552C22.3783 13.2299 22.526 13.2672 22.6367 13.2672C23.0427 13.2672 23.5409 13.1552 24.1315 12.9313C24.722 12.6701 25.2757 12.5394 25.7924 12.5394C26.2722 12.5394 26.752 12.6514 27.2318 12.8753C27.7486 13.0619 28.2099 13.3605 28.6159 13.771C29.0219 14.1442 29.3541 14.6107 29.6125 15.1705C29.8708 15.7303 30 16.3647 30 17.0738ZM12.7336 16.9618C12.7336 17.7829 12.549 18.5106 12.1799 19.145C11.8478 19.7795 11.4048 20.302 10.8512 20.7125C10.2976 21.0857 9.68858 21.3842 9.02422 21.6081C8.39677 21.7947 7.78777 21.888 7.19723 21.888C6.34833 21.888 5.49942 21.7014 4.65052 21.3282C3.80161 20.9177 3.02653 20.3579 2.32526 19.6489C1.62399 18.9025 1.0519 18.0068 0.608997 16.9618C0.202999 15.9169 0 14.76 0 13.4911C0 11.2892 0.405998 9.40458 1.21799 7.83715C2.0669 6.2324 3.06344 4.90755 4.20761 3.8626C5.3887 2.78032 6.58823 1.94063 7.80623 1.34351C9.02422 0.709075 10.0392 0.261238 10.8512 0V1.84733C10.113 2.29517 9.31949 2.78032 8.47059 3.3028C7.65859 3.82528 6.90196 4.44105 6.20069 5.15013C5.53633 5.8592 4.96424 6.66158 4.48443 7.55725C4.04152 8.41561 3.82007 9.42324 3.82007 10.5802C3.82007 11.6251 4.02307 12.3155 4.42907 12.6514C4.87197 12.9873 5.20415 13.1552 5.42561 13.1552C5.79469 13.1552 6.27451 13.0433 6.86505 12.8193C7.45559 12.5954 8.00923 12.4835 8.52595 12.4835C9.00577 12.4835 9.48558 12.5954 9.9654 12.8193C10.4821 13.0059 10.9435 13.3045 11.3495 13.715C11.7555 14.0882 12.0877 14.5547 12.346 15.1145C12.6044 15.637 12.7336 16.2528 12.7336 16.9618Z" fill="#7793E9"/>
</svg>
