<svg width="333" height="452" viewBox="0 0 333 452" fill="none" xmlns="http://www.w3.org/2000/svg">
<rect x="1.5" y="32.8348" width="330" height="417" rx="9.5" fill="#F34E1E" stroke="black" stroke-width="3"/>
<g filter="url(#filter0_d_15_455)">
<path d="M108 54.6758C108 56.9523 107.496 58.9701 106.487 60.7292C105.579 62.3849 104.368 63.7818 102.855 64.9201C101.342 66.0583 99.677 66.9379 97.8611 67.5587C96.1461 68.0761 94.5319 68.3348 93.0187 68.3348C90.6983 68.3348 88.3276 67.8174 85.9063 66.7826C83.586 65.6444 81.4674 64.0405 79.5506 61.9709C77.6338 59.9014 76.0701 57.4179 74.8595 54.5206C73.6489 51.6232 73.0436 48.4154 73.0436 44.8972C73.0436 38.792 74.1533 33.5664 76.3728 29.2203C78.6931 24.8742 81.417 21.2525 84.5444 18.3552C87.7727 15.3543 91.0514 13.0261 94.3806 11.3704C97.8107 9.61131 100.635 8.36958 102.855 7.64524V12.6122C100.837 13.8539 98.6682 15.1991 96.3479 16.6478C94.1284 18.0965 92.0603 19.8039 90.1435 21.7699C88.3276 23.736 86.8143 25.9608 85.6037 28.4442C84.3931 30.9277 83.7878 33.7216 83.7878 36.8259C83.7878 38.3781 83.9391 39.6198 84.2418 40.5511C84.5444 41.4824 84.8975 42.2067 85.301 42.7241C85.8055 43.2415 86.2594 43.6037 86.663 43.8106C87.1674 44.0176 87.5709 44.1211 87.8736 44.1211C88.9833 44.1211 90.3453 43.8106 91.9594 43.1898C93.5736 42.4654 95.0868 42.1033 96.4992 42.1033C97.8107 42.1033 99.1222 42.4137 100.434 43.0346C101.846 43.5519 103.107 44.3798 104.217 45.518C105.327 46.5528 106.235 47.8463 106.941 49.3984C107.647 50.9506 108 52.7097 108 54.6758ZM60.8051 54.3653C60.8051 56.6419 60.3007 58.6597 59.2918 60.4188C58.3839 62.1779 57.1732 63.6266 55.66 64.7648C54.1467 65.7996 52.4821 66.6274 50.6662 67.2483C48.9512 67.7657 47.2866 68.0244 45.6724 68.0244C43.3521 68.0244 41.0318 67.507 38.7114 66.4722C36.3911 65.334 34.2725 63.7818 32.3557 61.8157C30.4389 59.7462 28.8752 57.2627 27.6646 54.3653C26.5549 51.468 26 48.2602 26 44.7419C26 38.6368 27.1097 33.4111 29.3292 29.0651C31.6495 24.6156 34.3734 20.9421 37.5008 18.0447C40.7291 15.0439 44.0078 12.7156 47.337 11.06C50.6662 9.30088 53.4405 8.05915 55.66 7.33481V12.4569C53.6423 13.6987 51.4733 15.0439 49.1529 16.4926C46.9335 17.9413 44.8654 19.6486 42.9486 21.6147C41.1326 23.5808 39.5689 25.8055 38.2574 28.289C37.0468 30.669 36.4415 33.4629 36.4415 36.6707C36.4415 39.5681 36.9964 41.4824 38.1061 42.4137C39.3167 43.345 40.2247 43.8106 40.83 43.8106C41.8388 43.8106 43.1503 43.5002 44.7645 42.8793C46.3786 42.2585 47.8919 41.948 49.3043 41.948C50.6158 41.948 51.9273 42.2585 53.2388 42.8793C54.6511 43.3967 55.9122 44.2245 57.0219 45.3628C58.1316 46.3976 59.0396 47.691 59.7458 49.2432C60.452 50.6919 60.8051 52.3993 60.8051 54.3653Z" fill="white"/>
<path d="M104.354 13.45L103.641 13.8895C101.634 15.1247 99.4753 16.4621 97.167 17.9032C95.0482 19.2862 93.0703 20.9193 91.2314 22.8036C89.5244 24.6549 88.0975 26.7518 86.9521 29.1014C85.8531 31.3561 85.2881 33.9211 85.2881 36.826C85.2881 38.3014 85.4339 39.3674 85.668 40.0877C85.9229 40.8721 86.1899 41.3995 86.4336 41.7342C86.821 42.1244 87.1096 42.3409 87.3018 42.4491C87.4754 42.5178 87.6123 42.5639 87.7168 42.5907C87.8167 42.6163 87.8658 42.6203 87.874 42.6209C88.7219 42.6209 89.8815 42.3788 91.3975 41.7977C93.1392 41.0229 94.8452 40.6034 96.499 40.6034C98.0347 40.6034 99.5446 40.9636 101.017 41.6512C102.611 42.2468 104.028 43.1838 105.261 44.4403C106.522 45.6218 107.532 47.077 108.306 48.7772C109.113 50.552 109.5 52.5279 109.5 54.6756C109.5 57.1812 108.943 59.4624 107.788 61.4754L107.787 61.4745C106.778 63.3066 105.432 64.8588 103.757 66.119C102.116 67.3535 100.31 68.3071 98.3467 68.9784L98.3203 68.9872L98.2939 68.995C96.4636 69.5471 94.7025 69.8348 93.0186 69.8348C90.4701 69.8348 87.8989 69.2656 85.3164 68.162L85.2812 68.1463L85.2461 68.1297C82.7457 66.9032 80.4808 65.1825 78.4502 62.9901C76.401 60.7775 74.7464 58.14 73.4756 55.0985C72.1798 51.9972 71.544 48.59 71.5439 44.8973C71.5439 38.6132 72.6861 33.1416 75.0371 28.5379L75.043 28.5262L75.0498 28.5135C77.4367 24.0428 80.2582 20.2816 83.5254 17.2547C86.6324 14.367 89.8102 12.0624 93.0615 10.3602L93.7129 10.0272C97.167 8.2564 100.066 6.97792 102.39 6.21957L104.354 5.57797V13.45ZM57.1602 13.2948L56.4463 13.7342C54.439 14.9695 52.2802 16.3067 49.9717 17.7479L49.9727 17.7489C47.8555 19.1308 45.8777 20.761 44.04 22.6434C42.326 24.5011 40.8437 26.6076 39.5947 28.9686L39.3975 29.3739C38.4419 31.4211 37.9414 33.8409 37.9414 36.6707C37.9414 39.4916 38.5063 40.7739 39.0547 41.2498C39.604 41.6702 40.0429 41.954 40.3799 42.1268C40.7486 42.3159 40.8757 42.3104 40.8301 42.3104C41.5685 42.3104 42.6787 42.0743 44.2256 41.4793C45.9742 40.8067 47.672 40.4481 49.3047 40.4481C50.8398 40.4482 52.3488 40.8087 53.8203 41.4959C55.412 42.0902 56.8261 43.0245 58.0576 44.2772C59.3226 45.4601 60.3361 46.918 61.1113 48.6219H61.1104C61.924 50.307 62.3047 52.2356 62.3047 54.3651C62.3047 56.8466 61.757 59.1075 60.625 61.1063L60.4316 61.4686C59.4472 63.2589 58.157 64.7636 56.5615 65.9637L56.5342 65.9842L56.5068 66.0028C54.8767 67.1175 53.0894 68.0052 51.1514 68.6678L51.126 68.6766L51.0996 68.6844C49.2595 69.2395 47.4487 69.5242 45.6729 69.5243C43.1228 69.5243 40.5947 68.9548 38.1006 67.8426L38.0752 67.8309L38.0508 67.8192C35.5672 66.6008 33.3102 64.9442 31.2812 62.8631L31.2686 62.8495L31.2549 62.8348C29.2058 60.6223 27.5511 57.9847 26.2803 54.9432L26.2715 54.9227L26.2637 54.9022C25.0802 51.8122 24.5 48.4193 24.5 44.742C24.5 38.4579 25.6421 32.9863 27.9932 28.3827L27.999 28.3719C30.3851 23.7964 33.2078 19.977 36.4814 16.9442C39.7956 13.8638 43.1903 11.4466 46.6689 9.71664C50.0196 7.94766 52.8675 6.66843 55.1943 5.90903L57.1602 5.26743V13.2948Z" stroke="black" stroke-width="3"/>
</g>
<rect x="24.8102" y="334.068" width="97.5333" height="97.5333" rx="48.7667" fill="#FFC700"/>
<rect x="24.8102" y="334.068" width="97.5333" height="97.5333" rx="48.7667" stroke="black" stroke-width="3.0963"/>
<circle cx="58.0953" cy="369.426" r="3.87037" fill="black"/>
<circle cx="89.0584" cy="369.426" r="3.87037" fill="black"/>
<path d="M100.945 396.519C97.3506 400.113 93.0839 402.964 88.3881 404.909C83.6924 406.854 78.6595 407.855 73.5769 407.855C68.4942 407.855 63.4614 406.854 58.7656 404.909C54.0699 402.964 49.8032 400.113 46.2092 396.519" stroke="black" stroke-width="4.64444" stroke-linecap="round"/>
<defs>
<filter id="filter0_d_15_455" x="18.8" y="1.23978e-05" width="96.4" height="76.5348" filterUnits="userSpaceOnUse" color-interpolation-filters="sRGB">
<feFlood flood-opacity="0" result="BackgroundImageFix"/>
<feColorMatrix in="SourceAlpha" type="matrix" values="0 0 0 0 0 0 0 0 0 0 0 0 0 0 0 0 0 0 127 0" result="hardAlpha"/>
<feOffset dy="1"/>
<feGaussianBlur stdDeviation="2.1"/>
<feComposite in2="hardAlpha" operator="out"/>
<feColorMatrix type="matrix" values="0 0 0 0 0 0 0 0 0 0 0 0 0 0 0 0 0 0 0.68 0"/>
<feBlend mode="normal" in2="BackgroundImageFix" result="effect1_dropShadow_15_455"/>
<feBlend mode="normal" in="SourceGraphic" in2="effect1_dropShadow_15_455" result="shape"/>
</filter>
</defs>
</svg>
