<svg width="333" height="509" viewBox="0 0 333 509" fill="none" xmlns="http://www.w3.org/2000/svg">
<rect x="1.5" y="90.5" width="330" height="417" rx="9.5" fill="#F34E1E" stroke="black" stroke-width="3"/>
<rect x="24.8102" y="391.733" width="97.5333" height="97.5333" rx="48.7667" fill="#FFC700"/>
<rect x="24.8102" y="391.733" width="97.5333" height="97.5333" rx="48.7667" stroke="black" stroke-width="3.0963"/>
<circle cx="58.0953" cy="427.091" r="3.87037" fill="black"/>
<circle cx="89.0584" cy="427.091" r="3.87037" fill="black"/>
<path d="M100.945 454.184C97.3506 457.778 93.0839 460.629 88.3881 462.574C83.6924 464.519 78.6595 465.52 73.5769 465.52C68.4942 465.52 63.4614 464.519 58.7656 462.574C54.0699 460.629 49.8032 457.778 46.2092 454.184" stroke="black" stroke-width="4.64444" stroke-linecap="round"/>
<mask id="path-6-outside-1_15_484" maskUnits="userSpaceOnUse" x="23" y="57" width="89" height="72" fill="black">
<rect fill="white" x="23" y="57" width="89" height="72"/>
<path d="M54.8 61.2L58.1 66.9C53.9 69.1 49.7 72.7 45.5 77.7C41.5 82.5 39.5 87.8 39.5 93.6C39.5 95.8 40 98 41 100.2C42.2 99.2 43.4 98.6 44.6 98.4C46 98 47.3 97.8 48.5 97.8C51.9 97.8 54.9 99 57.5 101.4C60.3 103.8 61.7 107 61.7 111C61.7 115 60.2 118.4 57.2 121.2C54.2 124 50.4 125.4 45.8 125.4C39.6 125.4 34.9 123 31.7 118.2C28.5 113.4 26.9 107.8 26.9 101.4C26.9 93.6 29.3 86.1 34.1 78.9C38.9 71.5 45.8 65.6 54.8 61.2ZM101.3 61.2L104.6 66.9C100.4 69.1 96.2 72.7 92 77.7C88 82.5 86 87.8 86 93.6C86 95.8 86.5 98 87.5 100.2C88.7 99.2 89.9 98.6 91.1 98.4C92.5 98 93.8 97.8 95 97.8C98.4 97.8 101.4 99 104 101.4C106.8 103.8 108.2 107 108.2 111C108.2 115 106.7 118.4 103.7 121.2C100.7 124 96.9 125.4 92.3 125.4C86.1 125.4 81.4 123 78.2 118.2C75 113.4 73.4 107.8 73.4 101.4C73.4 93.6 75.8 86.1 80.6 78.9C85.4 71.5 92.3 65.6 101.3 61.2Z"/>
</mask>
<path d="M54.8 61.2L58.1 66.9C53.9 69.1 49.7 72.7 45.5 77.7C41.5 82.5 39.5 87.8 39.5 93.6C39.5 95.8 40 98 41 100.2C42.2 99.2 43.4 98.6 44.6 98.4C46 98 47.3 97.8 48.5 97.8C51.9 97.8 54.9 99 57.5 101.4C60.3 103.8 61.7 107 61.7 111C61.7 115 60.2 118.4 57.2 121.2C54.2 124 50.4 125.4 45.8 125.4C39.6 125.4 34.9 123 31.7 118.2C28.5 113.4 26.9 107.8 26.9 101.4C26.9 93.6 29.3 86.1 34.1 78.9C38.9 71.5 45.8 65.6 54.8 61.2ZM101.3 61.2L104.6 66.9C100.4 69.1 96.2 72.7 92 77.7C88 82.5 86 87.8 86 93.6C86 95.8 86.5 98 87.5 100.2C88.7 99.2 89.9 98.6 91.1 98.4C92.5 98 93.8 97.8 95 97.8C98.4 97.8 101.4 99 104 101.4C106.8 103.8 108.2 107 108.2 111C108.2 115 106.7 118.4 103.7 121.2C100.7 124 96.9 125.4 92.3 125.4C86.1 125.4 81.4 123 78.2 118.2C75 113.4 73.4 107.8 73.4 101.4C73.4 93.6 75.8 86.1 80.6 78.9C85.4 71.5 92.3 65.6 101.3 61.2Z" fill="white"/>
<path d="M54.8 61.2L57.3963 59.6969L55.995 57.2765L53.4824 58.5048L54.8 61.2ZM58.1 66.9L59.492 69.5575L62.2643 68.1053L60.6963 65.3969L58.1 66.9ZM45.5 77.7L43.2029 75.7704L43.1953 75.7794L45.5 77.7ZM41 100.2L38.2689 101.441L39.8974 105.024L42.9206 102.505L41 100.2ZM44.6 98.4L45.0932 101.359L45.2608 101.331L45.4242 101.285L44.6 98.4ZM57.5 101.4L55.4652 103.604L55.5057 103.642L55.5476 103.678L57.5 101.4ZM57.2 121.2L55.153 119.007H55.153L57.2 121.2ZM31.7 118.2L29.2038 119.864V119.864L31.7 118.2ZM34.1 78.9L36.5962 80.5641L36.6066 80.5484L36.6169 80.5326L34.1 78.9ZM101.3 61.2L103.896 59.6969L102.495 57.2765L99.9824 58.5048L101.3 61.2ZM104.6 66.9L105.992 69.5575L108.764 68.1053L107.196 65.3969L104.6 66.9ZM92 77.7L89.7029 75.7704L89.6953 75.7794L92 77.7ZM87.5 100.2L84.7689 101.441L86.3974 105.024L89.4206 102.505L87.5 100.2ZM91.1 98.4L91.5932 101.359L91.7608 101.331L91.9242 101.285L91.1 98.4ZM104 101.4L101.965 103.604L102.006 103.642L102.048 103.678L104 101.4ZM103.7 121.2L105.747 123.393H105.747L103.7 121.2ZM80.6 78.9L83.0962 80.5641L83.1066 80.5484L83.1169 80.5326L80.6 78.9ZM54.8 61.2L52.2037 62.7031L55.5037 68.4031L58.1 66.9L60.6963 65.3969L57.3963 59.6969L54.8 61.2ZM58.1 66.9L56.708 64.2425C52.0577 66.6784 47.5657 70.5766 43.2029 75.7704L45.5 77.7L47.7971 79.6296C51.8343 74.8234 55.7423 71.5216 59.492 69.5575L58.1 66.9ZM45.5 77.7L43.1953 75.7794C38.7834 81.0738 36.5 87.042 36.5 93.6H39.5H42.5C42.5 88.558 44.2166 83.9262 47.8047 79.6205L45.5 77.7ZM39.5 93.6H36.5C36.5 96.2689 37.1093 98.8903 38.2689 101.441L41 100.2L43.7311 98.9586C42.8907 97.1097 42.5 95.3311 42.5 93.6H39.5ZM41 100.2L42.9206 102.505C43.8253 101.751 44.5478 101.45 45.0932 101.359L44.6 98.4L44.1068 95.4408C42.2522 95.7499 40.5747 96.6493 39.0794 97.8953L41 100.2ZM44.6 98.4L45.4242 101.285C46.6111 100.945 47.6307 100.8 48.5 100.8V97.8V94.8C46.9694 94.8 45.3889 95.0546 43.7758 95.5154L44.6 98.4ZM48.5 97.8V100.8C51.1127 100.8 53.3945 101.693 55.4652 103.604L57.5 101.4L59.5348 99.1956C56.4055 96.307 52.6873 94.8 48.5 94.8V97.8ZM57.5 101.4L55.5476 103.678C57.6215 105.455 58.7 107.792 58.7 111H61.7H64.7C64.7 106.208 62.9785 102.145 59.4524 99.1222L57.5 101.4ZM61.7 111H58.7C58.7 114.144 57.563 116.758 55.153 119.007L57.2 121.2L59.247 123.393C62.837 120.042 64.7 115.856 64.7 111H61.7ZM57.2 121.2L55.153 119.007C52.7772 121.224 49.7395 122.4 45.8 122.4V125.4V128.4C51.0605 128.4 55.6228 126.776 59.247 123.393L57.2 121.2ZM45.8 125.4V122.4C40.514 122.4 36.7921 120.43 34.1962 116.536L31.7 118.2L29.2038 119.864C33.0079 125.57 38.686 128.4 45.8 128.4V125.4ZM31.7 118.2L34.1962 116.536C31.3601 112.282 29.9 107.275 29.9 101.4H26.9H23.9C23.9 108.325 25.6399 114.518 29.2038 119.864L31.7 118.2ZM26.9 101.4H29.9C29.9 94.2562 32.0873 87.3273 36.5962 80.5641L34.1 78.9L31.6039 77.2359C26.5127 84.8727 23.9 92.9438 23.9 101.4H26.9ZM34.1 78.9L36.6169 80.5326C41.0823 73.6483 47.5386 68.0894 56.1176 63.8951L54.8 61.2L53.4824 58.5048C44.0614 63.1106 36.7177 69.3517 31.5831 77.2674L34.1 78.9ZM101.3 61.2L98.7037 62.7031L102.004 68.4031L104.6 66.9L107.196 65.3969L103.896 59.6969L101.3 61.2ZM104.6 66.9L103.208 64.2425C98.5577 66.6784 94.0657 70.5766 89.7029 75.7704L92 77.7L94.2971 79.6296C98.3343 74.8234 102.242 71.5216 105.992 69.5575L104.6 66.9ZM92 77.7L89.6953 75.7794C85.2834 81.0738 83 87.042 83 93.6H86H89C89 88.558 90.7166 83.9262 94.3047 79.6205L92 77.7ZM86 93.6H83C83 96.2689 83.6093 98.8903 84.7689 101.441L87.5 100.2L90.2311 98.9586C89.3907 97.1097 89 95.3311 89 93.6H86ZM87.5 100.2L89.4206 102.505C90.3253 101.751 91.0479 101.45 91.5932 101.359L91.1 98.4L90.6068 95.4408C88.7522 95.7499 87.0747 96.6493 85.5795 97.8953L87.5 100.2ZM91.1 98.4L91.9242 101.285C93.1111 100.945 94.1307 100.8 95 100.8V97.8V94.8C93.4694 94.8 91.8889 95.0546 90.2758 95.5154L91.1 98.4ZM95 97.8V100.8C97.6127 100.8 99.8945 101.693 101.965 103.604L104 101.4L106.035 99.1956C102.906 96.307 99.1873 94.8 95 94.8V97.8ZM104 101.4L102.048 103.678C104.122 105.455 105.2 107.792 105.2 111H108.2H111.2C111.2 106.208 109.478 102.145 105.952 99.1222L104 101.4ZM108.2 111H105.2C105.2 114.144 104.063 116.758 101.653 119.007L103.7 121.2L105.747 123.393C109.337 120.042 111.2 115.856 111.2 111H108.2ZM103.7 121.2L101.653 119.007C99.2772 121.224 96.2395 122.4 92.3 122.4V125.4V128.4C97.5605 128.4 102.123 126.776 105.747 123.393L103.7 121.2ZM92.3 125.4V122.4C87.014 122.4 83.2921 120.43 80.6962 116.536L78.2 118.2L75.7038 119.864C79.5079 125.57 85.186 128.4 92.3 128.4V125.4ZM78.2 118.2L80.6962 116.536C77.8601 112.282 76.4 107.275 76.4 101.4H73.4H70.4C70.4 108.325 72.1399 114.518 75.7038 119.864L78.2 118.2ZM73.4 101.4H76.4C76.4 94.2562 78.5873 87.3273 83.0962 80.5641L80.6 78.9L78.1039 77.2359C73.0127 84.8727 70.4 92.9438 70.4 101.4H73.4ZM80.6 78.9L83.1169 80.5326C87.5823 73.6483 94.0386 68.0894 102.618 63.8951L101.3 61.2L99.9824 58.5048C90.5614 63.1106 83.2177 69.3517 78.0831 77.2674L80.6 78.9Z" fill="black" mask="url(#path-6-outside-1_15_484)"/>
</svg>
